<?xml version="1.0" encoding="utf-8" standalone="no"?>
<!DOCTYPE svg PUBLIC "-//W3C//DTD SVG 1.1//EN"
  "http://www.w3.org/Graphics/SVG/1.1/DTD/svg11.dtd">
<!-- Created with matplotlib (https://matplotlib.org/) -->
<svg height="504pt" version="1.1" viewBox="0 0 720 504" width="720pt" xmlns="http://www.w3.org/2000/svg" xmlns:xlink="http://www.w3.org/1999/xlink">
 <defs>
  <style type="text/css">
*{stroke-linecap:butt;stroke-linejoin:round;}
  </style>
 </defs>
 <g id="figure_1">
  <g id="patch_1">
   <path d="M 0 504 
L 720 504 
L 720 0 
L 0 0 
z
" style="fill:#ffffff;"/>
  </g>
  <g id="axes_1">
   <g id="patch_2">
    <path d="M 55.56 446.784 
L 706.05 446.784 
L 706.05 10.8 
L 55.56 10.8 
z
" style="fill:#ffffff;"/>
   </g>
   <g id="patch_3">
    <path clip-path="url(#p88efb1017b)" d="M 56.86098 446.784 
L 67.26882 446.784 
L 67.26882 97.9968 
L 56.86098 97.9968 
z
" style="fill:#808080;"/>
   </g>
   <g id="patch_4">
    <path clip-path="url(#p88efb1017b)" d="M 69.87078 446.784 
L 80.27862 446.784 
L 80.27862 354.542757 
L 69.87078 354.542757 
z
" style="fill:#808080;"/>
   </g>
   <g id="patch_5">
    <path clip-path="url(#p88efb1017b)" d="M 82.88058 446.784 
L 93.28842 446.784 
L 93.28842 400.783484 
L 82.88058 400.783484 
z
" style="fill:#808080;"/>
   </g>
   <g id="patch_6">
    <path clip-path="url(#p88efb1017b)" d="M 95.89038 446.784 
L 106.29822 446.784 
L 106.29822 410.632159 
L 95.89038 410.632159 
z
" style="fill:#808080;"/>
   </g>
   <g id="patch_7">
    <path clip-path="url(#p88efb1017b)" d="M 108.90018 446.784 
L 119.30802 446.784 
L 119.30802 411.833217 
L 108.90018 411.833217 
z
" style="fill:#808080;"/>
   </g>
   <g id="patch_8">
    <path clip-path="url(#p88efb1017b)" d="M 121.90998 446.784 
L 132.31782 446.784 
L 132.31782 413.875015 
L 121.90998 413.875015 
z
" style="fill:#808080;"/>
   </g>
   <g id="patch_9">
    <path clip-path="url(#p88efb1017b)" d="M 134.91978 446.784 
L 145.32762 446.784 
L 145.32762 416.637448 
L 134.91978 416.637448 
z
" style="fill:#808080;"/>
   </g>
   <g id="patch_10">
    <path clip-path="url(#p88efb1017b)" d="M 147.92958 446.784 
L 158.33742 446.784 
L 158.33742 412.433745 
L 147.92958 412.433745 
z
" style="fill:#808080;"/>
   </g>
   <g id="patch_11">
    <path clip-path="url(#p88efb1017b)" d="M 160.93938 446.784 
L 171.34722 446.784 
L 171.34722 417.838506 
L 160.93938 417.838506 
z
" style="fill:#808080;"/>
   </g>
   <g id="patch_12">
    <path clip-path="url(#p88efb1017b)" d="M 173.94918 446.784 
L 184.35702 446.784 
L 184.35702 414.955967 
L 173.94918 414.955967 
z
" style="fill:#808080;"/>
   </g>
   <g id="patch_13">
    <path clip-path="url(#p88efb1017b)" d="M 186.95898 446.784 
L 197.36682 446.784 
L 197.36682 424.204112 
L 186.95898 424.204112 
z
" style="fill:#808080;"/>
   </g>
   <g id="patch_14">
    <path clip-path="url(#p88efb1017b)" d="M 199.96878 446.784 
L 210.37662 446.784 
L 210.37662 424.684536 
L 199.96878 424.684536 
z
" style="fill:#808080;"/>
   </g>
   <g id="patch_15">
    <path clip-path="url(#p88efb1017b)" d="M 212.97858 446.784 
L 223.38642 446.784 
L 223.38642 429.849084 
L 212.97858 429.849084 
z
" style="fill:#808080;"/>
   </g>
   <g id="patch_16">
    <path clip-path="url(#p88efb1017b)" d="M 225.98838 446.784 
L 236.39622 446.784 
L 236.39622 432.731623 
L 225.98838 432.731623 
z
" style="fill:#808080;"/>
   </g>
   <g id="patch_17">
    <path clip-path="url(#p88efb1017b)" d="M 238.99818 446.784 
L 249.40602 446.784 
L 249.40602 432.2512 
L 238.99818 432.2512 
z
" style="fill:#808080;"/>
   </g>
   <g id="patch_18">
    <path clip-path="url(#p88efb1017b)" d="M 252.00798 446.784 
L 262.41582 446.784 
L 262.41582 433.332152 
L 252.00798 433.332152 
z
" style="fill:#808080;"/>
   </g>
   <g id="patch_19">
    <path clip-path="url(#p88efb1017b)" d="M 265.01778 446.784 
L 275.42562 446.784 
L 275.42562 435.614162 
L 265.01778 435.614162 
z
" style="fill:#808080;"/>
   </g>
   <g id="patch_20">
    <path clip-path="url(#p88efb1017b)" d="M 278.02758 446.784 
L 288.43542 446.784 
L 288.43542 436.575008 
L 278.02758 436.575008 
z
" style="fill:#808080;"/>
   </g>
   <g id="patch_21">
    <path clip-path="url(#p88efb1017b)" d="M 291.03738 446.784 
L 301.44522 446.784 
L 301.44522 436.334797 
L 291.03738 436.334797 
z
" style="fill:#808080;"/>
   </g>
   <g id="patch_22">
    <path clip-path="url(#p88efb1017b)" d="M 304.04718 446.784 
L 314.45502 446.784 
L 314.45502 435.734268 
L 304.04718 435.734268 
z
" style="fill:#808080;"/>
   </g>
   <g id="patch_23">
    <path clip-path="url(#p88efb1017b)" d="M 317.05698 446.784 
L 327.46482 446.784 
L 327.46482 436.094585 
L 317.05698 436.094585 
z
" style="fill:#808080;"/>
   </g>
   <g id="patch_24">
    <path clip-path="url(#p88efb1017b)" d="M 330.06678 446.784 
L 340.47462 446.784 
L 340.47462 436.094585 
L 330.06678 436.094585 
z
" style="fill:#808080;"/>
   </g>
   <g id="patch_25">
    <path clip-path="url(#p88efb1017b)" d="M 343.07658 446.784 
L 353.48442 446.784 
L 353.48442 437.055431 
L 343.07658 437.055431 
z
" style="fill:#808080;"/>
   </g>
   <g id="patch_26">
    <path clip-path="url(#p88efb1017b)" d="M 356.08638 446.784 
L 366.49422 446.784 
L 366.49422 435.854374 
L 356.08638 435.854374 
z
" style="fill:#808080;"/>
   </g>
   <g id="patch_27">
    <path clip-path="url(#p88efb1017b)" d="M 369.09618 446.784 
L 379.50402 446.784 
L 379.50402 436.214691 
L 369.09618 436.214691 
z
" style="fill:#808080;"/>
   </g>
   <g id="patch_28">
    <path clip-path="url(#p88efb1017b)" d="M 382.10598 446.784 
L 392.51382 446.784 
L 392.51382 438.376595 
L 382.10598 438.376595 
z
" style="fill:#808080;"/>
   </g>
   <g id="patch_29">
    <path clip-path="url(#p88efb1017b)" d="M 395.11578 446.784 
L 405.52362 446.784 
L 405.52362 439.217336 
L 395.11578 439.217336 
z
" style="fill:#808080;"/>
   </g>
   <g id="patch_30">
    <path clip-path="url(#p88efb1017b)" d="M 408.12558 446.784 
L 418.53342 446.784 
L 418.53342 436.695114 
L 408.12558 436.695114 
z
" style="fill:#808080;"/>
   </g>
   <g id="patch_31">
    <path clip-path="url(#p88efb1017b)" d="M 421.13538 446.784 
L 431.54322 446.784 
L 431.54322 438.857018 
L 421.13538 438.857018 
z
" style="fill:#808080;"/>
   </g>
   <g id="patch_32">
    <path clip-path="url(#p88efb1017b)" d="M 434.14518 446.784 
L 444.55302 446.784 
L 444.55302 437.896172 
L 434.14518 437.896172 
z
" style="fill:#808080;"/>
   </g>
   <g id="patch_33">
    <path clip-path="url(#p88efb1017b)" d="M 447.15498 446.784 
L 457.56282 446.784 
L 457.56282 440.058076 
L 447.15498 440.058076 
z
" style="fill:#808080;"/>
   </g>
   <g id="patch_34">
    <path clip-path="url(#p88efb1017b)" d="M 460.16478 446.784 
L 470.57262 446.784 
L 470.57262 436.81522 
L 460.16478 436.81522 
z
" style="fill:#808080;"/>
   </g>
   <g id="patch_35">
    <path clip-path="url(#p88efb1017b)" d="M 473.17458 446.784 
L 483.58242 446.784 
L 483.58242 439.93797 
L 473.17458 439.93797 
z
" style="fill:#808080;"/>
   </g>
   <g id="patch_36">
    <path clip-path="url(#p88efb1017b)" d="M 486.18438 446.784 
L 496.59222 446.784 
L 496.59222 439.337441 
L 486.18438 439.337441 
z
" style="fill:#808080;"/>
   </g>
   <g id="patch_37">
    <path clip-path="url(#p88efb1017b)" d="M 499.19418 446.784 
L 509.60202 446.784 
L 509.60202 441.139028 
L 499.19418 441.139028 
z
" style="fill:#808080;"/>
   </g>
   <g id="patch_38">
    <path clip-path="url(#p88efb1017b)" d="M 512.20398 446.784 
L 522.61182 446.784 
L 522.61182 441.37924 
L 512.20398 441.37924 
z
" style="fill:#808080;"/>
   </g>
   <g id="patch_39">
    <path clip-path="url(#p88efb1017b)" d="M 525.21378 446.784 
L 535.62162 446.784 
L 535.62162 440.418393 
L 525.21378 440.418393 
z
" style="fill:#808080;"/>
   </g>
   <g id="patch_40">
    <path clip-path="url(#p88efb1017b)" d="M 538.22358 446.784 
L 548.63142 446.784 
L 548.63142 441.859663 
L 538.22358 441.859663 
z
" style="fill:#808080;"/>
   </g>
   <g id="patch_41">
    <path clip-path="url(#p88efb1017b)" d="M 551.23338 446.784 
L 561.64122 446.784 
L 561.64122 442.940615 
L 551.23338 442.940615 
z
" style="fill:#808080;"/>
   </g>
   <g id="patch_42">
    <path clip-path="url(#p88efb1017b)" d="M 564.24318 446.784 
L 574.65102 446.784 
L 574.65102 441.018922 
L 564.24318 441.018922 
z
" style="fill:#808080;"/>
   </g>
   <g id="patch_43">
    <path clip-path="url(#p88efb1017b)" d="M 577.25298 446.784 
L 587.66082 446.784 
L 587.66082 441.979769 
L 577.25298 441.979769 
z
" style="fill:#808080;"/>
   </g>
   <g id="patch_44">
    <path clip-path="url(#p88efb1017b)" d="M 590.26278 446.784 
L 600.67062 446.784 
L 600.67062 443.421038 
L 590.26278 443.421038 
z
" style="fill:#808080;"/>
   </g>
   <g id="patch_45">
    <path clip-path="url(#p88efb1017b)" d="M 603.27258 446.784 
L 613.68042 446.784 
L 613.68042 443.300932 
L 603.27258 443.300932 
z
" style="fill:#808080;"/>
   </g>
   <g id="patch_46">
    <path clip-path="url(#p88efb1017b)" d="M 616.28238 446.784 
L 626.69022 446.784 
L 626.69022 442.340086 
L 616.28238 442.340086 
z
" style="fill:#808080;"/>
   </g>
   <g id="patch_47">
    <path clip-path="url(#p88efb1017b)" d="M 629.29218 446.784 
L 639.70002 446.784 
L 639.70002 442.460192 
L 629.29218 442.460192 
z
" style="fill:#808080;"/>
   </g>
   <g id="patch_48">
    <path clip-path="url(#p88efb1017b)" d="M 642.30198 446.784 
L 652.70982 446.784 
L 652.70982 443.180826 
L 642.30198 443.180826 
z
" style="fill:#808080;"/>
   </g>
   <g id="patch_49">
    <path clip-path="url(#p88efb1017b)" d="M 655.31178 446.784 
L 665.71962 446.784 
L 665.71962 443.901461 
L 655.31178 443.901461 
z
" style="fill:#808080;"/>
   </g>
   <g id="patch_50">
    <path clip-path="url(#p88efb1017b)" d="M 668.32158 446.784 
L 678.72942 446.784 
L 678.72942 441.979769 
L 668.32158 441.979769 
z
" style="fill:#808080;"/>
   </g>
   <g id="patch_51">
    <path clip-path="url(#p88efb1017b)" d="M 681.33138 446.784 
L 691.73922 446.784 
L 691.73922 443.300932 
L 681.33138 443.300932 
z
" style="fill:#808080;"/>
   </g>
   <g id="patch_52">
    <path clip-path="url(#p88efb1017b)" d="M 694.34118 446.784 
L 704.74902 446.784 
L 704.74902 443.180826 
L 694.34118 443.180826 
z
" style="fill:#808080;"/>
   </g>
   <g id="matplotlib.axis_1">
    <g id="xtick_1">
     <g id="line2d_1">
      <defs>
       <path d="M 0 0 
L 0 3.5 
" id="mefa1aecfaa" style="stroke:#000000;stroke-width:0.8;"/>
      </defs>
      <g>
       <use style="stroke:#000000;stroke-width:0.8;" x="55.56" xlink:href="#mefa1aecfaa" y="456.784"/>
      </g>
     </g>
     <g id="text_1">
      <!-- 0 -->
      <defs>
       <path d="M 31.78125 66.40625 
Q 24.171875 66.40625 20.328125 58.90625 
Q 16.5 51.421875 16.5 36.375 
Q 16.5 21.390625 20.328125 13.890625 
Q 24.171875 6.390625 31.78125 6.390625 
Q 39.453125 6.390625 43.28125 13.890625 
Q 47.125 21.390625 47.125 36.375 
Q 47.125 51.421875 43.28125 58.90625 
Q 39.453125 66.40625 31.78125 66.40625 
z
M 31.78125 74.21875 
Q 44.046875 74.21875 50.515625 64.515625 
Q 56.984375 54.828125 56.984375 36.375 
Q 56.984375 17.96875 50.515625 8.265625 
Q 44.046875 -1.421875 31.78125 -1.421875 
Q 19.53125 -1.421875 13.0625 8.265625 
Q 6.59375 17.96875 6.59375 36.375 
Q 6.59375 54.828125 13.0625 64.515625 
Q 19.53125 74.21875 31.78125 74.21875 
z
" id="DejaVuSans-48"/>
      </defs>
      <g transform="translate(52.37875 471.382437)scale(0.1 -0.1)">
       <use xlink:href="#DejaVuSans-48"/>
      </g>
     </g>
    </g>
    <g id="xtick_2">
     <g id="line2d_2">
      <g>
       <use style="stroke:#000000;stroke-width:0.8;" x="185.658" xlink:href="#mefa1aecfaa" y="456.784"/>
      </g>
     </g>
     <g id="text_2">
      <!-- 1 -->
      <defs>
       <path d="M 12.40625 8.296875 
L 28.515625 8.296875 
L 28.515625 63.921875 
L 10.984375 60.40625 
L 10.984375 69.390625 
L 28.421875 72.90625 
L 38.28125 72.90625 
L 38.28125 8.296875 
L 54.390625 8.296875 
L 54.390625 0 
L 12.40625 0 
z
" id="DejaVuSans-49"/>
      </defs>
      <g transform="translate(182.47675 471.382437)scale(0.1 -0.1)">
       <use xlink:href="#DejaVuSans-49"/>
      </g>
     </g>
    </g>
    <g id="xtick_3">
     <g id="line2d_3">
      <g>
       <use style="stroke:#000000;stroke-width:0.8;" x="315.756" xlink:href="#mefa1aecfaa" y="456.784"/>
      </g>
     </g>
     <g id="text_3">
      <!-- 2 -->
      <defs>
       <path d="M 19.1875 8.296875 
L 53.609375 8.296875 
L 53.609375 0 
L 7.328125 0 
L 7.328125 8.296875 
Q 12.9375 14.109375 22.625 23.890625 
Q 32.328125 33.6875 34.8125 36.53125 
Q 39.546875 41.84375 41.421875 45.53125 
Q 43.3125 49.21875 43.3125 52.78125 
Q 43.3125 58.59375 39.234375 62.25 
Q 35.15625 65.921875 28.609375 65.921875 
Q 23.96875 65.921875 18.8125 64.3125 
Q 13.671875 62.703125 7.8125 59.421875 
L 7.8125 69.390625 
Q 13.765625 71.78125 18.9375 73 
Q 24.125 74.21875 28.421875 74.21875 
Q 39.75 74.21875 46.484375 68.546875 
Q 53.21875 62.890625 53.21875 53.421875 
Q 53.21875 48.921875 51.53125 44.890625 
Q 49.859375 40.875 45.40625 35.40625 
Q 44.1875 33.984375 37.640625 27.21875 
Q 31.109375 20.453125 19.1875 8.296875 
z
" id="DejaVuSans-50"/>
      </defs>
      <g transform="translate(312.57475 471.382437)scale(0.1 -0.1)">
       <use xlink:href="#DejaVuSans-50"/>
      </g>
     </g>
    </g>
    <g id="xtick_4">
     <g id="line2d_4">
      <g>
       <use style="stroke:#000000;stroke-width:0.8;" x="445.854" xlink:href="#mefa1aecfaa" y="456.784"/>
      </g>
     </g>
     <g id="text_4">
      <!-- 3 -->
      <defs>
       <path d="M 40.578125 39.3125 
Q 47.65625 37.796875 51.625 33 
Q 55.609375 28.21875 55.609375 21.1875 
Q 55.609375 10.40625 48.1875 4.484375 
Q 40.765625 -1.421875 27.09375 -1.421875 
Q 22.515625 -1.421875 17.65625 -0.515625 
Q 12.796875 0.390625 7.625 2.203125 
L 7.625 11.71875 
Q 11.71875 9.328125 16.59375 8.109375 
Q 21.484375 6.890625 26.8125 6.890625 
Q 36.078125 6.890625 40.9375 10.546875 
Q 45.796875 14.203125 45.796875 21.1875 
Q 45.796875 27.640625 41.28125 31.265625 
Q 36.765625 34.90625 28.71875 34.90625 
L 20.21875 34.90625 
L 20.21875 43.015625 
L 29.109375 43.015625 
Q 36.375 43.015625 40.234375 45.921875 
Q 44.09375 48.828125 44.09375 54.296875 
Q 44.09375 59.90625 40.109375 62.90625 
Q 36.140625 65.921875 28.71875 65.921875 
Q 24.65625 65.921875 20.015625 65.03125 
Q 15.375 64.15625 9.8125 62.3125 
L 9.8125 71.09375 
Q 15.4375 72.65625 20.34375 73.4375 
Q 25.25 74.21875 29.59375 74.21875 
Q 40.828125 74.21875 47.359375 69.109375 
Q 53.90625 64.015625 53.90625 55.328125 
Q 53.90625 49.265625 50.4375 45.09375 
Q 46.96875 40.921875 40.578125 39.3125 
z
" id="DejaVuSans-51"/>
      </defs>
      <g transform="translate(442.67275 471.382437)scale(0.1 -0.1)">
       <use xlink:href="#DejaVuSans-51"/>
      </g>
     </g>
    </g>
    <g id="xtick_5">
     <g id="line2d_5">
      <g>
       <use style="stroke:#000000;stroke-width:0.8;" x="575.952" xlink:href="#mefa1aecfaa" y="456.784"/>
      </g>
     </g>
     <g id="text_5">
      <!-- 4 -->
      <defs>
       <path d="M 37.796875 64.3125 
L 12.890625 25.390625 
L 37.796875 25.390625 
z
M 35.203125 72.90625 
L 47.609375 72.90625 
L 47.609375 25.390625 
L 58.015625 25.390625 
L 58.015625 17.1875 
L 47.609375 17.1875 
L 47.609375 0 
L 37.796875 0 
L 37.796875 17.1875 
L 4.890625 17.1875 
L 4.890625 26.703125 
z
" id="DejaVuSans-52"/>
      </defs>
      <g transform="translate(572.77075 471.382437)scale(0.1 -0.1)">
       <use xlink:href="#DejaVuSans-52"/>
      </g>
     </g>
    </g>
    <g id="xtick_6">
     <g id="line2d_6">
      <g>
       <use style="stroke:#000000;stroke-width:0.8;" x="706.05" xlink:href="#mefa1aecfaa" y="456.784"/>
      </g>
     </g>
     <g id="text_6">
      <!-- 5 -->
      <defs>
       <path d="M 10.796875 72.90625 
L 49.515625 72.90625 
L 49.515625 64.59375 
L 19.828125 64.59375 
L 19.828125 46.734375 
Q 21.96875 47.46875 24.109375 47.828125 
Q 26.265625 48.1875 28.421875 48.1875 
Q 40.625 48.1875 47.75 41.5 
Q 54.890625 34.8125 54.890625 23.390625 
Q 54.890625 11.625 47.5625 5.09375 
Q 40.234375 -1.421875 26.90625 -1.421875 
Q 22.3125 -1.421875 17.546875 -0.640625 
Q 12.796875 0.140625 7.71875 1.703125 
L 7.71875 11.625 
Q 12.109375 9.234375 16.796875 8.0625 
Q 21.484375 6.890625 26.703125 6.890625 
Q 35.15625 6.890625 40.078125 11.328125 
Q 45.015625 15.765625 45.015625 23.390625 
Q 45.015625 31 40.078125 35.4375 
Q 35.15625 39.890625 26.703125 39.890625 
Q 22.75 39.890625 18.8125 39.015625 
Q 14.890625 38.140625 10.796875 36.28125 
z
" id="DejaVuSans-53"/>
      </defs>
      <g transform="translate(702.86875 471.382437)scale(0.1 -0.1)">
       <use xlink:href="#DejaVuSans-53"/>
      </g>
     </g>
    </g>
    <g id="text_7">
     <!-- $K_\mathregular{S}$ -->
     <defs>
      <path d="M 16.890625 72.90625 
L 26.8125 72.90625 
L 20.796875 42.1875 
L 59.078125 72.90625 
L 72.21875 72.90625 
L 28.90625 38.09375 
L 60.59375 0 
L 48.578125 0 
L 19.484375 35.5 
L 12.59375 0 
L 2.6875 0 
z
" id="DejaVuSans-Oblique-75"/>
      <path d="M 53.515625 70.515625 
L 53.515625 60.890625 
Q 47.90625 63.578125 42.921875 64.890625 
Q 37.9375 66.21875 33.296875 66.21875 
Q 25.25 66.21875 20.875 63.09375 
Q 16.5 59.96875 16.5 54.203125 
Q 16.5 49.359375 19.40625 46.890625 
Q 22.3125 44.4375 30.421875 42.921875 
L 36.375 41.703125 
Q 47.40625 39.59375 52.65625 34.296875 
Q 57.90625 29 57.90625 20.125 
Q 57.90625 9.515625 50.796875 4.046875 
Q 43.703125 -1.421875 29.984375 -1.421875 
Q 24.8125 -1.421875 18.96875 -0.25 
Q 13.140625 0.921875 6.890625 3.21875 
L 6.890625 13.375 
Q 12.890625 10.015625 18.65625 8.296875 
Q 24.421875 6.59375 29.984375 6.59375 
Q 38.421875 6.59375 43.015625 9.90625 
Q 47.609375 13.234375 47.609375 19.390625 
Q 47.609375 24.75 44.3125 27.78125 
Q 41.015625 30.8125 33.5 32.328125 
L 27.484375 33.5 
Q 16.453125 35.6875 11.515625 40.375 
Q 6.59375 45.0625 6.59375 53.421875 
Q 6.59375 63.09375 13.40625 68.65625 
Q 20.21875 74.21875 32.171875 74.21875 
Q 37.3125 74.21875 42.625 73.28125 
Q 47.953125 72.359375 53.515625 70.515625 
z
" id="DejaVuSans-83"/>
     </defs>
     <g transform="translate(372.669 488.403875)scale(0.144 -0.144)">
      <use transform="translate(0 0.09375)" xlink:href="#DejaVuSans-Oblique-75"/>
      <use transform="translate(65.576172 -16.3125)scale(0.7)" xlink:href="#DejaVuSans-83"/>
     </g>
    </g>
   </g>
   <g id="matplotlib.axis_2">
    <g id="ytick_1">
     <g id="line2d_7">
      <defs>
       <path d="M 0 0 
L -3.5 0 
" id="m32c8b11012" style="stroke:#000000;stroke-width:0.8;"/>
      </defs>
      <g>
       <use style="stroke:#000000;stroke-width:0.8;" x="45.56" xlink:href="#m32c8b11012" y="446.784"/>
      </g>
     </g>
     <g id="text_8">
      <!-- 0 -->
      <g transform="translate(36.480313 449.96525)rotate(-90)scale(0.1 -0.1)">
       <use xlink:href="#DejaVuSans-48"/>
      </g>
     </g>
    </g>
    <g id="ytick_2">
     <g id="line2d_8">
      <g>
       <use style="stroke:#000000;stroke-width:0.8;" x="45.56" xlink:href="#m32c8b11012" y="386.731107"/>
      </g>
     </g>
     <g id="text_9">
      <!-- 500 -->
      <g transform="translate(36.480313 396.274857)rotate(-90)scale(0.1 -0.1)">
       <use xlink:href="#DejaVuSans-53"/>
       <use x="63.623047" xlink:href="#DejaVuSans-48"/>
       <use x="127.246094" xlink:href="#DejaVuSans-48"/>
      </g>
     </g>
    </g>
    <g id="ytick_3">
     <g id="line2d_9">
      <g>
       <use style="stroke:#000000;stroke-width:0.8;" x="45.56" xlink:href="#m32c8b11012" y="326.678215"/>
      </g>
     </g>
     <g id="text_10">
      <!-- 1000 -->
      <g transform="translate(36.480313 339.403215)rotate(-90)scale(0.1 -0.1)">
       <use xlink:href="#DejaVuSans-49"/>
       <use x="63.623047" xlink:href="#DejaVuSans-48"/>
       <use x="127.246094" xlink:href="#DejaVuSans-48"/>
       <use x="190.869141" xlink:href="#DejaVuSans-48"/>
      </g>
     </g>
    </g>
    <g id="ytick_4">
     <g id="line2d_10">
      <g>
       <use style="stroke:#000000;stroke-width:0.8;" x="45.56" xlink:href="#m32c8b11012" y="266.625322"/>
      </g>
     </g>
     <g id="text_11">
      <!-- 1500 -->
      <g transform="translate(36.480313 279.350322)rotate(-90)scale(0.1 -0.1)">
       <use xlink:href="#DejaVuSans-49"/>
       <use x="63.623047" xlink:href="#DejaVuSans-53"/>
       <use x="127.246094" xlink:href="#DejaVuSans-48"/>
       <use x="190.869141" xlink:href="#DejaVuSans-48"/>
      </g>
     </g>
    </g>
    <g id="ytick_5">
     <g id="line2d_11">
      <g>
       <use style="stroke:#000000;stroke-width:0.8;" x="45.56" xlink:href="#m32c8b11012" y="206.57243"/>
      </g>
     </g>
     <g id="text_12">
      <!-- 2000 -->
      <g transform="translate(36.480313 219.29743)rotate(-90)scale(0.1 -0.1)">
       <use xlink:href="#DejaVuSans-50"/>
       <use x="63.623047" xlink:href="#DejaVuSans-48"/>
       <use x="127.246094" xlink:href="#DejaVuSans-48"/>
       <use x="190.869141" xlink:href="#DejaVuSans-48"/>
      </g>
     </g>
    </g>
    <g id="ytick_6">
     <g id="line2d_12">
      <g>
       <use style="stroke:#000000;stroke-width:0.8;" x="45.56" xlink:href="#m32c8b11012" y="146.519537"/>
      </g>
     </g>
     <g id="text_13">
      <!-- 2500 -->
      <g transform="translate(36.480313 159.244537)rotate(-90)scale(0.1 -0.1)">
       <use xlink:href="#DejaVuSans-50"/>
       <use x="63.623047" xlink:href="#DejaVuSans-53"/>
       <use x="127.246094" xlink:href="#DejaVuSans-48"/>
       <use x="190.869141" xlink:href="#DejaVuSans-48"/>
      </g>
     </g>
    </g>
    <g id="ytick_7">
     <g id="line2d_13">
      <g>
       <use style="stroke:#000000;stroke-width:0.8;" x="45.56" xlink:href="#m32c8b11012" y="86.466645"/>
      </g>
     </g>
     <g id="text_14">
      <!-- 3000 -->
      <g transform="translate(36.480313 99.191645)rotate(-90)scale(0.1 -0.1)">
       <use xlink:href="#DejaVuSans-51"/>
       <use x="63.623047" xlink:href="#DejaVuSans-48"/>
       <use x="127.246094" xlink:href="#DejaVuSans-48"/>
       <use x="190.869141" xlink:href="#DejaVuSans-48"/>
      </g>
     </g>
    </g>
    <g id="ytick_8">
     <g id="line2d_14">
      <g>
       <use style="stroke:#000000;stroke-width:0.8;" x="45.56" xlink:href="#m32c8b11012" y="26.413752"/>
      </g>
     </g>
     <g id="text_15">
      <!-- 3500 -->
      <g transform="translate(36.480313 39.138752)rotate(-90)scale(0.1 -0.1)">
       <use xlink:href="#DejaVuSans-51"/>
       <use x="63.623047" xlink:href="#DejaVuSans-53"/>
       <use x="127.246094" xlink:href="#DejaVuSans-48"/>
       <use x="190.869141" xlink:href="#DejaVuSans-48"/>
      </g>
     </g>
    </g>
    <g id="text_16">
     <!-- Number of retained duplicates (node averaged) -->
     <defs>
      <path d="M 9.8125 72.90625 
L 23.09375 72.90625 
L 55.421875 11.921875 
L 55.421875 72.90625 
L 64.984375 72.90625 
L 64.984375 0 
L 51.703125 0 
L 19.390625 60.984375 
L 19.390625 0 
L 9.8125 0 
z
" id="DejaVuSans-78"/>
      <path d="M 8.5 21.578125 
L 8.5 54.6875 
L 17.484375 54.6875 
L 17.484375 21.921875 
Q 17.484375 14.15625 20.5 10.265625 
Q 23.53125 6.390625 29.59375 6.390625 
Q 36.859375 6.390625 41.078125 11.03125 
Q 45.3125 15.671875 45.3125 23.6875 
L 45.3125 54.6875 
L 54.296875 54.6875 
L 54.296875 0 
L 45.3125 0 
L 45.3125 8.40625 
Q 42.046875 3.421875 37.71875 1 
Q 33.40625 -1.421875 27.6875 -1.421875 
Q 18.265625 -1.421875 13.375 4.4375 
Q 8.5 10.296875 8.5 21.578125 
z
M 31.109375 56 
z
" id="DejaVuSans-117"/>
      <path d="M 52 44.1875 
Q 55.375 50.25 60.0625 53.125 
Q 64.75 56 71.09375 56 
Q 79.640625 56 84.28125 50.015625 
Q 88.921875 44.046875 88.921875 33.015625 
L 88.921875 0 
L 79.890625 0 
L 79.890625 32.71875 
Q 79.890625 40.578125 77.09375 44.375 
Q 74.3125 48.1875 68.609375 48.1875 
Q 61.625 48.1875 57.5625 43.546875 
Q 53.515625 38.921875 53.515625 30.90625 
L 53.515625 0 
L 44.484375 0 
L 44.484375 32.71875 
Q 44.484375 40.625 41.703125 44.40625 
Q 38.921875 48.1875 33.109375 48.1875 
Q 26.21875 48.1875 22.15625 43.53125 
Q 18.109375 38.875 18.109375 30.90625 
L 18.109375 0 
L 9.078125 0 
L 9.078125 54.6875 
L 18.109375 54.6875 
L 18.109375 46.1875 
Q 21.1875 51.21875 25.484375 53.609375 
Q 29.78125 56 35.6875 56 
Q 41.65625 56 45.828125 52.96875 
Q 50 49.953125 52 44.1875 
z
" id="DejaVuSans-109"/>
      <path d="M 48.6875 27.296875 
Q 48.6875 37.203125 44.609375 42.84375 
Q 40.53125 48.484375 33.40625 48.484375 
Q 26.265625 48.484375 22.1875 42.84375 
Q 18.109375 37.203125 18.109375 27.296875 
Q 18.109375 17.390625 22.1875 11.75 
Q 26.265625 6.109375 33.40625 6.109375 
Q 40.53125 6.109375 44.609375 11.75 
Q 48.6875 17.390625 48.6875 27.296875 
z
M 18.109375 46.390625 
Q 20.953125 51.265625 25.265625 53.625 
Q 29.59375 56 35.59375 56 
Q 45.5625 56 51.78125 48.09375 
Q 58.015625 40.1875 58.015625 27.296875 
Q 58.015625 14.40625 51.78125 6.484375 
Q 45.5625 -1.421875 35.59375 -1.421875 
Q 29.59375 -1.421875 25.265625 0.953125 
Q 20.953125 3.328125 18.109375 8.203125 
L 18.109375 0 
L 9.078125 0 
L 9.078125 75.984375 
L 18.109375 75.984375 
z
" id="DejaVuSans-98"/>
      <path d="M 56.203125 29.59375 
L 56.203125 25.203125 
L 14.890625 25.203125 
Q 15.484375 15.921875 20.484375 11.0625 
Q 25.484375 6.203125 34.421875 6.203125 
Q 39.59375 6.203125 44.453125 7.46875 
Q 49.3125 8.734375 54.109375 11.28125 
L 54.109375 2.78125 
Q 49.265625 0.734375 44.1875 -0.34375 
Q 39.109375 -1.421875 33.890625 -1.421875 
Q 20.796875 -1.421875 13.15625 6.1875 
Q 5.515625 13.8125 5.515625 26.8125 
Q 5.515625 40.234375 12.765625 48.109375 
Q 20.015625 56 32.328125 56 
Q 43.359375 56 49.78125 48.890625 
Q 56.203125 41.796875 56.203125 29.59375 
z
M 47.21875 32.234375 
Q 47.125 39.59375 43.09375 43.984375 
Q 39.0625 48.390625 32.421875 48.390625 
Q 24.90625 48.390625 20.390625 44.140625 
Q 15.875 39.890625 15.1875 32.171875 
z
" id="DejaVuSans-101"/>
      <path d="M 41.109375 46.296875 
Q 39.59375 47.171875 37.8125 47.578125 
Q 36.03125 48 33.890625 48 
Q 26.265625 48 22.1875 43.046875 
Q 18.109375 38.09375 18.109375 28.8125 
L 18.109375 0 
L 9.078125 0 
L 9.078125 54.6875 
L 18.109375 54.6875 
L 18.109375 46.1875 
Q 20.953125 51.171875 25.484375 53.578125 
Q 30.03125 56 36.53125 56 
Q 37.453125 56 38.578125 55.875 
Q 39.703125 55.765625 41.0625 55.515625 
z
" id="DejaVuSans-114"/>
      <path id="DejaVuSans-32"/>
      <path d="M 30.609375 48.390625 
Q 23.390625 48.390625 19.1875 42.75 
Q 14.984375 37.109375 14.984375 27.296875 
Q 14.984375 17.484375 19.15625 11.84375 
Q 23.34375 6.203125 30.609375 6.203125 
Q 37.796875 6.203125 41.984375 11.859375 
Q 46.1875 17.53125 46.1875 27.296875 
Q 46.1875 37.015625 41.984375 42.703125 
Q 37.796875 48.390625 30.609375 48.390625 
z
M 30.609375 56 
Q 42.328125 56 49.015625 48.375 
Q 55.71875 40.765625 55.71875 27.296875 
Q 55.71875 13.875 49.015625 6.21875 
Q 42.328125 -1.421875 30.609375 -1.421875 
Q 18.84375 -1.421875 12.171875 6.21875 
Q 5.515625 13.875 5.515625 27.296875 
Q 5.515625 40.765625 12.171875 48.375 
Q 18.84375 56 30.609375 56 
z
" id="DejaVuSans-111"/>
      <path d="M 37.109375 75.984375 
L 37.109375 68.5 
L 28.515625 68.5 
Q 23.6875 68.5 21.796875 66.546875 
Q 19.921875 64.59375 19.921875 59.515625 
L 19.921875 54.6875 
L 34.71875 54.6875 
L 34.71875 47.703125 
L 19.921875 47.703125 
L 19.921875 0 
L 10.890625 0 
L 10.890625 47.703125 
L 2.296875 47.703125 
L 2.296875 54.6875 
L 10.890625 54.6875 
L 10.890625 58.5 
Q 10.890625 67.625 15.140625 71.796875 
Q 19.390625 75.984375 28.609375 75.984375 
z
" id="DejaVuSans-102"/>
      <path d="M 18.3125 70.21875 
L 18.3125 54.6875 
L 36.8125 54.6875 
L 36.8125 47.703125 
L 18.3125 47.703125 
L 18.3125 18.015625 
Q 18.3125 11.328125 20.140625 9.421875 
Q 21.96875 7.515625 27.59375 7.515625 
L 36.8125 7.515625 
L 36.8125 0 
L 27.59375 0 
Q 17.1875 0 13.234375 3.875 
Q 9.28125 7.765625 9.28125 18.015625 
L 9.28125 47.703125 
L 2.6875 47.703125 
L 2.6875 54.6875 
L 9.28125 54.6875 
L 9.28125 70.21875 
z
" id="DejaVuSans-116"/>
      <path d="M 34.28125 27.484375 
Q 23.390625 27.484375 19.1875 25 
Q 14.984375 22.515625 14.984375 16.5 
Q 14.984375 11.71875 18.140625 8.90625 
Q 21.296875 6.109375 26.703125 6.109375 
Q 34.1875 6.109375 38.703125 11.40625 
Q 43.21875 16.703125 43.21875 25.484375 
L 43.21875 27.484375 
z
M 52.203125 31.203125 
L 52.203125 0 
L 43.21875 0 
L 43.21875 8.296875 
Q 40.140625 3.328125 35.546875 0.953125 
Q 30.953125 -1.421875 24.3125 -1.421875 
Q 15.921875 -1.421875 10.953125 3.296875 
Q 6 8.015625 6 15.921875 
Q 6 25.140625 12.171875 29.828125 
Q 18.359375 34.515625 30.609375 34.515625 
L 43.21875 34.515625 
L 43.21875 35.40625 
Q 43.21875 41.609375 39.140625 45 
Q 35.0625 48.390625 27.6875 48.390625 
Q 23 48.390625 18.546875 47.265625 
Q 14.109375 46.140625 10.015625 43.890625 
L 10.015625 52.203125 
Q 14.9375 54.109375 19.578125 55.046875 
Q 24.21875 56 28.609375 56 
Q 40.484375 56 46.34375 49.84375 
Q 52.203125 43.703125 52.203125 31.203125 
z
" id="DejaVuSans-97"/>
      <path d="M 9.421875 54.6875 
L 18.40625 54.6875 
L 18.40625 0 
L 9.421875 0 
z
M 9.421875 75.984375 
L 18.40625 75.984375 
L 18.40625 64.59375 
L 9.421875 64.59375 
z
" id="DejaVuSans-105"/>
      <path d="M 54.890625 33.015625 
L 54.890625 0 
L 45.90625 0 
L 45.90625 32.71875 
Q 45.90625 40.484375 42.875 44.328125 
Q 39.84375 48.1875 33.796875 48.1875 
Q 26.515625 48.1875 22.3125 43.546875 
Q 18.109375 38.921875 18.109375 30.90625 
L 18.109375 0 
L 9.078125 0 
L 9.078125 54.6875 
L 18.109375 54.6875 
L 18.109375 46.1875 
Q 21.34375 51.125 25.703125 53.5625 
Q 30.078125 56 35.796875 56 
Q 45.21875 56 50.046875 50.171875 
Q 54.890625 44.34375 54.890625 33.015625 
z
" id="DejaVuSans-110"/>
      <path d="M 45.40625 46.390625 
L 45.40625 75.984375 
L 54.390625 75.984375 
L 54.390625 0 
L 45.40625 0 
L 45.40625 8.203125 
Q 42.578125 3.328125 38.25 0.953125 
Q 33.9375 -1.421875 27.875 -1.421875 
Q 17.96875 -1.421875 11.734375 6.484375 
Q 5.515625 14.40625 5.515625 27.296875 
Q 5.515625 40.1875 11.734375 48.09375 
Q 17.96875 56 27.875 56 
Q 33.9375 56 38.25 53.625 
Q 42.578125 51.265625 45.40625 46.390625 
z
M 14.796875 27.296875 
Q 14.796875 17.390625 18.875 11.75 
Q 22.953125 6.109375 30.078125 6.109375 
Q 37.203125 6.109375 41.296875 11.75 
Q 45.40625 17.390625 45.40625 27.296875 
Q 45.40625 37.203125 41.296875 42.84375 
Q 37.203125 48.484375 30.078125 48.484375 
Q 22.953125 48.484375 18.875 42.84375 
Q 14.796875 37.203125 14.796875 27.296875 
z
" id="DejaVuSans-100"/>
      <path d="M 18.109375 8.203125 
L 18.109375 -20.796875 
L 9.078125 -20.796875 
L 9.078125 54.6875 
L 18.109375 54.6875 
L 18.109375 46.390625 
Q 20.953125 51.265625 25.265625 53.625 
Q 29.59375 56 35.59375 56 
Q 45.5625 56 51.78125 48.09375 
Q 58.015625 40.1875 58.015625 27.296875 
Q 58.015625 14.40625 51.78125 6.484375 
Q 45.5625 -1.421875 35.59375 -1.421875 
Q 29.59375 -1.421875 25.265625 0.953125 
Q 20.953125 3.328125 18.109375 8.203125 
z
M 48.6875 27.296875 
Q 48.6875 37.203125 44.609375 42.84375 
Q 40.53125 48.484375 33.40625 48.484375 
Q 26.265625 48.484375 22.1875 42.84375 
Q 18.109375 37.203125 18.109375 27.296875 
Q 18.109375 17.390625 22.1875 11.75 
Q 26.265625 6.109375 33.40625 6.109375 
Q 40.53125 6.109375 44.609375 11.75 
Q 48.6875 17.390625 48.6875 27.296875 
z
" id="DejaVuSans-112"/>
      <path d="M 9.421875 75.984375 
L 18.40625 75.984375 
L 18.40625 0 
L 9.421875 0 
z
" id="DejaVuSans-108"/>
      <path d="M 48.78125 52.59375 
L 48.78125 44.1875 
Q 44.96875 46.296875 41.140625 47.34375 
Q 37.3125 48.390625 33.40625 48.390625 
Q 24.65625 48.390625 19.8125 42.84375 
Q 14.984375 37.3125 14.984375 27.296875 
Q 14.984375 17.28125 19.8125 11.734375 
Q 24.65625 6.203125 33.40625 6.203125 
Q 37.3125 6.203125 41.140625 7.25 
Q 44.96875 8.296875 48.78125 10.40625 
L 48.78125 2.09375 
Q 45.015625 0.34375 40.984375 -0.53125 
Q 36.96875 -1.421875 32.421875 -1.421875 
Q 20.0625 -1.421875 12.78125 6.34375 
Q 5.515625 14.109375 5.515625 27.296875 
Q 5.515625 40.671875 12.859375 48.328125 
Q 20.21875 56 33.015625 56 
Q 37.15625 56 41.109375 55.140625 
Q 45.0625 54.296875 48.78125 52.59375 
z
" id="DejaVuSans-99"/>
      <path d="M 44.28125 53.078125 
L 44.28125 44.578125 
Q 40.484375 46.53125 36.375 47.5 
Q 32.28125 48.484375 27.875 48.484375 
Q 21.1875 48.484375 17.84375 46.4375 
Q 14.5 44.390625 14.5 40.28125 
Q 14.5 37.15625 16.890625 35.375 
Q 19.28125 33.59375 26.515625 31.984375 
L 29.59375 31.296875 
Q 39.15625 29.25 43.1875 25.515625 
Q 47.21875 21.78125 47.21875 15.09375 
Q 47.21875 7.46875 41.1875 3.015625 
Q 35.15625 -1.421875 24.609375 -1.421875 
Q 20.21875 -1.421875 15.453125 -0.5625 
Q 10.6875 0.296875 5.421875 2 
L 5.421875 11.28125 
Q 10.40625 8.6875 15.234375 7.390625 
Q 20.0625 6.109375 24.8125 6.109375 
Q 31.15625 6.109375 34.5625 8.28125 
Q 37.984375 10.453125 37.984375 14.40625 
Q 37.984375 18.0625 35.515625 20.015625 
Q 33.0625 21.96875 24.703125 23.78125 
L 21.578125 24.515625 
Q 13.234375 26.265625 9.515625 29.90625 
Q 5.8125 33.546875 5.8125 39.890625 
Q 5.8125 47.609375 11.28125 51.796875 
Q 16.75 56 26.8125 56 
Q 31.78125 56 36.171875 55.265625 
Q 40.578125 54.546875 44.28125 53.078125 
z
" id="DejaVuSans-115"/>
      <path d="M 31 75.875 
Q 24.46875 64.65625 21.28125 53.65625 
Q 18.109375 42.671875 18.109375 31.390625 
Q 18.109375 20.125 21.3125 9.0625 
Q 24.515625 -2 31 -13.1875 
L 23.1875 -13.1875 
Q 15.875 -1.703125 12.234375 9.375 
Q 8.59375 20.453125 8.59375 31.390625 
Q 8.59375 42.28125 12.203125 53.3125 
Q 15.828125 64.359375 23.1875 75.875 
z
" id="DejaVuSans-40"/>
      <path d="M 2.984375 54.6875 
L 12.5 54.6875 
L 29.59375 8.796875 
L 46.6875 54.6875 
L 56.203125 54.6875 
L 35.6875 0 
L 23.484375 0 
z
" id="DejaVuSans-118"/>
      <path d="M 45.40625 27.984375 
Q 45.40625 37.75 41.375 43.109375 
Q 37.359375 48.484375 30.078125 48.484375 
Q 22.859375 48.484375 18.828125 43.109375 
Q 14.796875 37.75 14.796875 27.984375 
Q 14.796875 18.265625 18.828125 12.890625 
Q 22.859375 7.515625 30.078125 7.515625 
Q 37.359375 7.515625 41.375 12.890625 
Q 45.40625 18.265625 45.40625 27.984375 
z
M 54.390625 6.78125 
Q 54.390625 -7.171875 48.1875 -13.984375 
Q 42 -20.796875 29.203125 -20.796875 
Q 24.46875 -20.796875 20.265625 -20.09375 
Q 16.0625 -19.390625 12.109375 -17.921875 
L 12.109375 -9.1875 
Q 16.0625 -11.328125 19.921875 -12.34375 
Q 23.78125 -13.375 27.78125 -13.375 
Q 36.625 -13.375 41.015625 -8.765625 
Q 45.40625 -4.15625 45.40625 5.171875 
L 45.40625 9.625 
Q 42.625 4.78125 38.28125 2.390625 
Q 33.9375 0 27.875 0 
Q 17.828125 0 11.671875 7.65625 
Q 5.515625 15.328125 5.515625 27.984375 
Q 5.515625 40.671875 11.671875 48.328125 
Q 17.828125 56 27.875 56 
Q 33.9375 56 38.28125 53.609375 
Q 42.625 51.21875 45.40625 46.390625 
L 45.40625 54.6875 
L 54.390625 54.6875 
z
" id="DejaVuSans-103"/>
      <path d="M 8.015625 75.875 
L 15.828125 75.875 
Q 23.140625 64.359375 26.78125 53.3125 
Q 30.421875 42.28125 30.421875 31.390625 
Q 30.421875 20.453125 26.78125 9.375 
Q 23.140625 -1.703125 15.828125 -13.1875 
L 8.015625 -13.1875 
Q 14.5 -2 17.703125 9.0625 
Q 20.90625 20.125 20.90625 31.390625 
Q 20.90625 42.671875 17.703125 53.65625 
Q 14.5 64.65625 8.015625 75.875 
z
" id="DejaVuSans-41"/>
     </defs>
     <g transform="translate(21.887125 400.8405)rotate(-90)scale(0.144 -0.144)">
      <use xlink:href="#DejaVuSans-78"/>
      <use x="74.804688" xlink:href="#DejaVuSans-117"/>
      <use x="138.183594" xlink:href="#DejaVuSans-109"/>
      <use x="235.595703" xlink:href="#DejaVuSans-98"/>
      <use x="299.072266" xlink:href="#DejaVuSans-101"/>
      <use x="360.595703" xlink:href="#DejaVuSans-114"/>
      <use x="401.708984" xlink:href="#DejaVuSans-32"/>
      <use x="433.496094" xlink:href="#DejaVuSans-111"/>
      <use x="494.677734" xlink:href="#DejaVuSans-102"/>
      <use x="529.882812" xlink:href="#DejaVuSans-32"/>
      <use x="561.669922" xlink:href="#DejaVuSans-114"/>
      <use x="600.533203" xlink:href="#DejaVuSans-101"/>
      <use x="662.056641" xlink:href="#DejaVuSans-116"/>
      <use x="701.265625" xlink:href="#DejaVuSans-97"/>
      <use x="762.544922" xlink:href="#DejaVuSans-105"/>
      <use x="790.328125" xlink:href="#DejaVuSans-110"/>
      <use x="853.707031" xlink:href="#DejaVuSans-101"/>
      <use x="915.230469" xlink:href="#DejaVuSans-100"/>
      <use x="978.707031" xlink:href="#DejaVuSans-32"/>
      <use x="1010.494141" xlink:href="#DejaVuSans-100"/>
      <use x="1073.970703" xlink:href="#DejaVuSans-117"/>
      <use x="1137.349609" xlink:href="#DejaVuSans-112"/>
      <use x="1200.826172" xlink:href="#DejaVuSans-108"/>
      <use x="1228.609375" xlink:href="#DejaVuSans-105"/>
      <use x="1256.392578" xlink:href="#DejaVuSans-99"/>
      <use x="1311.373047" xlink:href="#DejaVuSans-97"/>
      <use x="1372.652344" xlink:href="#DejaVuSans-116"/>
      <use x="1411.861328" xlink:href="#DejaVuSans-101"/>
      <use x="1473.384766" xlink:href="#DejaVuSans-115"/>
      <use x="1525.484375" xlink:href="#DejaVuSans-32"/>
      <use x="1557.271484" xlink:href="#DejaVuSans-40"/>
      <use x="1596.285156" xlink:href="#DejaVuSans-110"/>
      <use x="1659.664062" xlink:href="#DejaVuSans-111"/>
      <use x="1720.845703" xlink:href="#DejaVuSans-100"/>
      <use x="1784.322266" xlink:href="#DejaVuSans-101"/>
      <use x="1845.845703" xlink:href="#DejaVuSans-32"/>
      <use x="1877.632812" xlink:href="#DejaVuSans-97"/>
      <use x="1938.912109" xlink:href="#DejaVuSans-118"/>
      <use x="1998.091797" xlink:href="#DejaVuSans-101"/>
      <use x="2059.615234" xlink:href="#DejaVuSans-114"/>
      <use x="2100.728516" xlink:href="#DejaVuSans-97"/>
      <use x="2162.007812" xlink:href="#DejaVuSans-103"/>
      <use x="2225.484375" xlink:href="#DejaVuSans-101"/>
      <use x="2287.007812" xlink:href="#DejaVuSans-100"/>
      <use x="2350.484375" xlink:href="#DejaVuSans-41"/>
     </g>
    </g>
   </g>
   <g id="line2d_15">
    <path clip-path="url(#p88efb1017b)" d="M 58.040561 -1 
L 58.167174 4.891431 
L 59.470762 58.227166 
L 60.774349 105.125362 
L 62.077936 146.36302 
L 63.381523 182.623358 
L 64.68511 214.50713 
L 65.988697 242.542582 
L 67.292285 267.194198 
L 68.595872 288.870404 
L 69.899459 307.930326 
L 71.203046 324.689745 
L 72.506633 339.426329 
L 73.81022 352.38423 
L 75.113808 363.778133 
L 76.417395 373.79681 
L 77.720982 382.606249 
L 79.024569 390.352402 
L 80.328156 397.163607 
L 81.631743 403.15271 
L 82.935331 408.418938 
L 84.238918 413.04954 
L 85.542505 417.121236 
L 86.846092 420.701485 
L 88.149679 423.849603 
L 89.453267 426.617749 
L 90.756854 429.051783 
L 92.060441 431.192034 
L 93.364028 433.07396 
L 94.667615 434.72874 
L 95.971202 436.183791 
L 98.578377 438.588223 
L 101.185551 440.447261 
L 103.792725 441.884615 
L 106.3999 442.995936 
L 109.007074 443.855178 
L 111.614248 444.519519 
L 115.52501 445.244491 
L 119.435772 445.737364 
L 124.65012 446.158327 
L 131.168056 446.455121 
L 141.596754 446.666473 
L 159.846974 446.764588 
L 231.544269 446.783984 
L 706.05 446.784 
L 706.05 446.784 
" style="fill:none;stroke:#008000;stroke-linecap:square;stroke-opacity:0.8;stroke-width:1.5;"/>
   </g>
   <g id="line2d_16">
    <path clip-path="url(#p88efb1017b)" d="M 55.56 446.784 
L 706.05 446.784 
L 706.05 446.784 
" style="fill:none;stroke:#0000ff;stroke-linecap:square;stroke-opacity:0.8;stroke-width:1.5;"/>
   </g>
   <g id="line2d_17">
    <path clip-path="url(#p88efb1017b)" d="M 55.56 446.784 
L 63.381523 446.731374 
L 65.988697 446.528769 
L 68.595872 446.035964 
L 71.203046 445.149491 
L 73.81022 443.826893 
L 76.417395 442.084705 
L 79.024569 439.98228 
L 81.631743 437.603193 
L 85.542505 433.71724 
L 93.364028 425.82554 
L 97.27479 422.237586 
L 99.881964 420.06856 
L 102.489138 418.10258 
L 105.096313 416.350844 
L 107.703487 414.817492 
L 110.310661 413.5011 
L 112.917836 412.395993 
L 115.52501 411.493357 
L 118.132184 410.782171 
L 120.739359 410.249966 
L 123.346533 409.883422 
L 127.257295 409.614267 
L 131.168056 409.641106 
L 135.078818 409.919814 
L 138.989579 410.409284 
L 144.203928 411.3256 
L 149.418277 412.472571 
L 155.936212 414.131755 
L 165.061323 416.697014 
L 191.133066 424.158223 
L 201.561764 426.853628 
L 211.990461 429.301325 
L 222.419158 431.49189 
L 232.847856 433.432434 
L 243.276553 435.139169 
L 253.705251 436.632683 
L 265.437535 438.085479 
L 278.473407 439.453434 
L 291.509279 440.600068 
L 305.848737 441.64727 
L 322.795371 442.648155 
L 341.045591 443.497707 
L 361.902986 444.245161 
L 386.671142 444.902512 
L 416.653647 445.461799 
L 453.154088 445.91088 
L 501.386814 446.267541 
L 569.173347 446.52666 
L 677.371082 446.691595 
L 706.05 446.712433 
L 706.05 446.712433 
" style="fill:none;stroke:#ff0000;stroke-linecap:square;stroke-opacity:0.8;stroke-width:1.5;"/>
   </g>
   <g id="line2d_18">
    <path clip-path="url(#p88efb1017b)" d="M 55.56 446.784 
L 202.865351 446.683193 
L 221.115571 446.422671 
L 235.45503 445.997779 
L 248.490902 445.392839 
L 261.526774 444.571896 
L 277.16982 443.350708 
L 324.098958 439.493478 
L 337.13483 438.753641 
L 348.867114 438.300105 
L 360.599399 438.058151 
L 373.635271 438.028878 
L 386.671142 438.225098 
L 402.314188 438.70223 
L 420.564409 439.493304 
L 451.850501 441.114153 
L 487.047355 442.875566 
L 513.119098 443.953736 
L 539.190842 444.798594 
L 566.566172 445.453223 
L 597.852265 445.964821 
L 635.656293 446.342181 
L 685.192605 446.594569 
L 706.05 446.652647 
L 706.05 446.652647 
" style="fill:none;stroke:#00bfbf;stroke-linecap:square;stroke-opacity:0.8;stroke-width:1.5;"/>
   </g>
   <g id="line2d_19">
    <path clip-path="url(#p88efb1017b)" d="M 55.56 446.784 
L 412.742886 446.679545 
L 437.511042 446.419205 
L 457.06485 445.996135 
L 476.618657 445.340723 
L 500.083226 444.31251 
L 533.976493 442.830967 
L 550.923126 442.334158 
L 566.566172 442.109981 
L 582.209218 442.12554 
L 599.155852 442.386204 
L 618.709659 442.920981 
L 657.817275 444.286976 
L 689.103367 445.260192 
L 706.05 445.670385 
L 706.05 445.670385 
" style="fill:none;stroke:#bfbf00;stroke-linecap:square;stroke-opacity:0.8;stroke-width:1.5;"/>
   </g>
   <g id="line2d_20">
    <path clip-path="url(#p88efb1017b)" d="M 58.040561 -1 
L 58.167174 4.891414 
L 59.470762 58.226685 
L 60.774349 105.12143 
L 62.077936 146.345729 
L 63.381523 182.570732 
L 64.68511 214.381133 
L 65.988697 242.287351 
L 67.292285 266.736591 
L 68.595872 288.122368 
L 69.899459 306.792429 
L 71.203046 323.055236 
L 72.506633 337.185229 
L 73.81022 349.427123 
L 75.113808 359.999449 
L 76.417395 369.097515 
L 77.720982 376.895911 
L 79.024569 383.550682 
L 80.328156 389.201212 
L 81.631743 393.971903 
L 82.935331 397.973663 
L 84.238918 401.305248 
L 85.542505 404.054476 
L 86.846092 406.299318 
L 88.149679 408.108897 
L 89.453267 409.544386 
L 90.756854 410.659829 
L 92.060441 411.502886 
L 93.364028 412.115499 
L 94.667615 412.53451 
L 95.971202 412.792203 
L 98.578377 412.932935 
L 101.185551 412.722566 
L 105.096313 412.042807 
L 115.52501 409.953848 
L 119.435772 409.447878 
L 123.346533 409.171865 
L 127.257295 409.130515 
L 131.168056 409.312225 
L 135.078818 409.696222 
L 140.293166 410.479019 
L 145.507515 411.513543 
L 152.025451 413.069418 
L 159.846974 415.187296 
L 175.49002 419.733474 
L 188.525892 423.420477 
L 198.954589 426.128842 
L 208.079699 428.262575 
L 217.20481 430.145377 
L 225.026333 431.545385 
L 232.847856 432.741202 
L 240.669379 433.731465 
L 248.490902 434.520046 
L 257.616012 435.197943 
L 266.741122 435.638439 
L 277.16982 435.893922 
L 288.902104 435.937546 
L 304.54515 435.751604 
L 337.13483 435.302302 
L 352.777876 435.354551 
L 367.117335 435.627321 
L 382.760381 436.159074 
L 401.010601 437.015824 
L 453.154088 439.625185 
L 468.797134 440.106884 
L 484.44018 440.372018 
L 502.690401 440.447019 
L 563.958998 440.475568 
L 582.209218 440.851723 
L 601.763026 441.488624 
L 629.138357 442.632868 
L 672.156733 444.429309 
L 696.92489 445.228724 
L 706.05 445.467465 
L 706.05 445.467465 
" style="fill:none;stroke:#000000;stroke-linecap:square;stroke-width:1.5;"/>
   </g>
   <g id="patch_53">
    <path d="M 45.56 446.784 
L 45.56 10.8 
" style="fill:none;stroke:#000000;stroke-linecap:square;stroke-linejoin:miter;stroke-width:0.8;"/>
   </g>
   <g id="patch_54">
    <path d="M 55.56 456.784 
L 706.05 456.784 
" style="fill:none;stroke:#000000;stroke-linecap:square;stroke-linejoin:miter;stroke-width:0.8;"/>
   </g>
   <g id="legend_1">
    <g id="line2d_21">
     <path d="M 456.697375 67.496837 
L 476.697375 67.496837 
" style="fill:none;stroke:#008000;stroke-linecap:square;stroke-opacity:0.8;stroke-width:1.5;"/>
    </g>
    <g id="line2d_22"/>
    <g id="text_17">
     <!-- Exponential optimized -->
     <defs>
      <path d="M 9.8125 72.90625 
L 55.90625 72.90625 
L 55.90625 64.59375 
L 19.671875 64.59375 
L 19.671875 43.015625 
L 54.390625 43.015625 
L 54.390625 34.71875 
L 19.671875 34.71875 
L 19.671875 8.296875 
L 56.78125 8.296875 
L 56.78125 0 
L 9.8125 0 
z
" id="DejaVuSans-69"/>
      <path d="M 54.890625 54.6875 
L 35.109375 28.078125 
L 55.90625 0 
L 45.3125 0 
L 29.390625 21.484375 
L 13.484375 0 
L 2.875 0 
L 24.125 28.609375 
L 4.6875 54.6875 
L 15.28125 54.6875 
L 29.78125 35.203125 
L 44.28125 54.6875 
z
" id="DejaVuSans-120"/>
      <path d="M 5.515625 54.6875 
L 48.1875 54.6875 
L 48.1875 46.484375 
L 14.40625 7.171875 
L 48.1875 7.171875 
L 48.1875 0 
L 4.296875 0 
L 4.296875 8.203125 
L 38.09375 47.515625 
L 5.515625 47.515625 
z
" id="DejaVuSans-122"/>
     </defs>
     <g transform="translate(484.697375 70.996837)scale(0.1 -0.1)">
      <use xlink:href="#DejaVuSans-69"/>
      <use x="63.183594" xlink:href="#DejaVuSans-120"/>
      <use x="122.363281" xlink:href="#DejaVuSans-112"/>
      <use x="185.839844" xlink:href="#DejaVuSans-111"/>
      <use x="247.021484" xlink:href="#DejaVuSans-110"/>
      <use x="310.400391" xlink:href="#DejaVuSans-101"/>
      <use x="371.923828" xlink:href="#DejaVuSans-110"/>
      <use x="435.302734" xlink:href="#DejaVuSans-116"/>
      <use x="474.511719" xlink:href="#DejaVuSans-105"/>
      <use x="502.294922" xlink:href="#DejaVuSans-97"/>
      <use x="563.574219" xlink:href="#DejaVuSans-108"/>
      <use x="591.357422" xlink:href="#DejaVuSans-32"/>
      <use x="623.144531" xlink:href="#DejaVuSans-111"/>
      <use x="684.326172" xlink:href="#DejaVuSans-112"/>
      <use x="747.802734" xlink:href="#DejaVuSans-116"/>
      <use x="787.011719" xlink:href="#DejaVuSans-105"/>
      <use x="814.794922" xlink:href="#DejaVuSans-109"/>
      <use x="912.207031" xlink:href="#DejaVuSans-105"/>
      <use x="939.990234" xlink:href="#DejaVuSans-122"/>
      <use x="992.480469" xlink:href="#DejaVuSans-101"/>
      <use x="1054.003906" xlink:href="#DejaVuSans-100"/>
     </g>
    </g>
    <g id="line2d_23">
     <path d="M 456.697375 82.174962 
L 476.697375 82.174962 
" style="fill:none;stroke:#0000ff;stroke-linecap:square;stroke-opacity:0.8;stroke-width:1.5;"/>
    </g>
    <g id="line2d_24"/>
    <g id="text_18">
     <!-- Lognormal a optimized (mode 0.0) -->
     <defs>
      <path d="M 9.8125 72.90625 
L 19.671875 72.90625 
L 19.671875 8.296875 
L 55.171875 8.296875 
L 55.171875 0 
L 9.8125 0 
z
" id="DejaVuSans-76"/>
      <path d="M 10.6875 12.40625 
L 21 12.40625 
L 21 0 
L 10.6875 0 
z
" id="DejaVuSans-46"/>
     </defs>
     <g transform="translate(484.697375 85.674962)scale(0.1 -0.1)">
      <use xlink:href="#DejaVuSans-76"/>
      <use x="53.962891" xlink:href="#DejaVuSans-111"/>
      <use x="115.144531" xlink:href="#DejaVuSans-103"/>
      <use x="178.621094" xlink:href="#DejaVuSans-110"/>
      <use x="242" xlink:href="#DejaVuSans-111"/>
      <use x="303.181641" xlink:href="#DejaVuSans-114"/>
      <use x="342.544922" xlink:href="#DejaVuSans-109"/>
      <use x="439.957031" xlink:href="#DejaVuSans-97"/>
      <use x="501.236328" xlink:href="#DejaVuSans-108"/>
      <use x="529.019531" xlink:href="#DejaVuSans-32"/>
      <use x="560.806641" xlink:href="#DejaVuSans-97"/>
      <use x="622.085938" xlink:href="#DejaVuSans-32"/>
      <use x="653.873047" xlink:href="#DejaVuSans-111"/>
      <use x="715.054688" xlink:href="#DejaVuSans-112"/>
      <use x="778.53125" xlink:href="#DejaVuSans-116"/>
      <use x="817.740234" xlink:href="#DejaVuSans-105"/>
      <use x="845.523438" xlink:href="#DejaVuSans-109"/>
      <use x="942.935547" xlink:href="#DejaVuSans-105"/>
      <use x="970.71875" xlink:href="#DejaVuSans-122"/>
      <use x="1023.208984" xlink:href="#DejaVuSans-101"/>
      <use x="1084.732422" xlink:href="#DejaVuSans-100"/>
      <use x="1148.208984" xlink:href="#DejaVuSans-32"/>
      <use x="1179.996094" xlink:href="#DejaVuSans-40"/>
      <use x="1219.009766" xlink:href="#DejaVuSans-109"/>
      <use x="1316.421875" xlink:href="#DejaVuSans-111"/>
      <use x="1377.603516" xlink:href="#DejaVuSans-100"/>
      <use x="1441.080078" xlink:href="#DejaVuSans-101"/>
      <use x="1502.603516" xlink:href="#DejaVuSans-32"/>
      <use x="1534.390625" xlink:href="#DejaVuSans-48"/>
      <use x="1598.013672" xlink:href="#DejaVuSans-46"/>
      <use x="1629.800781" xlink:href="#DejaVuSans-48"/>
      <use x="1693.423828" xlink:href="#DejaVuSans-41"/>
     </g>
    </g>
    <g id="line2d_25">
     <path d="M 456.697375 96.853087 
L 476.697375 96.853087 
" style="fill:none;stroke:#ff0000;stroke-linecap:square;stroke-opacity:0.8;stroke-width:1.5;"/>
    </g>
    <g id="line2d_26"/>
    <g id="text_19">
     <!-- Lognormal b optimized (mode 0.56) -->
     <defs>
      <path d="M 33.015625 40.375 
Q 26.375 40.375 22.484375 35.828125 
Q 18.609375 31.296875 18.609375 23.390625 
Q 18.609375 15.53125 22.484375 10.953125 
Q 26.375 6.390625 33.015625 6.390625 
Q 39.65625 6.390625 43.53125 10.953125 
Q 47.40625 15.53125 47.40625 23.390625 
Q 47.40625 31.296875 43.53125 35.828125 
Q 39.65625 40.375 33.015625 40.375 
z
M 52.59375 71.296875 
L 52.59375 62.3125 
Q 48.875 64.0625 45.09375 64.984375 
Q 41.3125 65.921875 37.59375 65.921875 
Q 27.828125 65.921875 22.671875 59.328125 
Q 17.53125 52.734375 16.796875 39.40625 
Q 19.671875 43.65625 24.015625 45.921875 
Q 28.375 48.1875 33.59375 48.1875 
Q 44.578125 48.1875 50.953125 41.515625 
Q 57.328125 34.859375 57.328125 23.390625 
Q 57.328125 12.15625 50.6875 5.359375 
Q 44.046875 -1.421875 33.015625 -1.421875 
Q 20.359375 -1.421875 13.671875 8.265625 
Q 6.984375 17.96875 6.984375 36.375 
Q 6.984375 53.65625 15.1875 63.9375 
Q 23.390625 74.21875 37.203125 74.21875 
Q 40.921875 74.21875 44.703125 73.484375 
Q 48.484375 72.75 52.59375 71.296875 
z
" id="DejaVuSans-54"/>
     </defs>
     <g transform="translate(484.697375 100.353087)scale(0.1 -0.1)">
      <use xlink:href="#DejaVuSans-76"/>
      <use x="53.962891" xlink:href="#DejaVuSans-111"/>
      <use x="115.144531" xlink:href="#DejaVuSans-103"/>
      <use x="178.621094" xlink:href="#DejaVuSans-110"/>
      <use x="242" xlink:href="#DejaVuSans-111"/>
      <use x="303.181641" xlink:href="#DejaVuSans-114"/>
      <use x="342.544922" xlink:href="#DejaVuSans-109"/>
      <use x="439.957031" xlink:href="#DejaVuSans-97"/>
      <use x="501.236328" xlink:href="#DejaVuSans-108"/>
      <use x="529.019531" xlink:href="#DejaVuSans-32"/>
      <use x="560.806641" xlink:href="#DejaVuSans-98"/>
      <use x="624.283203" xlink:href="#DejaVuSans-32"/>
      <use x="656.070312" xlink:href="#DejaVuSans-111"/>
      <use x="717.251953" xlink:href="#DejaVuSans-112"/>
      <use x="780.728516" xlink:href="#DejaVuSans-116"/>
      <use x="819.9375" xlink:href="#DejaVuSans-105"/>
      <use x="847.720703" xlink:href="#DejaVuSans-109"/>
      <use x="945.132812" xlink:href="#DejaVuSans-105"/>
      <use x="972.916016" xlink:href="#DejaVuSans-122"/>
      <use x="1025.40625" xlink:href="#DejaVuSans-101"/>
      <use x="1086.929688" xlink:href="#DejaVuSans-100"/>
      <use x="1150.40625" xlink:href="#DejaVuSans-32"/>
      <use x="1182.193359" xlink:href="#DejaVuSans-40"/>
      <use x="1221.207031" xlink:href="#DejaVuSans-109"/>
      <use x="1318.619141" xlink:href="#DejaVuSans-111"/>
      <use x="1379.800781" xlink:href="#DejaVuSans-100"/>
      <use x="1443.277344" xlink:href="#DejaVuSans-101"/>
      <use x="1504.800781" xlink:href="#DejaVuSans-32"/>
      <use x="1536.587891" xlink:href="#DejaVuSans-48"/>
      <use x="1600.210938" xlink:href="#DejaVuSans-46"/>
      <use x="1631.998047" xlink:href="#DejaVuSans-53"/>
      <use x="1695.621094" xlink:href="#DejaVuSans-54"/>
      <use x="1759.244141" xlink:href="#DejaVuSans-41"/>
     </g>
    </g>
    <g id="line2d_27">
     <path d="M 456.697375 111.531212 
L 476.697375 111.531212 
" style="fill:none;stroke:#00bfbf;stroke-linecap:square;stroke-opacity:0.8;stroke-width:1.5;"/>
    </g>
    <g id="line2d_28"/>
    <g id="text_20">
     <!-- Lognormal c optimized (mode 2.41) -->
     <g transform="translate(484.697375 115.031212)scale(0.1 -0.1)">
      <use xlink:href="#DejaVuSans-76"/>
      <use x="53.962891" xlink:href="#DejaVuSans-111"/>
      <use x="115.144531" xlink:href="#DejaVuSans-103"/>
      <use x="178.621094" xlink:href="#DejaVuSans-110"/>
      <use x="242" xlink:href="#DejaVuSans-111"/>
      <use x="303.181641" xlink:href="#DejaVuSans-114"/>
      <use x="342.544922" xlink:href="#DejaVuSans-109"/>
      <use x="439.957031" xlink:href="#DejaVuSans-97"/>
      <use x="501.236328" xlink:href="#DejaVuSans-108"/>
      <use x="529.019531" xlink:href="#DejaVuSans-32"/>
      <use x="560.806641" xlink:href="#DejaVuSans-99"/>
      <use x="615.787109" xlink:href="#DejaVuSans-32"/>
      <use x="647.574219" xlink:href="#DejaVuSans-111"/>
      <use x="708.755859" xlink:href="#DejaVuSans-112"/>
      <use x="772.232422" xlink:href="#DejaVuSans-116"/>
      <use x="811.441406" xlink:href="#DejaVuSans-105"/>
      <use x="839.224609" xlink:href="#DejaVuSans-109"/>
      <use x="936.636719" xlink:href="#DejaVuSans-105"/>
      <use x="964.419922" xlink:href="#DejaVuSans-122"/>
      <use x="1016.910156" xlink:href="#DejaVuSans-101"/>
      <use x="1078.433594" xlink:href="#DejaVuSans-100"/>
      <use x="1141.910156" xlink:href="#DejaVuSans-32"/>
      <use x="1173.697266" xlink:href="#DejaVuSans-40"/>
      <use x="1212.710938" xlink:href="#DejaVuSans-109"/>
      <use x="1310.123047" xlink:href="#DejaVuSans-111"/>
      <use x="1371.304688" xlink:href="#DejaVuSans-100"/>
      <use x="1434.78125" xlink:href="#DejaVuSans-101"/>
      <use x="1496.304688" xlink:href="#DejaVuSans-32"/>
      <use x="1528.091797" xlink:href="#DejaVuSans-50"/>
      <use x="1591.714844" xlink:href="#DejaVuSans-46"/>
      <use x="1623.501953" xlink:href="#DejaVuSans-52"/>
      <use x="1687.125" xlink:href="#DejaVuSans-49"/>
      <use x="1750.748047" xlink:href="#DejaVuSans-41"/>
     </g>
    </g>
    <g id="line2d_29">
     <path d="M 456.697375 126.209337 
L 476.697375 126.209337 
" style="fill:none;stroke:#bfbf00;stroke-linecap:square;stroke-opacity:0.8;stroke-width:1.5;"/>
    </g>
    <g id="line2d_30"/>
    <g id="text_21">
     <!-- Lognormal d optimized (mode 3.98) -->
     <defs>
      <path d="M 10.984375 1.515625 
L 10.984375 10.5 
Q 14.703125 8.734375 18.5 7.8125 
Q 22.3125 6.890625 25.984375 6.890625 
Q 35.75 6.890625 40.890625 13.453125 
Q 46.046875 20.015625 46.78125 33.40625 
Q 43.953125 29.203125 39.59375 26.953125 
Q 35.25 24.703125 29.984375 24.703125 
Q 19.046875 24.703125 12.671875 31.3125 
Q 6.296875 37.9375 6.296875 49.421875 
Q 6.296875 60.640625 12.9375 67.421875 
Q 19.578125 74.21875 30.609375 74.21875 
Q 43.265625 74.21875 49.921875 64.515625 
Q 56.59375 54.828125 56.59375 36.375 
Q 56.59375 19.140625 48.40625 8.859375 
Q 40.234375 -1.421875 26.421875 -1.421875 
Q 22.703125 -1.421875 18.890625 -0.6875 
Q 15.09375 0.046875 10.984375 1.515625 
z
M 30.609375 32.421875 
Q 37.25 32.421875 41.125 36.953125 
Q 45.015625 41.5 45.015625 49.421875 
Q 45.015625 57.28125 41.125 61.84375 
Q 37.25 66.40625 30.609375 66.40625 
Q 23.96875 66.40625 20.09375 61.84375 
Q 16.21875 57.28125 16.21875 49.421875 
Q 16.21875 41.5 20.09375 36.953125 
Q 23.96875 32.421875 30.609375 32.421875 
z
" id="DejaVuSans-57"/>
      <path d="M 31.78125 34.625 
Q 24.75 34.625 20.71875 30.859375 
Q 16.703125 27.09375 16.703125 20.515625 
Q 16.703125 13.921875 20.71875 10.15625 
Q 24.75 6.390625 31.78125 6.390625 
Q 38.8125 6.390625 42.859375 10.171875 
Q 46.921875 13.96875 46.921875 20.515625 
Q 46.921875 27.09375 42.890625 30.859375 
Q 38.875 34.625 31.78125 34.625 
z
M 21.921875 38.8125 
Q 15.578125 40.375 12.03125 44.71875 
Q 8.5 49.078125 8.5 55.328125 
Q 8.5 64.0625 14.71875 69.140625 
Q 20.953125 74.21875 31.78125 74.21875 
Q 42.671875 74.21875 48.875 69.140625 
Q 55.078125 64.0625 55.078125 55.328125 
Q 55.078125 49.078125 51.53125 44.71875 
Q 48 40.375 41.703125 38.8125 
Q 48.828125 37.15625 52.796875 32.3125 
Q 56.78125 27.484375 56.78125 20.515625 
Q 56.78125 9.90625 50.3125 4.234375 
Q 43.84375 -1.421875 31.78125 -1.421875 
Q 19.734375 -1.421875 13.25 4.234375 
Q 6.78125 9.90625 6.78125 20.515625 
Q 6.78125 27.484375 10.78125 32.3125 
Q 14.796875 37.15625 21.921875 38.8125 
z
M 18.3125 54.390625 
Q 18.3125 48.734375 21.84375 45.5625 
Q 25.390625 42.390625 31.78125 42.390625 
Q 38.140625 42.390625 41.71875 45.5625 
Q 45.3125 48.734375 45.3125 54.390625 
Q 45.3125 60.0625 41.71875 63.234375 
Q 38.140625 66.40625 31.78125 66.40625 
Q 25.390625 66.40625 21.84375 63.234375 
Q 18.3125 60.0625 18.3125 54.390625 
z
" id="DejaVuSans-56"/>
     </defs>
     <g transform="translate(484.697375 129.709337)scale(0.1 -0.1)">
      <use xlink:href="#DejaVuSans-76"/>
      <use x="53.962891" xlink:href="#DejaVuSans-111"/>
      <use x="115.144531" xlink:href="#DejaVuSans-103"/>
      <use x="178.621094" xlink:href="#DejaVuSans-110"/>
      <use x="242" xlink:href="#DejaVuSans-111"/>
      <use x="303.181641" xlink:href="#DejaVuSans-114"/>
      <use x="342.544922" xlink:href="#DejaVuSans-109"/>
      <use x="439.957031" xlink:href="#DejaVuSans-97"/>
      <use x="501.236328" xlink:href="#DejaVuSans-108"/>
      <use x="529.019531" xlink:href="#DejaVuSans-32"/>
      <use x="560.806641" xlink:href="#DejaVuSans-100"/>
      <use x="624.283203" xlink:href="#DejaVuSans-32"/>
      <use x="656.070312" xlink:href="#DejaVuSans-111"/>
      <use x="717.251953" xlink:href="#DejaVuSans-112"/>
      <use x="780.728516" xlink:href="#DejaVuSans-116"/>
      <use x="819.9375" xlink:href="#DejaVuSans-105"/>
      <use x="847.720703" xlink:href="#DejaVuSans-109"/>
      <use x="945.132812" xlink:href="#DejaVuSans-105"/>
      <use x="972.916016" xlink:href="#DejaVuSans-122"/>
      <use x="1025.40625" xlink:href="#DejaVuSans-101"/>
      <use x="1086.929688" xlink:href="#DejaVuSans-100"/>
      <use x="1150.40625" xlink:href="#DejaVuSans-32"/>
      <use x="1182.193359" xlink:href="#DejaVuSans-40"/>
      <use x="1221.207031" xlink:href="#DejaVuSans-109"/>
      <use x="1318.619141" xlink:href="#DejaVuSans-111"/>
      <use x="1379.800781" xlink:href="#DejaVuSans-100"/>
      <use x="1443.277344" xlink:href="#DejaVuSans-101"/>
      <use x="1504.800781" xlink:href="#DejaVuSans-32"/>
      <use x="1536.587891" xlink:href="#DejaVuSans-51"/>
      <use x="1600.210938" xlink:href="#DejaVuSans-46"/>
      <use x="1631.998047" xlink:href="#DejaVuSans-57"/>
      <use x="1695.621094" xlink:href="#DejaVuSans-56"/>
      <use x="1759.244141" xlink:href="#DejaVuSans-41"/>
     </g>
    </g>
    <g id="line2d_31">
     <path d="M 456.697375 140.887462 
L 476.697375 140.887462 
" style="fill:none;stroke:#000000;stroke-linecap:square;stroke-width:1.5;"/>
    </g>
    <g id="line2d_32"/>
    <g id="text_22">
     <!-- Exp-lognormal mixture model -->
     <defs>
      <path d="M 4.890625 31.390625 
L 31.203125 31.390625 
L 31.203125 23.390625 
L 4.890625 23.390625 
z
" id="DejaVuSans-45"/>
     </defs>
     <g transform="translate(484.697375 144.387462)scale(0.1 -0.1)">
      <use xlink:href="#DejaVuSans-69"/>
      <use x="63.183594" xlink:href="#DejaVuSans-120"/>
      <use x="122.363281" xlink:href="#DejaVuSans-112"/>
      <use x="185.839844" xlink:href="#DejaVuSans-45"/>
      <use x="221.923828" xlink:href="#DejaVuSans-108"/>
      <use x="249.707031" xlink:href="#DejaVuSans-111"/>
      <use x="310.888672" xlink:href="#DejaVuSans-103"/>
      <use x="374.365234" xlink:href="#DejaVuSans-110"/>
      <use x="437.744141" xlink:href="#DejaVuSans-111"/>
      <use x="498.925781" xlink:href="#DejaVuSans-114"/>
      <use x="538.289062" xlink:href="#DejaVuSans-109"/>
      <use x="635.701172" xlink:href="#DejaVuSans-97"/>
      <use x="696.980469" xlink:href="#DejaVuSans-108"/>
      <use x="724.763672" xlink:href="#DejaVuSans-32"/>
      <use x="756.550781" xlink:href="#DejaVuSans-109"/>
      <use x="853.962891" xlink:href="#DejaVuSans-105"/>
      <use x="881.746094" xlink:href="#DejaVuSans-120"/>
      <use x="940.925781" xlink:href="#DejaVuSans-116"/>
      <use x="980.134766" xlink:href="#DejaVuSans-117"/>
      <use x="1043.513672" xlink:href="#DejaVuSans-114"/>
      <use x="1082.376953" xlink:href="#DejaVuSans-101"/>
      <use x="1143.900391" xlink:href="#DejaVuSans-32"/>
      <use x="1175.6875" xlink:href="#DejaVuSans-109"/>
      <use x="1273.099609" xlink:href="#DejaVuSans-111"/>
      <use x="1334.28125" xlink:href="#DejaVuSans-100"/>
      <use x="1397.757812" xlink:href="#DejaVuSans-101"/>
      <use x="1459.28125" xlink:href="#DejaVuSans-108"/>
     </g>
    </g>
    <g id="patch_55">
     <path d="M 456.697375 159.065587 
L 476.697375 159.065587 
L 476.697375 152.065587 
L 456.697375 152.065587 
z
" style="fill:#808080;"/>
    </g>
    <g id="text_23">
     <!-- Whole-paranome (node averaged) -->
     <defs>
      <path d="M 3.328125 72.90625 
L 13.28125 72.90625 
L 28.609375 11.28125 
L 43.890625 72.90625 
L 54.984375 72.90625 
L 70.3125 11.28125 
L 85.59375 72.90625 
L 95.609375 72.90625 
L 77.296875 0 
L 64.890625 0 
L 49.515625 63.28125 
L 33.984375 0 
L 21.578125 0 
z
" id="DejaVuSans-87"/>
      <path d="M 54.890625 33.015625 
L 54.890625 0 
L 45.90625 0 
L 45.90625 32.71875 
Q 45.90625 40.484375 42.875 44.328125 
Q 39.84375 48.1875 33.796875 48.1875 
Q 26.515625 48.1875 22.3125 43.546875 
Q 18.109375 38.921875 18.109375 30.90625 
L 18.109375 0 
L 9.078125 0 
L 9.078125 75.984375 
L 18.109375 75.984375 
L 18.109375 46.1875 
Q 21.34375 51.125 25.703125 53.5625 
Q 30.078125 56 35.796875 56 
Q 45.21875 56 50.046875 50.171875 
Q 54.890625 44.34375 54.890625 33.015625 
z
" id="DejaVuSans-104"/>
     </defs>
     <g transform="translate(484.697375 159.065587)scale(0.1 -0.1)">
      <use xlink:href="#DejaVuSans-87"/>
      <use x="98.876953" xlink:href="#DejaVuSans-104"/>
      <use x="162.255859" xlink:href="#DejaVuSans-111"/>
      <use x="223.4375" xlink:href="#DejaVuSans-108"/>
      <use x="251.220703" xlink:href="#DejaVuSans-101"/>
      <use x="312.744141" xlink:href="#DejaVuSans-45"/>
      <use x="348.828125" xlink:href="#DejaVuSans-112"/>
      <use x="412.304688" xlink:href="#DejaVuSans-97"/>
      <use x="473.583984" xlink:href="#DejaVuSans-114"/>
      <use x="514.697266" xlink:href="#DejaVuSans-97"/>
      <use x="575.976562" xlink:href="#DejaVuSans-110"/>
      <use x="639.355469" xlink:href="#DejaVuSans-111"/>
      <use x="700.537109" xlink:href="#DejaVuSans-109"/>
      <use x="797.949219" xlink:href="#DejaVuSans-101"/>
      <use x="859.472656" xlink:href="#DejaVuSans-32"/>
      <use x="891.259766" xlink:href="#DejaVuSans-40"/>
      <use x="930.273438" xlink:href="#DejaVuSans-110"/>
      <use x="993.652344" xlink:href="#DejaVuSans-111"/>
      <use x="1054.833984" xlink:href="#DejaVuSans-100"/>
      <use x="1118.310547" xlink:href="#DejaVuSans-101"/>
      <use x="1179.833984" xlink:href="#DejaVuSans-32"/>
      <use x="1211.621094" xlink:href="#DejaVuSans-97"/>
      <use x="1272.900391" xlink:href="#DejaVuSans-118"/>
      <use x="1332.080078" xlink:href="#DejaVuSans-101"/>
      <use x="1393.603516" xlink:href="#DejaVuSans-114"/>
      <use x="1434.716797" xlink:href="#DejaVuSans-97"/>
      <use x="1495.996094" xlink:href="#DejaVuSans-103"/>
      <use x="1559.472656" xlink:href="#DejaVuSans-101"/>
      <use x="1620.996094" xlink:href="#DejaVuSans-100"/>
      <use x="1684.472656" xlink:href="#DejaVuSans-41"/>
     </g>
    </g>
   </g>
  </g>
  <g id="text_24">
   <!-- $K_\mathregular{S}$ distribution for Schlechtendalia.fasta.transdecoder.cds.tsv.ks.tsv -->
   <defs>
    <path d="M 9.078125 75.984375 
L 18.109375 75.984375 
L 18.109375 31.109375 
L 44.921875 54.6875 
L 56.390625 54.6875 
L 27.390625 29.109375 
L 57.625 0 
L 45.90625 0 
L 18.109375 26.703125 
L 18.109375 0 
L 9.078125 0 
z
" id="DejaVuSans-107"/>
   </defs>
   <g transform="translate(156.18 19.198125)scale(0.12 -0.12)">
    <use transform="translate(0 0.015625)" xlink:href="#DejaVuSans-Oblique-75"/>
    <use transform="translate(65.576172 -16.390625)scale(0.7)" xlink:href="#DejaVuSans-83"/>
    <use transform="translate(112.744141 0.015625)" xlink:href="#DejaVuSans-32"/>
    <use transform="translate(144.53125 0.015625)" xlink:href="#DejaVuSans-100"/>
    <use transform="translate(208.007812 0.015625)" xlink:href="#DejaVuSans-105"/>
    <use transform="translate(235.791016 0.015625)" xlink:href="#DejaVuSans-115"/>
    <use transform="translate(287.890625 0.015625)" xlink:href="#DejaVuSans-116"/>
    <use transform="translate(327.099609 0.015625)" xlink:href="#DejaVuSans-114"/>
    <use transform="translate(368.212891 0.015625)" xlink:href="#DejaVuSans-105"/>
    <use transform="translate(395.996094 0.015625)" xlink:href="#DejaVuSans-98"/>
    <use transform="translate(459.472656 0.015625)" xlink:href="#DejaVuSans-117"/>
    <use transform="translate(522.851562 0.015625)" xlink:href="#DejaVuSans-116"/>
    <use transform="translate(562.060547 0.015625)" xlink:href="#DejaVuSans-105"/>
    <use transform="translate(589.84375 0.015625)" xlink:href="#DejaVuSans-111"/>
    <use transform="translate(651.025391 0.015625)" xlink:href="#DejaVuSans-110"/>
    <use transform="translate(714.404297 0.015625)" xlink:href="#DejaVuSans-32"/>
    <use transform="translate(746.191406 0.015625)" xlink:href="#DejaVuSans-102"/>
    <use transform="translate(781.396484 0.015625)" xlink:href="#DejaVuSans-111"/>
    <use transform="translate(842.578125 0.015625)" xlink:href="#DejaVuSans-114"/>
    <use transform="translate(883.691406 0.015625)" xlink:href="#DejaVuSans-32"/>
    <use transform="translate(915.478516 0.015625)" xlink:href="#DejaVuSans-83"/>
    <use transform="translate(978.955078 0.015625)" xlink:href="#DejaVuSans-99"/>
    <use transform="translate(1033.935547 0.015625)" xlink:href="#DejaVuSans-104"/>
    <use transform="translate(1097.314453 0.015625)" xlink:href="#DejaVuSans-108"/>
    <use transform="translate(1125.097656 0.015625)" xlink:href="#DejaVuSans-101"/>
    <use transform="translate(1186.621094 0.015625)" xlink:href="#DejaVuSans-99"/>
    <use transform="translate(1241.601562 0.015625)" xlink:href="#DejaVuSans-104"/>
    <use transform="translate(1304.980469 0.015625)" xlink:href="#DejaVuSans-116"/>
    <use transform="translate(1344.189453 0.015625)" xlink:href="#DejaVuSans-101"/>
    <use transform="translate(1405.712891 0.015625)" xlink:href="#DejaVuSans-110"/>
    <use transform="translate(1469.091797 0.015625)" xlink:href="#DejaVuSans-100"/>
    <use transform="translate(1532.568359 0.015625)" xlink:href="#DejaVuSans-97"/>
    <use transform="translate(1593.847656 0.015625)" xlink:href="#DejaVuSans-108"/>
    <use transform="translate(1621.630859 0.015625)" xlink:href="#DejaVuSans-105"/>
    <use transform="translate(1649.414062 0.015625)" xlink:href="#DejaVuSans-97"/>
    <use transform="translate(1710.693359 0.015625)" xlink:href="#DejaVuSans-46"/>
    <use transform="translate(1742.480469 0.015625)" xlink:href="#DejaVuSans-102"/>
    <use transform="translate(1777.685547 0.015625)" xlink:href="#DejaVuSans-97"/>
    <use transform="translate(1838.964844 0.015625)" xlink:href="#DejaVuSans-115"/>
    <use transform="translate(1891.064453 0.015625)" xlink:href="#DejaVuSans-116"/>
    <use transform="translate(1930.273438 0.015625)" xlink:href="#DejaVuSans-97"/>
    <use transform="translate(1991.552734 0.015625)" xlink:href="#DejaVuSans-46"/>
    <use transform="translate(2023.339844 0.015625)" xlink:href="#DejaVuSans-116"/>
    <use transform="translate(2062.548828 0.015625)" xlink:href="#DejaVuSans-114"/>
    <use transform="translate(2103.662109 0.015625)" xlink:href="#DejaVuSans-97"/>
    <use transform="translate(2164.941406 0.015625)" xlink:href="#DejaVuSans-110"/>
    <use transform="translate(2228.320312 0.015625)" xlink:href="#DejaVuSans-115"/>
    <use transform="translate(2280.419922 0.015625)" xlink:href="#DejaVuSans-100"/>
    <use transform="translate(2343.896484 0.015625)" xlink:href="#DejaVuSans-101"/>
    <use transform="translate(2405.419922 0.015625)" xlink:href="#DejaVuSans-99"/>
    <use transform="translate(2460.400391 0.015625)" xlink:href="#DejaVuSans-111"/>
    <use transform="translate(2521.582031 0.015625)" xlink:href="#DejaVuSans-100"/>
    <use transform="translate(2585.058594 0.015625)" xlink:href="#DejaVuSans-101"/>
    <use transform="translate(2646.582031 0.015625)" xlink:href="#DejaVuSans-114"/>
    <use transform="translate(2687.695312 0.015625)" xlink:href="#DejaVuSans-46"/>
    <use transform="translate(2719.482422 0.015625)" xlink:href="#DejaVuSans-99"/>
    <use transform="translate(2774.462891 0.015625)" xlink:href="#DejaVuSans-100"/>
    <use transform="translate(2837.939453 0.015625)" xlink:href="#DejaVuSans-115"/>
    <use transform="translate(2890.039062 0.015625)" xlink:href="#DejaVuSans-46"/>
    <use transform="translate(2921.826172 0.015625)" xlink:href="#DejaVuSans-116"/>
    <use transform="translate(2961.035156 0.015625)" xlink:href="#DejaVuSans-115"/>
    <use transform="translate(3013.134766 0.015625)" xlink:href="#DejaVuSans-118"/>
    <use transform="translate(3072.314453 0.015625)" xlink:href="#DejaVuSans-46"/>
    <use transform="translate(3104.101562 0.015625)" xlink:href="#DejaVuSans-107"/>
    <use transform="translate(3162.011719 0.015625)" xlink:href="#DejaVuSans-115"/>
    <use transform="translate(3214.111328 0.015625)" xlink:href="#DejaVuSans-46"/>
    <use transform="translate(3245.898438 0.015625)" xlink:href="#DejaVuSans-116"/>
    <use transform="translate(3285.107422 0.015625)" xlink:href="#DejaVuSans-115"/>
    <use transform="translate(3337.207031 0.015625)" xlink:href="#DejaVuSans-118"/>
   </g>
  </g>
 </g>
 <defs>
  <clipPath id="p88efb1017b">
   <rect height="435.984" width="650.49" x="55.56" y="10.8"/>
  </clipPath>
 </defs>
</svg>
