<?xml version="1.0" encoding="utf-8" standalone="no"?>
<!DOCTYPE svg PUBLIC "-//W3C//DTD SVG 1.1//EN"
  "http://www.w3.org/Graphics/SVG/1.1/DTD/svg11.dtd">
<!-- Created with matplotlib (https://matplotlib.org/) -->
<svg height="345.6pt" version="1.1" viewBox="0 0 460.8 345.6" width="460.8pt" xmlns="http://www.w3.org/2000/svg" xmlns:xlink="http://www.w3.org/1999/xlink">
 <defs>
  <style type="text/css">
*{stroke-linecap:butt;stroke-linejoin:round;}
  </style>
 </defs>
 <g id="figure_1">
  <g id="patch_1">
   <path d="M 0 345.6 
L 460.8 345.6 
L 460.8 0 
L 0 0 
z
" style="fill:#ffffff;"/>
  </g>
  <g id="axes_1">
   <g id="patch_2">
    <path d="M 58.17 156.135249 
L 233.615 156.135249 
L 233.615 51.84 
L 58.17 51.84 
z
" style="fill:#ffffff;"/>
   </g>
   <g id="patch_3">
    <path clip-path="url(#p174185f2b7)" d="M 58.52089 156.135249 
L 61.32801 156.135249 
L 61.32801 56.80644 
L 58.52089 56.80644 
z
" style="fill:#808080;"/>
   </g>
   <g id="patch_4">
    <path clip-path="url(#p174185f2b7)" d="M 62.02979 156.135249 
L 64.83691 156.135249 
L 64.83691 129.243193 
L 62.02979 129.243193 
z
" style="fill:#808080;"/>
   </g>
   <g id="patch_5">
    <path clip-path="url(#p174185f2b7)" d="M 65.53869 156.135249 
L 68.34581 156.135249 
L 68.34581 142.636629 
L 65.53869 142.636629 
z
" style="fill:#808080;"/>
   </g>
   <g id="patch_6">
    <path clip-path="url(#p174185f2b7)" d="M 69.04759 156.135249 
L 71.85471 156.135249 
L 71.85471 145.301292 
L 69.04759 145.301292 
z
" style="fill:#808080;"/>
   </g>
   <g id="patch_7">
    <path clip-path="url(#p174185f2b7)" d="M 72.55649 156.135249 
L 75.36361 156.135249 
L 75.36361 145.862273 
L 72.55649 145.862273 
z
" style="fill:#808080;"/>
   </g>
   <g id="patch_8">
    <path clip-path="url(#p174185f2b7)" d="M 76.06539 156.135249 
L 78.87251 156.135249 
L 78.87251 146.5635 
L 76.06539 146.5635 
z
" style="fill:#808080;"/>
   </g>
   <g id="patch_9">
    <path clip-path="url(#p174185f2b7)" d="M 79.57429 156.135249 
L 82.38141 156.135249 
L 82.38141 147.33485 
L 79.57429 147.33485 
z
" style="fill:#808080;"/>
   </g>
   <g id="patch_10">
    <path clip-path="url(#p174185f2b7)" d="M 83.08319 156.135249 
L 85.89031 156.135249 
L 85.89031 145.827212 
L 83.08319 145.827212 
z
" style="fill:#808080;"/>
   </g>
   <g id="patch_11">
    <path clip-path="url(#p174185f2b7)" d="M 86.59209 156.135249 
L 89.39921 156.135249 
L 89.39921 147.615341 
L 86.59209 147.615341 
z
" style="fill:#808080;"/>
   </g>
   <g id="patch_12">
    <path clip-path="url(#p174185f2b7)" d="M 90.10099 156.135249 
L 92.90811 156.135249 
L 92.90811 146.528439 
L 90.10099 146.528439 
z
" style="fill:#808080;"/>
   </g>
   <g id="patch_13">
    <path clip-path="url(#p174185f2b7)" d="M 93.60989 156.135249 
L 96.41701 156.135249 
L 96.41701 149.298286 
L 93.60989 149.298286 
z
" style="fill:#808080;"/>
   </g>
   <g id="patch_14">
    <path clip-path="url(#p174185f2b7)" d="M 97.11879 156.135249 
L 99.92591 156.135249 
L 99.92591 149.648899 
L 97.11879 149.648899 
z
" style="fill:#808080;"/>
   </g>
   <g id="patch_15">
    <path clip-path="url(#p174185f2b7)" d="M 100.62769 156.135249 
L 103.43481 156.135249 
L 103.43481 151.331844 
L 100.62769 151.331844 
z
" style="fill:#808080;"/>
   </g>
   <g id="patch_16">
    <path clip-path="url(#p174185f2b7)" d="M 104.13659 156.135249 
L 106.94371 156.135249 
L 106.94371 151.927887 
L 104.13659 151.927887 
z
" style="fill:#808080;"/>
   </g>
   <g id="patch_17">
    <path clip-path="url(#p174185f2b7)" d="M 107.64549 156.135249 
L 110.45261 156.135249 
L 110.45261 151.927887 
L 107.64549 151.927887 
z
" style="fill:#808080;"/>
   </g>
   <g id="patch_18">
    <path clip-path="url(#p174185f2b7)" d="M 111.15439 156.135249 
L 113.96151 156.135249 
L 113.96151 152.173316 
L 111.15439 152.173316 
z
" style="fill:#808080;"/>
   </g>
   <g id="patch_19">
    <path clip-path="url(#p174185f2b7)" d="M 114.66329 156.135249 
L 117.47041 156.135249 
L 117.47041 153.04985 
L 114.66329 153.04985 
z
" style="fill:#808080;"/>
   </g>
   <g id="patch_20">
    <path clip-path="url(#p174185f2b7)" d="M 118.17219 156.135249 
L 120.97931 156.135249 
L 120.97931 153.119973 
L 118.17219 153.119973 
z
" style="fill:#808080;"/>
   </g>
   <g id="patch_21">
    <path clip-path="url(#p174185f2b7)" d="M 121.68109 156.135249 
L 124.48821 156.135249 
L 124.48821 153.04985 
L 121.68109 153.04985 
z
" style="fill:#808080;"/>
   </g>
   <g id="patch_22">
    <path clip-path="url(#p174185f2b7)" d="M 125.18999 156.135249 
L 127.99711 156.135249 
L 127.99711 152.804421 
L 125.18999 152.804421 
z
" style="fill:#808080;"/>
   </g>
   <g id="patch_23">
    <path clip-path="url(#p174185f2b7)" d="M 128.69889 156.135249 
L 131.50601 156.135249 
L 131.50601 152.804421 
L 128.69889 152.804421 
z
" style="fill:#808080;"/>
   </g>
   <g id="patch_24">
    <path clip-path="url(#p174185f2b7)" d="M 132.20779 156.135249 
L 135.01491 156.135249 
L 135.01491 152.874543 
L 132.20779 152.874543 
z
" style="fill:#808080;"/>
   </g>
   <g id="patch_25">
    <path clip-path="url(#p174185f2b7)" d="M 135.71669 156.135249 
L 138.52381 156.135249 
L 138.52381 153.260218 
L 135.71669 153.260218 
z
" style="fill:#808080;"/>
   </g>
   <g id="patch_26">
    <path clip-path="url(#p174185f2b7)" d="M 139.22559 156.135249 
L 142.03271 156.135249 
L 142.03271 152.909605 
L 139.22559 152.909605 
z
" style="fill:#808080;"/>
   </g>
   <g id="patch_27">
    <path clip-path="url(#p174185f2b7)" d="M 142.73449 156.135249 
L 145.54161 156.135249 
L 145.54161 152.909605 
L 142.73449 152.909605 
z
" style="fill:#808080;"/>
   </g>
   <g id="patch_28">
    <path clip-path="url(#p174185f2b7)" d="M 146.24339 156.135249 
L 149.05051 156.135249 
L 149.05051 153.575771 
L 146.24339 153.575771 
z
" style="fill:#808080;"/>
   </g>
   <g id="patch_29">
    <path clip-path="url(#p174185f2b7)" d="M 149.75229 156.135249 
L 152.55941 156.135249 
L 152.55941 153.961445 
L 149.75229 153.961445 
z
" style="fill:#808080;"/>
   </g>
   <g id="patch_30">
    <path clip-path="url(#p174185f2b7)" d="M 153.26119 156.135249 
L 156.06831 156.135249 
L 156.06831 153.155034 
L 153.26119 153.155034 
z
" style="fill:#808080;"/>
   </g>
   <g id="patch_31">
    <path clip-path="url(#p174185f2b7)" d="M 156.77009 156.135249 
L 159.57721 156.135249 
L 159.57721 153.751077 
L 156.77009 153.751077 
z
" style="fill:#808080;"/>
   </g>
   <g id="patch_32">
    <path clip-path="url(#p174185f2b7)" d="M 160.27899 156.135249 
L 163.08611 156.135249 
L 163.08611 153.540709 
L 160.27899 153.540709 
z
" style="fill:#808080;"/>
   </g>
   <g id="patch_33">
    <path clip-path="url(#p174185f2b7)" d="M 163.78789 156.135249 
L 166.59501 156.135249 
L 166.59501 154.136752 
L 163.78789 154.136752 
z
" style="fill:#808080;"/>
   </g>
   <g id="patch_34">
    <path clip-path="url(#p174185f2b7)" d="M 167.29679 156.135249 
L 170.10391 156.135249 
L 170.10391 153.260218 
L 167.29679 153.260218 
z
" style="fill:#808080;"/>
   </g>
   <g id="patch_35">
    <path clip-path="url(#p174185f2b7)" d="M 170.80569 156.135249 
L 173.61281 156.135249 
L 173.61281 154.066629 
L 170.80569 154.066629 
z
" style="fill:#808080;"/>
   </g>
   <g id="patch_36">
    <path clip-path="url(#p174185f2b7)" d="M 174.31459 156.135249 
L 177.12171 156.135249 
L 177.12171 153.926384 
L 174.31459 153.926384 
z
" style="fill:#808080;"/>
   </g>
   <g id="patch_37">
    <path clip-path="url(#p174185f2b7)" d="M 177.82349 156.135249 
L 180.63061 156.135249 
L 180.63061 154.452304 
L 177.82349 154.452304 
z
" style="fill:#808080;"/>
   </g>
   <g id="patch_38">
    <path clip-path="url(#p174185f2b7)" d="M 181.33239 156.135249 
L 184.13951 156.135249 
L 184.13951 154.557488 
L 181.33239 154.557488 
z
" style="fill:#808080;"/>
   </g>
   <g id="patch_39">
    <path clip-path="url(#p174185f2b7)" d="M 184.84129 156.135249 
L 187.64841 156.135249 
L 187.64841 154.276998 
L 184.84129 154.276998 
z
" style="fill:#808080;"/>
   </g>
   <g id="patch_40">
    <path clip-path="url(#p174185f2b7)" d="M 188.35019 156.135249 
L 191.15731 156.135249 
L 191.15731 154.662672 
L 188.35019 154.662672 
z
" style="fill:#808080;"/>
   </g>
   <g id="patch_41">
    <path clip-path="url(#p174185f2b7)" d="M 191.85909 156.135249 
L 194.66621 156.135249 
L 194.66621 154.978225 
L 191.85909 154.978225 
z
" style="fill:#808080;"/>
   </g>
   <g id="patch_42">
    <path clip-path="url(#p174185f2b7)" d="M 195.36799 156.135249 
L 198.17511 156.135249 
L 198.17511 154.452304 
L 195.36799 154.452304 
z
" style="fill:#808080;"/>
   </g>
   <g id="patch_43">
    <path clip-path="url(#p174185f2b7)" d="M 198.87689 156.135249 
L 201.68401 156.135249 
L 201.68401 154.697734 
L 198.87689 154.697734 
z
" style="fill:#808080;"/>
   </g>
   <g id="patch_44">
    <path clip-path="url(#p174185f2b7)" d="M 202.38579 156.135249 
L 205.19291 156.135249 
L 205.19291 155.153531 
L 202.38579 155.153531 
z
" style="fill:#808080;"/>
   </g>
   <g id="patch_45">
    <path clip-path="url(#p174185f2b7)" d="M 205.89469 156.135249 
L 208.70181 156.135249 
L 208.70181 155.11847 
L 205.89469 155.11847 
z
" style="fill:#808080;"/>
   </g>
   <g id="patch_46">
    <path clip-path="url(#p174185f2b7)" d="M 209.40359 156.135249 
L 212.21071 156.135249 
L 212.21071 154.837979 
L 209.40359 154.837979 
z
" style="fill:#808080;"/>
   </g>
   <g id="patch_47">
    <path clip-path="url(#p174185f2b7)" d="M 212.91249 156.135249 
L 215.71961 156.135249 
L 215.71961 154.873041 
L 212.91249 154.873041 
z
" style="fill:#808080;"/>
   </g>
   <g id="patch_48">
    <path clip-path="url(#p174185f2b7)" d="M 216.42139 156.135249 
L 219.22851 156.135249 
L 219.22851 155.048347 
L 216.42139 155.048347 
z
" style="fill:#808080;"/>
   </g>
   <g id="patch_49">
    <path clip-path="url(#p174185f2b7)" d="M 219.93029 156.135249 
L 222.73741 156.135249 
L 222.73741 155.293777 
L 219.93029 155.293777 
z
" style="fill:#808080;"/>
   </g>
   <g id="patch_50">
    <path clip-path="url(#p174185f2b7)" d="M 223.43919 156.135249 
L 226.24631 156.135249 
L 226.24631 154.59255 
L 223.43919 154.59255 
z
" style="fill:#808080;"/>
   </g>
   <g id="patch_51">
    <path clip-path="url(#p174185f2b7)" d="M 226.94809 156.135249 
L 229.75521 156.135249 
L 229.75521 155.083409 
L 226.94809 155.083409 
z
" style="fill:#808080;"/>
   </g>
   <g id="patch_52">
    <path clip-path="url(#p174185f2b7)" d="M 230.45699 156.135249 
L 233.26411 156.135249 
L 233.26411 155.048347 
L 230.45699 155.048347 
z
" style="fill:#808080;"/>
   </g>
   <g id="patch_53">
    <path clip-path="url(#p174185f2b7)" d="M 58.523844 156.135249 
L 61.326529 156.135249 
L 61.326529 56.80644 
L 58.523844 56.80644 
z
" style="fill:#808080;"/>
   </g>
   <g id="patch_54">
    <path clip-path="url(#p174185f2b7)" d="M 62.0272 156.135249 
L 64.829885 156.135249 
L 64.829885 129.278254 
L 62.0272 129.278254 
z
" style="fill:#808080;"/>
   </g>
   <g id="patch_55">
    <path clip-path="url(#p174185f2b7)" d="M 65.530556 156.135249 
L 68.333241 156.135249 
L 68.333241 142.636629 
L 65.530556 142.636629 
z
" style="fill:#808080;"/>
   </g>
   <g id="patch_56">
    <path clip-path="url(#p174185f2b7)" d="M 69.033912 156.135249 
L 71.836597 156.135249 
L 71.836597 145.301292 
L 69.033912 145.301292 
z
" style="fill:#808080;"/>
   </g>
   <g id="patch_57">
    <path clip-path="url(#p174185f2b7)" d="M 72.537268 156.135249 
L 75.339953 156.135249 
L 75.339953 145.827212 
L 72.537268 145.827212 
z
" style="fill:#808080;"/>
   </g>
   <g id="patch_58">
    <path clip-path="url(#p174185f2b7)" d="M 76.040624 156.135249 
L 78.843309 156.135249 
L 78.843309 146.598562 
L 76.040624 146.598562 
z
" style="fill:#808080;"/>
   </g>
   <g id="patch_59">
    <path clip-path="url(#p174185f2b7)" d="M 79.54398 156.135249 
L 82.346665 156.135249 
L 82.346665 147.369911 
L 79.54398 147.369911 
z
" style="fill:#808080;"/>
   </g>
   <g id="patch_60">
    <path clip-path="url(#p174185f2b7)" d="M 83.047336 156.135249 
L 85.850021 156.135249 
L 85.850021 145.79215 
L 83.047336 145.79215 
z
" style="fill:#808080;"/>
   </g>
   <g id="patch_61">
    <path clip-path="url(#p174185f2b7)" d="M 86.550692 156.135249 
L 89.353377 156.135249 
L 89.353377 147.650402 
L 86.550692 147.650402 
z
" style="fill:#808080;"/>
   </g>
   <g id="patch_62">
    <path clip-path="url(#p174185f2b7)" d="M 90.054048 156.135249 
L 92.856733 156.135249 
L 92.856733 146.528439 
L 90.054048 146.528439 
z
" style="fill:#808080;"/>
   </g>
   <g id="patch_63">
    <path clip-path="url(#p174185f2b7)" d="M 93.557404 156.135249 
L 96.360089 156.135249 
L 96.360089 149.228163 
L 93.557404 149.228163 
z
" style="fill:#808080;"/>
   </g>
   <g id="patch_64">
    <path clip-path="url(#p174185f2b7)" d="M 97.06076 156.135249 
L 99.863445 156.135249 
L 99.863445 149.754083 
L 97.06076 149.754083 
z
" style="fill:#808080;"/>
   </g>
   <g id="patch_65">
    <path clip-path="url(#p174185f2b7)" d="M 100.564116 156.135249 
L 103.366801 156.135249 
L 103.366801 151.296783 
L 100.564116 151.296783 
z
" style="fill:#808080;"/>
   </g>
   <g id="patch_66">
    <path clip-path="url(#p174185f2b7)" d="M 104.067472 156.135249 
L 106.870156 156.135249 
L 106.870156 151.927887 
L 104.067472 151.927887 
z
" style="fill:#808080;"/>
   </g>
   <g id="patch_67">
    <path clip-path="url(#p174185f2b7)" d="M 107.570828 156.135249 
L 110.373512 156.135249 
L 110.373512 151.99801 
L 107.570828 151.99801 
z
" style="fill:#808080;"/>
   </g>
   <g id="patch_68">
    <path clip-path="url(#p174185f2b7)" d="M 111.074184 156.135249 
L 113.876868 156.135249 
L 113.876868 152.138255 
L 111.074184 152.138255 
z
" style="fill:#808080;"/>
   </g>
   <g id="patch_69">
    <path clip-path="url(#p174185f2b7)" d="M 114.57754 156.135249 
L 117.380224 156.135249 
L 117.380224 152.944666 
L 114.57754 152.944666 
z
" style="fill:#808080;"/>
   </g>
   <g id="patch_70">
    <path clip-path="url(#p174185f2b7)" d="M 118.080895 156.135249 
L 120.88358 156.135249 
L 120.88358 153.155034 
L 118.080895 153.155034 
z
" style="fill:#808080;"/>
   </g>
   <g id="patch_71">
    <path clip-path="url(#p174185f2b7)" d="M 121.584251 156.135249 
L 124.386936 156.135249 
L 124.386936 153.119973 
L 121.584251 153.119973 
z
" style="fill:#808080;"/>
   </g>
   <g id="patch_72">
    <path clip-path="url(#p174185f2b7)" d="M 125.087607 156.135249 
L 127.890292 156.135249 
L 127.890292 152.839482 
L 125.087607 152.839482 
z
" style="fill:#808080;"/>
   </g>
   <g id="patch_73">
    <path clip-path="url(#p174185f2b7)" d="M 128.590963 156.135249 
L 131.393648 156.135249 
L 131.393648 152.699237 
L 128.590963 152.699237 
z
" style="fill:#808080;"/>
   </g>
   <g id="patch_74">
    <path clip-path="url(#p174185f2b7)" d="M 132.094319 156.135249 
L 134.897004 156.135249 
L 134.897004 152.944666 
L 132.094319 152.944666 
z
" style="fill:#808080;"/>
   </g>
   <g id="patch_75">
    <path clip-path="url(#p174185f2b7)" d="M 135.597675 156.135249 
L 138.40036 156.135249 
L 138.40036 153.330341 
L 135.597675 153.330341 
z
" style="fill:#808080;"/>
   </g>
   <g id="patch_76">
    <path clip-path="url(#p174185f2b7)" d="M 139.101031 156.135249 
L 141.903716 156.135249 
L 141.903716 152.839482 
L 139.101031 152.839482 
z
" style="fill:#808080;"/>
   </g>
   <g id="patch_77">
    <path clip-path="url(#p174185f2b7)" d="M 142.604387 156.135249 
L 145.407072 156.135249 
L 145.407072 152.839482 
L 142.604387 152.839482 
z
" style="fill:#808080;"/>
   </g>
   <g id="patch_78">
    <path clip-path="url(#p174185f2b7)" d="M 146.107743 156.135249 
L 148.910428 156.135249 
L 148.910428 153.610832 
L 146.107743 153.610832 
z
" style="fill:#808080;"/>
   </g>
   <g id="patch_79">
    <path clip-path="url(#p174185f2b7)" d="M 149.611099 156.135249 
L 152.413784 156.135249 
L 152.413784 153.926384 
L 149.611099 153.926384 
z
" style="fill:#808080;"/>
   </g>
   <g id="patch_80">
    <path clip-path="url(#p174185f2b7)" d="M 153.114455 156.135249 
L 155.91714 156.135249 
L 155.91714 153.29528 
L 153.114455 153.29528 
z
" style="fill:#808080;"/>
   </g>
   <g id="patch_81">
    <path clip-path="url(#p174185f2b7)" d="M 156.617811 156.135249 
L 159.420496 156.135249 
L 159.420496 153.8212 
L 156.617811 153.8212 
z
" style="fill:#808080;"/>
   </g>
   <g id="patch_82">
    <path clip-path="url(#p174185f2b7)" d="M 160.121167 156.135249 
L 162.923851 156.135249 
L 162.923851 153.365402 
L 160.121167 153.365402 
z
" style="fill:#808080;"/>
   </g>
   <g id="patch_83">
    <path clip-path="url(#p174185f2b7)" d="M 163.624523 156.135249 
L 166.427207 156.135249 
L 166.427207 154.206875 
L 163.624523 154.206875 
z
" style="fill:#808080;"/>
   </g>
   <g id="patch_84">
    <path clip-path="url(#p174185f2b7)" d="M 167.127879 156.135249 
L 169.930563 156.135249 
L 169.930563 153.365402 
L 167.127879 153.365402 
z
" style="fill:#808080;"/>
   </g>
   <g id="patch_85">
    <path clip-path="url(#p174185f2b7)" d="M 170.631235 156.135249 
L 173.433919 156.135249 
L 173.433919 153.996507 
L 170.631235 153.996507 
z
" style="fill:#808080;"/>
   </g>
   <g id="patch_86">
    <path clip-path="url(#p174185f2b7)" d="M 174.13459 156.135249 
L 176.937275 156.135249 
L 176.937275 153.786139 
L 174.13459 153.786139 
z
" style="fill:#808080;"/>
   </g>
   <g id="patch_87">
    <path clip-path="url(#p174185f2b7)" d="M 177.637946 156.135249 
L 180.440631 156.135249 
L 180.440631 154.452304 
L 177.637946 154.452304 
z
" style="fill:#808080;"/>
   </g>
   <g id="patch_88">
    <path clip-path="url(#p174185f2b7)" d="M 181.141302 156.135249 
L 183.943987 156.135249 
L 183.943987 154.662672 
L 181.141302 154.662672 
z
" style="fill:#808080;"/>
   </g>
   <g id="patch_89">
    <path clip-path="url(#p174185f2b7)" d="M 184.644658 156.135249 
L 187.447343 156.135249 
L 187.447343 154.276998 
L 184.644658 154.276998 
z
" style="fill:#808080;"/>
   </g>
   <g id="patch_90">
    <path clip-path="url(#p174185f2b7)" d="M 188.148014 156.135249 
L 190.950699 156.135249 
L 190.950699 154.59255 
L 188.148014 154.59255 
z
" style="fill:#808080;"/>
   </g>
   <g id="patch_91">
    <path clip-path="url(#p174185f2b7)" d="M 191.65137 156.135249 
L 194.454055 156.135249 
L 194.454055 155.013286 
L 191.65137 155.013286 
z
" style="fill:#808080;"/>
   </g>
   <g id="patch_92">
    <path clip-path="url(#p174185f2b7)" d="M 195.154726 156.135249 
L 197.957411 156.135249 
L 197.957411 154.417243 
L 195.154726 154.417243 
z
" style="fill:#808080;"/>
   </g>
   <g id="patch_93">
    <path clip-path="url(#p174185f2b7)" d="M 198.658082 156.135249 
L 201.460767 156.135249 
L 201.460767 154.732795 
L 198.658082 154.732795 
z
" style="fill:#808080;"/>
   </g>
   <g id="patch_94">
    <path clip-path="url(#p174185f2b7)" d="M 202.161438 156.135249 
L 204.964123 156.135249 
L 204.964123 155.11847 
L 202.161438 155.11847 
z
" style="fill:#808080;"/>
   </g>
   <g id="patch_95">
    <path clip-path="url(#p174185f2b7)" d="M 205.664794 156.135249 
L 208.467479 156.135249 
L 208.467479 155.048347 
L 205.664794 155.048347 
z
" style="fill:#808080;"/>
   </g>
   <g id="patch_96">
    <path clip-path="url(#p174185f2b7)" d="M 209.16815 156.135249 
L 211.970835 156.135249 
L 211.970835 154.873041 
L 209.16815 154.873041 
z
" style="fill:#808080;"/>
   </g>
   <g id="patch_97">
    <path clip-path="url(#p174185f2b7)" d="M 212.671506 156.135249 
L 215.474191 156.135249 
L 215.474191 154.978225 
L 212.671506 154.978225 
z
" style="fill:#808080;"/>
   </g>
   <g id="patch_98">
    <path clip-path="url(#p174185f2b7)" d="M 216.174862 156.135249 
L 218.977546 156.135249 
L 218.977546 155.048347 
L 216.174862 155.048347 
z
" style="fill:#808080;"/>
   </g>
   <g id="patch_99">
    <path clip-path="url(#p174185f2b7)" d="M 219.678218 156.135249 
L 222.480902 156.135249 
L 222.480902 155.188593 
L 219.678218 155.188593 
z
" style="fill:#808080;"/>
   </g>
   <g id="patch_100">
    <path clip-path="url(#p174185f2b7)" d="M 223.181574 156.135249 
L 225.984258 156.135249 
L 225.984258 154.837979 
L 223.181574 154.837979 
z
" style="fill:#808080;"/>
   </g>
   <g id="patch_101">
    <path clip-path="url(#p174185f2b7)" d="M 226.68493 156.135249 
L 229.487614 156.135249 
L 229.487614 154.873041 
L 226.68493 154.873041 
z
" style="fill:#808080;"/>
   </g>
   <g id="patch_102">
    <path clip-path="url(#p174185f2b7)" d="M 230.188285 156.135249 
L 232.99097 156.135249 
L 232.99097 154.978225 
L 230.188285 154.978225 
z
" style="fill:#808080;"/>
   </g>
   <g id="matplotlib.axis_1">
    <g id="xtick_1">
     <g id="line2d_1">
      <defs>
       <path d="M 0 0 
L 0 3.5 
" id="m5c11d1d6d8" style="stroke:#000000;stroke-width:0.8;"/>
      </defs>
      <g>
       <use style="stroke:#000000;stroke-width:0.8;" x="58.17" xlink:href="#m5c11d1d6d8" y="157.135249"/>
      </g>
     </g>
     <g id="text_1">
      <!-- 0 -->
      <defs>
       <path d="M 31.78125 66.40625 
Q 24.171875 66.40625 20.328125 58.90625 
Q 16.5 51.421875 16.5 36.375 
Q 16.5 21.390625 20.328125 13.890625 
Q 24.171875 6.390625 31.78125 6.390625 
Q 39.453125 6.390625 43.28125 13.890625 
Q 47.125 21.390625 47.125 36.375 
Q 47.125 51.421875 43.28125 58.90625 
Q 39.453125 66.40625 31.78125 66.40625 
z
M 31.78125 74.21875 
Q 44.046875 74.21875 50.515625 64.515625 
Q 56.984375 54.828125 56.984375 36.375 
Q 56.984375 17.96875 50.515625 8.265625 
Q 44.046875 -1.421875 31.78125 -1.421875 
Q 19.53125 -1.421875 13.0625 8.265625 
Q 6.59375 17.96875 6.59375 36.375 
Q 6.59375 54.828125 13.0625 64.515625 
Q 19.53125 74.21875 31.78125 74.21875 
z
" id="DejaVuSans-48"/>
      </defs>
      <g transform="translate(54.98875 171.733687)scale(0.1 -0.1)">
       <use xlink:href="#DejaVuSans-48"/>
      </g>
     </g>
    </g>
    <g id="xtick_2">
     <g id="line2d_2">
      <g>
       <use style="stroke:#000000;stroke-width:0.8;" x="93.259" xlink:href="#m5c11d1d6d8" y="157.135249"/>
      </g>
     </g>
     <g id="text_2">
      <!-- 1 -->
      <defs>
       <path d="M 12.40625 8.296875 
L 28.515625 8.296875 
L 28.515625 63.921875 
L 10.984375 60.40625 
L 10.984375 69.390625 
L 28.421875 72.90625 
L 38.28125 72.90625 
L 38.28125 8.296875 
L 54.390625 8.296875 
L 54.390625 0 
L 12.40625 0 
z
" id="DejaVuSans-49"/>
      </defs>
      <g transform="translate(90.07775 171.733687)scale(0.1 -0.1)">
       <use xlink:href="#DejaVuSans-49"/>
      </g>
     </g>
    </g>
    <g id="xtick_3">
     <g id="line2d_3">
      <g>
       <use style="stroke:#000000;stroke-width:0.8;" x="128.348" xlink:href="#m5c11d1d6d8" y="157.135249"/>
      </g>
     </g>
     <g id="text_3">
      <!-- 2 -->
      <defs>
       <path d="M 19.1875 8.296875 
L 53.609375 8.296875 
L 53.609375 0 
L 7.328125 0 
L 7.328125 8.296875 
Q 12.9375 14.109375 22.625 23.890625 
Q 32.328125 33.6875 34.8125 36.53125 
Q 39.546875 41.84375 41.421875 45.53125 
Q 43.3125 49.21875 43.3125 52.78125 
Q 43.3125 58.59375 39.234375 62.25 
Q 35.15625 65.921875 28.609375 65.921875 
Q 23.96875 65.921875 18.8125 64.3125 
Q 13.671875 62.703125 7.8125 59.421875 
L 7.8125 69.390625 
Q 13.765625 71.78125 18.9375 73 
Q 24.125 74.21875 28.421875 74.21875 
Q 39.75 74.21875 46.484375 68.546875 
Q 53.21875 62.890625 53.21875 53.421875 
Q 53.21875 48.921875 51.53125 44.890625 
Q 49.859375 40.875 45.40625 35.40625 
Q 44.1875 33.984375 37.640625 27.21875 
Q 31.109375 20.453125 19.1875 8.296875 
z
" id="DejaVuSans-50"/>
      </defs>
      <g transform="translate(125.16675 171.733687)scale(0.1 -0.1)">
       <use xlink:href="#DejaVuSans-50"/>
      </g>
     </g>
    </g>
    <g id="xtick_4">
     <g id="line2d_4">
      <g>
       <use style="stroke:#000000;stroke-width:0.8;" x="163.437" xlink:href="#m5c11d1d6d8" y="157.135249"/>
      </g>
     </g>
     <g id="text_4">
      <!-- 3 -->
      <defs>
       <path d="M 40.578125 39.3125 
Q 47.65625 37.796875 51.625 33 
Q 55.609375 28.21875 55.609375 21.1875 
Q 55.609375 10.40625 48.1875 4.484375 
Q 40.765625 -1.421875 27.09375 -1.421875 
Q 22.515625 -1.421875 17.65625 -0.515625 
Q 12.796875 0.390625 7.625 2.203125 
L 7.625 11.71875 
Q 11.71875 9.328125 16.59375 8.109375 
Q 21.484375 6.890625 26.8125 6.890625 
Q 36.078125 6.890625 40.9375 10.546875 
Q 45.796875 14.203125 45.796875 21.1875 
Q 45.796875 27.640625 41.28125 31.265625 
Q 36.765625 34.90625 28.71875 34.90625 
L 20.21875 34.90625 
L 20.21875 43.015625 
L 29.109375 43.015625 
Q 36.375 43.015625 40.234375 45.921875 
Q 44.09375 48.828125 44.09375 54.296875 
Q 44.09375 59.90625 40.109375 62.90625 
Q 36.140625 65.921875 28.71875 65.921875 
Q 24.65625 65.921875 20.015625 65.03125 
Q 15.375 64.15625 9.8125 62.3125 
L 9.8125 71.09375 
Q 15.4375 72.65625 20.34375 73.4375 
Q 25.25 74.21875 29.59375 74.21875 
Q 40.828125 74.21875 47.359375 69.109375 
Q 53.90625 64.015625 53.90625 55.328125 
Q 53.90625 49.265625 50.4375 45.09375 
Q 46.96875 40.921875 40.578125 39.3125 
z
" id="DejaVuSans-51"/>
      </defs>
      <g transform="translate(160.25575 171.733687)scale(0.1 -0.1)">
       <use xlink:href="#DejaVuSans-51"/>
      </g>
     </g>
    </g>
    <g id="xtick_5">
     <g id="line2d_5">
      <g>
       <use style="stroke:#000000;stroke-width:0.8;" x="198.526" xlink:href="#m5c11d1d6d8" y="157.135249"/>
      </g>
     </g>
     <g id="text_5">
      <!-- 4 -->
      <defs>
       <path d="M 37.796875 64.3125 
L 12.890625 25.390625 
L 37.796875 25.390625 
z
M 35.203125 72.90625 
L 47.609375 72.90625 
L 47.609375 25.390625 
L 58.015625 25.390625 
L 58.015625 17.1875 
L 47.609375 17.1875 
L 47.609375 0 
L 37.796875 0 
L 37.796875 17.1875 
L 4.890625 17.1875 
L 4.890625 26.703125 
z
" id="DejaVuSans-52"/>
      </defs>
      <g transform="translate(195.34475 171.733687)scale(0.1 -0.1)">
       <use xlink:href="#DejaVuSans-52"/>
      </g>
     </g>
    </g>
    <g id="xtick_6">
     <g id="line2d_6">
      <g>
       <use style="stroke:#000000;stroke-width:0.8;" x="233.615" xlink:href="#m5c11d1d6d8" y="157.135249"/>
      </g>
     </g>
     <g id="text_6">
      <!-- 5 -->
      <defs>
       <path d="M 10.796875 72.90625 
L 49.515625 72.90625 
L 49.515625 64.59375 
L 19.828125 64.59375 
L 19.828125 46.734375 
Q 21.96875 47.46875 24.109375 47.828125 
Q 26.265625 48.1875 28.421875 48.1875 
Q 40.625 48.1875 47.75 41.5 
Q 54.890625 34.8125 54.890625 23.390625 
Q 54.890625 11.625 47.5625 5.09375 
Q 40.234375 -1.421875 26.90625 -1.421875 
Q 22.3125 -1.421875 17.546875 -0.640625 
Q 12.796875 0.140625 7.71875 1.703125 
L 7.71875 11.625 
Q 12.109375 9.234375 16.796875 8.0625 
Q 21.484375 6.890625 26.703125 6.890625 
Q 35.15625 6.890625 40.078125 11.328125 
Q 45.015625 15.765625 45.015625 23.390625 
Q 45.015625 31 40.078125 35.4375 
Q 35.15625 39.890625 26.703125 39.890625 
Q 22.75 39.890625 18.8125 39.015625 
Q 14.890625 38.140625 10.796875 36.28125 
z
" id="DejaVuSans-53"/>
      </defs>
      <g transform="translate(230.43375 171.733687)scale(0.1 -0.1)">
       <use xlink:href="#DejaVuSans-53"/>
      </g>
     </g>
    </g>
    <g id="text_7">
     <!-- $K_\mathrm{S}$ -->
     <defs>
      <path d="M 16.890625 72.90625 
L 26.8125 72.90625 
L 20.796875 42.1875 
L 59.078125 72.90625 
L 72.21875 72.90625 
L 28.90625 38.09375 
L 60.59375 0 
L 48.578125 0 
L 19.484375 35.5 
L 12.59375 0 
L 2.6875 0 
z
" id="DejaVuSans-Oblique-75"/>
      <path d="M 53.515625 70.515625 
L 53.515625 60.890625 
Q 47.90625 63.578125 42.921875 64.890625 
Q 37.9375 66.21875 33.296875 66.21875 
Q 25.25 66.21875 20.875 63.09375 
Q 16.5 59.96875 16.5 54.203125 
Q 16.5 49.359375 19.40625 46.890625 
Q 22.3125 44.4375 30.421875 42.921875 
L 36.375 41.703125 
Q 47.40625 39.59375 52.65625 34.296875 
Q 57.90625 29 57.90625 20.125 
Q 57.90625 9.515625 50.796875 4.046875 
Q 43.703125 -1.421875 29.984375 -1.421875 
Q 24.8125 -1.421875 18.96875 -0.25 
Q 13.140625 0.921875 6.890625 3.21875 
L 6.890625 13.375 
Q 12.890625 10.015625 18.65625 8.296875 
Q 24.421875 6.59375 29.984375 6.59375 
Q 38.421875 6.59375 43.015625 9.90625 
Q 47.609375 13.234375 47.609375 19.390625 
Q 47.609375 24.75 44.3125 27.78125 
Q 41.015625 30.8125 33.5 32.328125 
L 27.484375 33.5 
Q 16.453125 35.6875 11.515625 40.375 
Q 6.59375 45.0625 6.59375 53.421875 
Q 6.59375 63.09375 13.40625 68.65625 
Q 20.21875 74.21875 32.171875 74.21875 
Q 37.3125 74.21875 42.625 73.28125 
Q 47.953125 72.359375 53.515625 70.515625 
z
" id="DejaVuSans-83"/>
     </defs>
     <g transform="translate(140.2425 185.411812)scale(0.1 -0.1)">
      <use transform="translate(0 0.09375)" xlink:href="#DejaVuSans-Oblique-75"/>
      <use transform="translate(65.576172 -16.3125)scale(0.7)" xlink:href="#DejaVuSans-83"/>
     </g>
    </g>
   </g>
   <g id="matplotlib.axis_2">
    <g id="ytick_1">
     <g id="line2d_7">
      <defs>
       <path d="M 0 0 
L -3.5 0 
" id="ma4a37122fb" style="stroke:#000000;stroke-width:0.8;"/>
      </defs>
      <g>
       <use style="stroke:#000000;stroke-width:0.8;" x="57.17" xlink:href="#ma4a37122fb" y="156.135249"/>
      </g>
     </g>
     <g id="text_8">
      <!-- 0 -->
      <g transform="translate(43.8075 159.934468)scale(0.1 -0.1)">
       <use xlink:href="#DejaVuSans-48"/>
      </g>
     </g>
    </g>
    <g id="ytick_2">
     <g id="line2d_8">
      <g>
       <use style="stroke:#000000;stroke-width:0.8;" x="57.17" xlink:href="#ma4a37122fb" y="121.073898"/>
      </g>
     </g>
     <g id="text_9">
      <!-- 1000 -->
      <g transform="translate(24.72 124.873116)scale(0.1 -0.1)">
       <use xlink:href="#DejaVuSans-49"/>
       <use x="63.623047" xlink:href="#DejaVuSans-48"/>
       <use x="127.246094" xlink:href="#DejaVuSans-48"/>
       <use x="190.869141" xlink:href="#DejaVuSans-48"/>
      </g>
     </g>
    </g>
    <g id="ytick_3">
     <g id="line2d_9">
      <g>
       <use style="stroke:#000000;stroke-width:0.8;" x="57.17" xlink:href="#ma4a37122fb" y="86.012546"/>
      </g>
     </g>
     <g id="text_10">
      <!-- 2000 -->
      <g transform="translate(24.72 89.811765)scale(0.1 -0.1)">
       <use xlink:href="#DejaVuSans-50"/>
       <use x="63.623047" xlink:href="#DejaVuSans-48"/>
       <use x="127.246094" xlink:href="#DejaVuSans-48"/>
       <use x="190.869141" xlink:href="#DejaVuSans-48"/>
      </g>
     </g>
    </g>
    <g id="text_11">
     <!-- Duplications -->
     <defs>
      <path d="M 19.671875 64.796875 
L 19.671875 8.109375 
L 31.59375 8.109375 
Q 46.6875 8.109375 53.6875 14.9375 
Q 60.6875 21.78125 60.6875 36.53125 
Q 60.6875 51.171875 53.6875 57.984375 
Q 46.6875 64.796875 31.59375 64.796875 
z
M 9.8125 72.90625 
L 30.078125 72.90625 
Q 51.265625 72.90625 61.171875 64.09375 
Q 71.09375 55.28125 71.09375 36.53125 
Q 71.09375 17.671875 61.125 8.828125 
Q 51.171875 0 30.078125 0 
L 9.8125 0 
z
" id="DejaVuSans-68"/>
      <path d="M 8.5 21.578125 
L 8.5 54.6875 
L 17.484375 54.6875 
L 17.484375 21.921875 
Q 17.484375 14.15625 20.5 10.265625 
Q 23.53125 6.390625 29.59375 6.390625 
Q 36.859375 6.390625 41.078125 11.03125 
Q 45.3125 15.671875 45.3125 23.6875 
L 45.3125 54.6875 
L 54.296875 54.6875 
L 54.296875 0 
L 45.3125 0 
L 45.3125 8.40625 
Q 42.046875 3.421875 37.71875 1 
Q 33.40625 -1.421875 27.6875 -1.421875 
Q 18.265625 -1.421875 13.375 4.4375 
Q 8.5 10.296875 8.5 21.578125 
z
M 31.109375 56 
z
" id="DejaVuSans-117"/>
      <path d="M 18.109375 8.203125 
L 18.109375 -20.796875 
L 9.078125 -20.796875 
L 9.078125 54.6875 
L 18.109375 54.6875 
L 18.109375 46.390625 
Q 20.953125 51.265625 25.265625 53.625 
Q 29.59375 56 35.59375 56 
Q 45.5625 56 51.78125 48.09375 
Q 58.015625 40.1875 58.015625 27.296875 
Q 58.015625 14.40625 51.78125 6.484375 
Q 45.5625 -1.421875 35.59375 -1.421875 
Q 29.59375 -1.421875 25.265625 0.953125 
Q 20.953125 3.328125 18.109375 8.203125 
z
M 48.6875 27.296875 
Q 48.6875 37.203125 44.609375 42.84375 
Q 40.53125 48.484375 33.40625 48.484375 
Q 26.265625 48.484375 22.1875 42.84375 
Q 18.109375 37.203125 18.109375 27.296875 
Q 18.109375 17.390625 22.1875 11.75 
Q 26.265625 6.109375 33.40625 6.109375 
Q 40.53125 6.109375 44.609375 11.75 
Q 48.6875 17.390625 48.6875 27.296875 
z
" id="DejaVuSans-112"/>
      <path d="M 9.421875 75.984375 
L 18.40625 75.984375 
L 18.40625 0 
L 9.421875 0 
z
" id="DejaVuSans-108"/>
      <path d="M 9.421875 54.6875 
L 18.40625 54.6875 
L 18.40625 0 
L 9.421875 0 
z
M 9.421875 75.984375 
L 18.40625 75.984375 
L 18.40625 64.59375 
L 9.421875 64.59375 
z
" id="DejaVuSans-105"/>
      <path d="M 48.78125 52.59375 
L 48.78125 44.1875 
Q 44.96875 46.296875 41.140625 47.34375 
Q 37.3125 48.390625 33.40625 48.390625 
Q 24.65625 48.390625 19.8125 42.84375 
Q 14.984375 37.3125 14.984375 27.296875 
Q 14.984375 17.28125 19.8125 11.734375 
Q 24.65625 6.203125 33.40625 6.203125 
Q 37.3125 6.203125 41.140625 7.25 
Q 44.96875 8.296875 48.78125 10.40625 
L 48.78125 2.09375 
Q 45.015625 0.34375 40.984375 -0.53125 
Q 36.96875 -1.421875 32.421875 -1.421875 
Q 20.0625 -1.421875 12.78125 6.34375 
Q 5.515625 14.109375 5.515625 27.296875 
Q 5.515625 40.671875 12.859375 48.328125 
Q 20.21875 56 33.015625 56 
Q 37.15625 56 41.109375 55.140625 
Q 45.0625 54.296875 48.78125 52.59375 
z
" id="DejaVuSans-99"/>
      <path d="M 34.28125 27.484375 
Q 23.390625 27.484375 19.1875 25 
Q 14.984375 22.515625 14.984375 16.5 
Q 14.984375 11.71875 18.140625 8.90625 
Q 21.296875 6.109375 26.703125 6.109375 
Q 34.1875 6.109375 38.703125 11.40625 
Q 43.21875 16.703125 43.21875 25.484375 
L 43.21875 27.484375 
z
M 52.203125 31.203125 
L 52.203125 0 
L 43.21875 0 
L 43.21875 8.296875 
Q 40.140625 3.328125 35.546875 0.953125 
Q 30.953125 -1.421875 24.3125 -1.421875 
Q 15.921875 -1.421875 10.953125 3.296875 
Q 6 8.015625 6 15.921875 
Q 6 25.140625 12.171875 29.828125 
Q 18.359375 34.515625 30.609375 34.515625 
L 43.21875 34.515625 
L 43.21875 35.40625 
Q 43.21875 41.609375 39.140625 45 
Q 35.0625 48.390625 27.6875 48.390625 
Q 23 48.390625 18.546875 47.265625 
Q 14.109375 46.140625 10.015625 43.890625 
L 10.015625 52.203125 
Q 14.9375 54.109375 19.578125 55.046875 
Q 24.21875 56 28.609375 56 
Q 40.484375 56 46.34375 49.84375 
Q 52.203125 43.703125 52.203125 31.203125 
z
" id="DejaVuSans-97"/>
      <path d="M 18.3125 70.21875 
L 18.3125 54.6875 
L 36.8125 54.6875 
L 36.8125 47.703125 
L 18.3125 47.703125 
L 18.3125 18.015625 
Q 18.3125 11.328125 20.140625 9.421875 
Q 21.96875 7.515625 27.59375 7.515625 
L 36.8125 7.515625 
L 36.8125 0 
L 27.59375 0 
Q 17.1875 0 13.234375 3.875 
Q 9.28125 7.765625 9.28125 18.015625 
L 9.28125 47.703125 
L 2.6875 47.703125 
L 2.6875 54.6875 
L 9.28125 54.6875 
L 9.28125 70.21875 
z
" id="DejaVuSans-116"/>
      <path d="M 30.609375 48.390625 
Q 23.390625 48.390625 19.1875 42.75 
Q 14.984375 37.109375 14.984375 27.296875 
Q 14.984375 17.484375 19.15625 11.84375 
Q 23.34375 6.203125 30.609375 6.203125 
Q 37.796875 6.203125 41.984375 11.859375 
Q 46.1875 17.53125 46.1875 27.296875 
Q 46.1875 37.015625 41.984375 42.703125 
Q 37.796875 48.390625 30.609375 48.390625 
z
M 30.609375 56 
Q 42.328125 56 49.015625 48.375 
Q 55.71875 40.765625 55.71875 27.296875 
Q 55.71875 13.875 49.015625 6.21875 
Q 42.328125 -1.421875 30.609375 -1.421875 
Q 18.84375 -1.421875 12.171875 6.21875 
Q 5.515625 13.875 5.515625 27.296875 
Q 5.515625 40.765625 12.171875 48.375 
Q 18.84375 56 30.609375 56 
z
" id="DejaVuSans-111"/>
      <path d="M 54.890625 33.015625 
L 54.890625 0 
L 45.90625 0 
L 45.90625 32.71875 
Q 45.90625 40.484375 42.875 44.328125 
Q 39.84375 48.1875 33.796875 48.1875 
Q 26.515625 48.1875 22.3125 43.546875 
Q 18.109375 38.921875 18.109375 30.90625 
L 18.109375 0 
L 9.078125 0 
L 9.078125 54.6875 
L 18.109375 54.6875 
L 18.109375 46.1875 
Q 21.34375 51.125 25.703125 53.5625 
Q 30.078125 56 35.796875 56 
Q 45.21875 56 50.046875 50.171875 
Q 54.890625 44.34375 54.890625 33.015625 
z
" id="DejaVuSans-110"/>
      <path d="M 44.28125 53.078125 
L 44.28125 44.578125 
Q 40.484375 46.53125 36.375 47.5 
Q 32.28125 48.484375 27.875 48.484375 
Q 21.1875 48.484375 17.84375 46.4375 
Q 14.5 44.390625 14.5 40.28125 
Q 14.5 37.15625 16.890625 35.375 
Q 19.28125 33.59375 26.515625 31.984375 
L 29.59375 31.296875 
Q 39.15625 29.25 43.1875 25.515625 
Q 47.21875 21.78125 47.21875 15.09375 
Q 47.21875 7.46875 41.1875 3.015625 
Q 35.15625 -1.421875 24.609375 -1.421875 
Q 20.21875 -1.421875 15.453125 -0.5625 
Q 10.6875 0.296875 5.421875 2 
L 5.421875 11.28125 
Q 10.40625 8.6875 15.234375 7.390625 
Q 20.0625 6.109375 24.8125 6.109375 
Q 31.15625 6.109375 34.5625 8.28125 
Q 37.984375 10.453125 37.984375 14.40625 
Q 37.984375 18.0625 35.515625 20.015625 
Q 33.0625 21.96875 24.703125 23.78125 
L 21.578125 24.515625 
Q 13.234375 26.265625 9.515625 29.90625 
Q 5.8125 33.546875 5.8125 39.890625 
Q 5.8125 47.609375 11.28125 51.796875 
Q 16.75 56 26.8125 56 
Q 31.78125 56 36.171875 55.265625 
Q 40.578125 54.546875 44.28125 53.078125 
z
" id="DejaVuSans-115"/>
     </defs>
     <g transform="translate(18.640313 134.954031)rotate(-90)scale(0.1 -0.1)">
      <use xlink:href="#DejaVuSans-68"/>
      <use x="77.001953" xlink:href="#DejaVuSans-117"/>
      <use x="140.380859" xlink:href="#DejaVuSans-112"/>
      <use x="203.857422" xlink:href="#DejaVuSans-108"/>
      <use x="231.640625" xlink:href="#DejaVuSans-105"/>
      <use x="259.423828" xlink:href="#DejaVuSans-99"/>
      <use x="314.404297" xlink:href="#DejaVuSans-97"/>
      <use x="375.683594" xlink:href="#DejaVuSans-116"/>
      <use x="414.892578" xlink:href="#DejaVuSans-105"/>
      <use x="442.675781" xlink:href="#DejaVuSans-111"/>
      <use x="503.857422" xlink:href="#DejaVuSans-110"/>
      <use x="567.236328" xlink:href="#DejaVuSans-115"/>
     </g>
    </g>
   </g>
   <g id="patch_103">
    <path d="M 57.17 156.135249 
L 57.17 51.84 
" style="fill:none;stroke:#000000;stroke-linecap:square;stroke-linejoin:miter;stroke-width:0.8;"/>
   </g>
   <g id="patch_104">
    <path d="M 58.17 157.135249 
L 233.615 157.135249 
" style="fill:none;stroke:#000000;stroke-linecap:square;stroke-linejoin:miter;stroke-width:0.8;"/>
   </g>
  </g>
  <g id="axes_2">
   <g id="patch_105">
    <path d="M 274.555 156.135249 
L 450 156.135249 
L 450 51.84 
L 274.555 51.84 
z
" style="fill:#ffffff;"/>
   </g>
   <g id="patch_106">
    <path clip-path="url(#p2d8dffc2dc)" d="M 282.529773 156.135249 
L 285.091949 156.135249 
L 285.091949 124.032782 
L 282.529773 124.032782 
z
" style="fill:#808080;"/>
   </g>
   <g id="patch_107">
    <path clip-path="url(#p2d8dffc2dc)" d="M 285.732493 156.135249 
L 288.294669 156.135249 
L 288.294669 155.757573 
L 285.732493 155.757573 
z
" style="fill:#808080;"/>
   </g>
   <g id="patch_108">
    <path clip-path="url(#p2d8dffc2dc)" d="M 288.935213 156.135249 
L 291.497389 156.135249 
L 291.497389 155.946411 
L 288.935213 155.946411 
z
" style="fill:#808080;"/>
   </g>
   <g id="patch_109">
    <path clip-path="url(#p2d8dffc2dc)" d="M 292.137933 156.135249 
L 294.700109 156.135249 
L 294.700109 143.294262 
L 292.137933 143.294262 
z
" style="fill:#808080;"/>
   </g>
   <g id="patch_110">
    <path clip-path="url(#p2d8dffc2dc)" d="M 295.340653 156.135249 
L 297.902829 156.135249 
L 297.902829 152.736164 
L 295.340653 152.736164 
z
" style="fill:#808080;"/>
   </g>
   <g id="patch_111">
    <path clip-path="url(#p2d8dffc2dc)" d="M 298.543373 156.135249 
L 301.105549 156.135249 
L 301.105549 155.946411 
L 298.543373 155.946411 
z
" style="fill:#808080;"/>
   </g>
   <g id="patch_112">
    <path clip-path="url(#p2d8dffc2dc)" d="M 301.746093 156.135249 
L 304.308269 156.135249 
L 304.308269 148.39289 
L 301.746093 148.39289 
z
" style="fill:#808080;"/>
   </g>
   <g id="patch_113">
    <path clip-path="url(#p2d8dffc2dc)" d="M 304.948813 156.135249 
L 307.510988 156.135249 
L 307.510988 154.246869 
L 304.948813 154.246869 
z
" style="fill:#808080;"/>
   </g>
   <g id="patch_114">
    <path clip-path="url(#p2d8dffc2dc)" d="M 308.151532 156.135249 
L 310.713708 156.135249 
L 310.713708 155.568735 
L 308.151532 155.568735 
z
" style="fill:#808080;"/>
   </g>
   <g id="patch_115">
    <path clip-path="url(#p2d8dffc2dc)" d="M 311.354252 156.135249 
L 313.916428 156.135249 
L 313.916428 153.302679 
L 311.354252 153.302679 
z
" style="fill:#808080;"/>
   </g>
   <g id="patch_116">
    <path clip-path="url(#p2d8dffc2dc)" d="M 314.556972 156.135249 
L 317.119148 156.135249 
L 317.119148 155.002221 
L 314.556972 155.002221 
z
" style="fill:#808080;"/>
   </g>
   <g id="patch_117">
    <path clip-path="url(#p2d8dffc2dc)" d="M 317.759692 156.135249 
L 320.321868 156.135249 
L 320.321868 154.246869 
L 317.759692 154.246869 
z
" style="fill:#808080;"/>
   </g>
   <g id="patch_118">
    <path clip-path="url(#p2d8dffc2dc)" d="M 320.962412 156.135249 
L 323.524588 156.135249 
L 323.524588 154.435707 
L 320.962412 154.435707 
z
" style="fill:#808080;"/>
   </g>
   <g id="patch_119">
    <path clip-path="url(#p2d8dffc2dc)" d="M 324.165132 156.135249 
L 326.727308 156.135249 
L 326.727308 154.624545 
L 324.165132 154.624545 
z
" style="fill:#808080;"/>
   </g>
   <g id="patch_120">
    <path clip-path="url(#p2d8dffc2dc)" d="M 327.367852 156.135249 
L 329.930028 156.135249 
L 329.930028 151.22546 
L 327.367852 151.22546 
z
" style="fill:#808080;"/>
   </g>
   <g id="patch_121">
    <path clip-path="url(#p2d8dffc2dc)" d="M 330.570572 156.135249 
L 333.132748 156.135249 
L 333.132748 151.603136 
L 330.570572 151.603136 
z
" style="fill:#808080;"/>
   </g>
   <g id="patch_122">
    <path clip-path="url(#p2d8dffc2dc)" d="M 333.773292 156.135249 
L 336.335468 156.135249 
L 336.335468 146.693347 
L 333.773292 146.693347 
z
" style="fill:#808080;"/>
   </g>
   <g id="patch_123">
    <path clip-path="url(#p2d8dffc2dc)" d="M 336.976012 156.135249 
L 339.538188 156.135249 
L 339.538188 145.371481 
L 336.976012 145.371481 
z
" style="fill:#808080;"/>
   </g>
   <g id="patch_124">
    <path clip-path="url(#p2d8dffc2dc)" d="M 340.178732 156.135249 
L 342.740908 156.135249 
L 342.740908 140.084016 
L 340.178732 140.084016 
z
" style="fill:#808080;"/>
   </g>
   <g id="patch_125">
    <path clip-path="url(#p2d8dffc2dc)" d="M 343.381452 156.135249 
L 345.943628 156.135249 
L 345.943628 135.929579 
L 343.381452 135.929579 
z
" style="fill:#808080;"/>
   </g>
   <g id="patch_126">
    <path clip-path="url(#p2d8dffc2dc)" d="M 346.584172 156.135249 
L 349.146348 156.135249 
L 349.146348 131.397466 
L 346.584172 131.397466 
z
" style="fill:#808080;"/>
   </g>
   <g id="patch_127">
    <path clip-path="url(#p2d8dffc2dc)" d="M 349.786892 156.135249 
L 352.349068 156.135249 
L 352.349068 127.431867 
L 349.786892 127.431867 
z
" style="fill:#808080;"/>
   </g>
   <g id="patch_128">
    <path clip-path="url(#p2d8dffc2dc)" d="M 352.989612 156.135249 
L 355.551788 156.135249 
L 355.551788 125.921163 
L 352.989612 125.921163 
z
" style="fill:#808080;"/>
   </g>
   <g id="patch_129">
    <path clip-path="url(#p2d8dffc2dc)" d="M 356.192332 156.135249 
L 358.754508 156.135249 
L 358.754508 119.689508 
L 356.192332 119.689508 
z
" style="fill:#808080;"/>
   </g>
   <g id="patch_130">
    <path clip-path="url(#p2d8dffc2dc)" d="M 359.395052 156.135249 
L 361.957228 156.135249 
L 361.957228 116.668099 
L 359.395052 116.668099 
z
" style="fill:#808080;"/>
   </g>
   <g id="patch_131">
    <path clip-path="url(#p2d8dffc2dc)" d="M 362.597772 156.135249 
L 365.159948 156.135249 
L 365.159948 114.59088 
L 362.597772 114.59088 
z
" style="fill:#808080;"/>
   </g>
   <g id="patch_132">
    <path clip-path="url(#p2d8dffc2dc)" d="M 365.800492 156.135249 
L 368.362668 156.135249 
L 368.362668 111.569472 
L 365.800492 111.569472 
z
" style="fill:#808080;"/>
   </g>
   <g id="patch_133">
    <path clip-path="url(#p2d8dffc2dc)" d="M 369.003212 156.135249 
L 371.565388 156.135249 
L 371.565388 102.505246 
L 369.003212 102.505246 
z
" style="fill:#808080;"/>
   </g>
   <g id="patch_134">
    <path clip-path="url(#p2d8dffc2dc)" d="M 372.205932 156.135249 
L 374.768108 156.135249 
L 374.768108 103.449436 
L 372.205932 103.449436 
z
" style="fill:#808080;"/>
   </g>
   <g id="patch_135">
    <path clip-path="url(#p2d8dffc2dc)" d="M 375.408652 156.135249 
L 377.970828 156.135249 
L 377.970828 107.415035 
L 375.408652 107.415035 
z
" style="fill:#808080;"/>
   </g>
   <g id="patch_136">
    <path clip-path="url(#p2d8dffc2dc)" d="M 378.611372 156.135249 
L 381.173548 156.135249 
L 381.173548 105.337817 
L 378.611372 105.337817 
z
" style="fill:#808080;"/>
   </g>
   <g id="patch_137">
    <path clip-path="url(#p2d8dffc2dc)" d="M 381.814092 156.135249 
L 384.376268 156.135249 
L 384.376268 105.148979 
L 381.814092 105.148979 
z
" style="fill:#808080;"/>
   </g>
   <g id="patch_138">
    <path clip-path="url(#p2d8dffc2dc)" d="M 385.016812 156.135249 
L 387.578988 156.135249 
L 387.578988 113.457852 
L 385.016812 113.457852 
z
" style="fill:#808080;"/>
   </g>
   <g id="patch_139">
    <path clip-path="url(#p2d8dffc2dc)" d="M 388.219532 156.135249 
L 390.781708 156.135249 
L 390.781708 117.045775 
L 388.219532 117.045775 
z
" style="fill:#808080;"/>
   </g>
   <g id="patch_140">
    <path clip-path="url(#p2d8dffc2dc)" d="M 391.422252 156.135249 
L 393.984428 156.135249 
L 393.984428 111.191796 
L 391.422252 111.191796 
z
" style="fill:#808080;"/>
   </g>
   <g id="patch_141">
    <path clip-path="url(#p2d8dffc2dc)" d="M 394.624972 156.135249 
L 397.187148 156.135249 
L 397.187148 109.681091 
L 394.624972 109.681091 
z
" style="fill:#808080;"/>
   </g>
   <g id="patch_142">
    <path clip-path="url(#p2d8dffc2dc)" d="M 397.827692 156.135249 
L 400.389868 156.135249 
L 400.389868 99.861513 
L 397.827692 99.861513 
z
" style="fill:#808080;"/>
   </g>
   <g id="patch_143">
    <path clip-path="url(#p2d8dffc2dc)" d="M 401.030412 156.135249 
L 403.592588 156.135249 
L 403.592588 90.419611 
L 401.030412 90.419611 
z
" style="fill:#808080;"/>
   </g>
   <g id="patch_144">
    <path clip-path="url(#p2d8dffc2dc)" d="M 404.233132 156.135249 
L 406.795308 156.135249 
L 406.795308 69.080913 
L 404.233132 69.080913 
z
" style="fill:#808080;"/>
   </g>
   <g id="patch_145">
    <path clip-path="url(#p2d8dffc2dc)" d="M 407.435852 156.135249 
L 409.998028 156.135249 
L 409.998028 56.80644 
L 407.435852 56.80644 
z
" style="fill:#808080;"/>
   </g>
   <g id="patch_146">
    <path clip-path="url(#p2d8dffc2dc)" d="M 410.638572 156.135249 
L 413.200748 156.135249 
L 413.200748 70.969293 
L 410.638572 70.969293 
z
" style="fill:#808080;"/>
   </g>
   <g id="patch_147">
    <path clip-path="url(#p2d8dffc2dc)" d="M 413.841292 156.135249 
L 416.403468 156.135249 
L 416.403468 80.222357 
L 413.841292 80.222357 
z
" style="fill:#808080;"/>
   </g>
   <g id="patch_148">
    <path clip-path="url(#p2d8dffc2dc)" d="M 417.044012 156.135249 
L 419.606187 156.135249 
L 419.606187 86.265175 
L 417.044012 86.265175 
z
" style="fill:#808080;"/>
   </g>
   <g id="patch_149">
    <path clip-path="url(#p2d8dffc2dc)" d="M 420.246731 156.135249 
L 422.808907 156.135249 
L 422.808907 68.703237 
L 420.246731 68.703237 
z
" style="fill:#808080;"/>
   </g>
   <g id="patch_150">
    <path clip-path="url(#p2d8dffc2dc)" d="M 423.449451 156.135249 
L 426.011627 156.135249 
L 426.011627 68.703237 
L 423.449451 68.703237 
z
" style="fill:#808080;"/>
   </g>
   <g id="patch_151">
    <path clip-path="url(#p2d8dffc2dc)" d="M 426.652171 156.135249 
L 429.214347 156.135249 
L 429.214347 77.578625 
L 426.652171 77.578625 
z
" style="fill:#808080;"/>
   </g>
   <g id="patch_152">
    <path clip-path="url(#p2d8dffc2dc)" d="M 429.854891 156.135249 
L 432.417067 156.135249 
L 432.417067 92.119154 
L 429.854891 92.119154 
z
" style="fill:#808080;"/>
   </g>
   <g id="patch_153">
    <path clip-path="url(#p2d8dffc2dc)" d="M 433.057611 156.135249 
L 435.619787 156.135249 
L 435.619787 156.135249 
L 433.057611 156.135249 
z
" style="fill:#808080;"/>
   </g>
   <g id="patch_154">
    <path clip-path="url(#p2d8dffc2dc)" d="M 436.260331 156.135249 
L 438.822507 156.135249 
L 438.822507 156.135249 
L 436.260331 156.135249 
z
" style="fill:#808080;"/>
   </g>
   <g id="patch_155">
    <path clip-path="url(#p2d8dffc2dc)" d="M 439.463051 156.135249 
L 442.025227 156.135249 
L 442.025227 156.135249 
L 439.463051 156.135249 
z
" style="fill:#808080;"/>
   </g>
   <g id="matplotlib.axis_3">
    <g id="xtick_7">
     <g id="line2d_10">
      <g>
       <use style="stroke:#000000;stroke-width:0.8;" x="282.209501" xlink:href="#m5c11d1d6d8" y="157.135249"/>
      </g>
     </g>
     <g id="text_12">
      <!-- −4 -->
      <defs>
       <path d="M 10.59375 35.5 
L 73.1875 35.5 
L 73.1875 27.203125 
L 10.59375 27.203125 
z
" id="DejaVuSans-8722"/>
      </defs>
      <g transform="translate(274.838407 171.733687)scale(0.1 -0.1)">
       <use xlink:href="#DejaVuSans-8722"/>
       <use x="83.789062" xlink:href="#DejaVuSans-52"/>
      </g>
     </g>
    </g>
    <g id="xtick_8">
     <g id="line2d_11">
      <g>
       <use style="stroke:#000000;stroke-width:0.8;" x="314.2367" xlink:href="#m5c11d1d6d8" y="157.135249"/>
      </g>
     </g>
     <g id="text_13">
      <!-- −3 -->
      <g transform="translate(306.865607 171.733687)scale(0.1 -0.1)">
       <use xlink:href="#DejaVuSans-8722"/>
       <use x="83.789062" xlink:href="#DejaVuSans-51"/>
      </g>
     </g>
    </g>
    <g id="xtick_9">
     <g id="line2d_12">
      <g>
       <use style="stroke:#000000;stroke-width:0.8;" x="346.2639" xlink:href="#m5c11d1d6d8" y="157.135249"/>
      </g>
     </g>
     <g id="text_14">
      <!-- −2 -->
      <g transform="translate(338.892806 171.733687)scale(0.1 -0.1)">
       <use xlink:href="#DejaVuSans-8722"/>
       <use x="83.789062" xlink:href="#DejaVuSans-50"/>
      </g>
     </g>
    </g>
    <g id="xtick_10">
     <g id="line2d_13">
      <g>
       <use style="stroke:#000000;stroke-width:0.8;" x="378.2911" xlink:href="#m5c11d1d6d8" y="157.135249"/>
      </g>
     </g>
     <g id="text_15">
      <!-- −1 -->
      <g transform="translate(370.920006 171.733687)scale(0.1 -0.1)">
       <use xlink:href="#DejaVuSans-8722"/>
       <use x="83.789062" xlink:href="#DejaVuSans-49"/>
      </g>
     </g>
    </g>
    <g id="xtick_11">
     <g id="line2d_14">
      <g>
       <use style="stroke:#000000;stroke-width:0.8;" x="410.3183" xlink:href="#m5c11d1d6d8" y="157.135249"/>
      </g>
     </g>
     <g id="text_16">
      <!-- 0 -->
      <g transform="translate(407.13705 171.733687)scale(0.1 -0.1)">
       <use xlink:href="#DejaVuSans-48"/>
      </g>
     </g>
    </g>
    <g id="xtick_12">
     <g id="line2d_15">
      <g>
       <use style="stroke:#000000;stroke-width:0.8;" x="442.345499" xlink:href="#m5c11d1d6d8" y="157.135249"/>
      </g>
     </g>
     <g id="text_17">
      <!-- 1 -->
      <g transform="translate(439.164249 171.733687)scale(0.1 -0.1)">
       <use xlink:href="#DejaVuSans-49"/>
      </g>
     </g>
    </g>
    <g id="text_18">
     <!-- $\log_{10}K_\mathrm{S}$ -->
     <defs>
      <path d="M 45.40625 27.984375 
Q 45.40625 37.75 41.375 43.109375 
Q 37.359375 48.484375 30.078125 48.484375 
Q 22.859375 48.484375 18.828125 43.109375 
Q 14.796875 37.75 14.796875 27.984375 
Q 14.796875 18.265625 18.828125 12.890625 
Q 22.859375 7.515625 30.078125 7.515625 
Q 37.359375 7.515625 41.375 12.890625 
Q 45.40625 18.265625 45.40625 27.984375 
z
M 54.390625 6.78125 
Q 54.390625 -7.171875 48.1875 -13.984375 
Q 42 -20.796875 29.203125 -20.796875 
Q 24.46875 -20.796875 20.265625 -20.09375 
Q 16.0625 -19.390625 12.109375 -17.921875 
L 12.109375 -9.1875 
Q 16.0625 -11.328125 19.921875 -12.34375 
Q 23.78125 -13.375 27.78125 -13.375 
Q 36.625 -13.375 41.015625 -8.765625 
Q 45.40625 -4.15625 45.40625 5.171875 
L 45.40625 9.625 
Q 42.625 4.78125 38.28125 2.390625 
Q 33.9375 0 27.875 0 
Q 17.828125 0 11.671875 7.65625 
Q 5.515625 15.328125 5.515625 27.984375 
Q 5.515625 40.671875 11.671875 48.328125 
Q 17.828125 56 27.875 56 
Q 33.9375 56 38.28125 53.609375 
Q 42.625 51.21875 45.40625 46.390625 
L 45.40625 54.6875 
L 54.390625 54.6875 
z
" id="DejaVuSans-103"/>
     </defs>
     <g transform="translate(344.3775 185.413374)scale(0.1 -0.1)">
      <use transform="translate(0 0.015625)" xlink:href="#DejaVuSans-108"/>
      <use transform="translate(27.783203 0.015625)" xlink:href="#DejaVuSans-111"/>
      <use transform="translate(88.964844 0.015625)" xlink:href="#DejaVuSans-103"/>
      <use transform="translate(153.398438 -16.390625)scale(0.7)" xlink:href="#DejaVuSans-49"/>
      <use transform="translate(197.93457 -16.390625)scale(0.7)" xlink:href="#DejaVuSans-48"/>
      <use transform="translate(245.205078 0.015625)" xlink:href="#DejaVuSans-Oblique-75"/>
      <use transform="translate(310.78125 -16.390625)scale(0.7)" xlink:href="#DejaVuSans-83"/>
     </g>
    </g>
   </g>
   <g id="matplotlib.axis_4">
    <g id="ytick_4">
     <g id="line2d_16">
      <g>
       <use style="stroke:#000000;stroke-width:0.8;" x="273.555" xlink:href="#ma4a37122fb" y="156.135249"/>
      </g>
     </g>
     <g id="text_19">
      <!-- 0 -->
      <g transform="translate(260.1925 159.934468)scale(0.1 -0.1)">
       <use xlink:href="#DejaVuSans-48"/>
      </g>
     </g>
    </g>
    <g id="ytick_5">
     <g id="line2d_17">
      <g>
       <use style="stroke:#000000;stroke-width:0.8;" x="273.555" xlink:href="#ma4a37122fb" y="118.367641"/>
      </g>
     </g>
     <g id="text_20">
      <!-- 200 -->
      <g transform="translate(247.4675 122.16686)scale(0.1 -0.1)">
       <use xlink:href="#DejaVuSans-50"/>
       <use x="63.623047" xlink:href="#DejaVuSans-48"/>
       <use x="127.246094" xlink:href="#DejaVuSans-48"/>
      </g>
     </g>
    </g>
    <g id="ytick_6">
     <g id="line2d_18">
      <g>
       <use style="stroke:#000000;stroke-width:0.8;" x="273.555" xlink:href="#ma4a37122fb" y="80.600033"/>
      </g>
     </g>
     <g id="text_21">
      <!-- 400 -->
      <g transform="translate(247.4675 84.399252)scale(0.1 -0.1)">
       <use xlink:href="#DejaVuSans-52"/>
       <use x="63.623047" xlink:href="#DejaVuSans-48"/>
       <use x="127.246094" xlink:href="#DejaVuSans-48"/>
      </g>
     </g>
    </g>
   </g>
   <g id="patch_156">
    <path d="M 273.555 156.135249 
L 273.555 51.84 
" style="fill:none;stroke:#000000;stroke-linecap:square;stroke-linejoin:miter;stroke-width:0.8;"/>
   </g>
   <g id="patch_157">
    <path d="M 274.555 157.135249 
L 450 157.135249 
" style="fill:none;stroke:#000000;stroke-linecap:square;stroke-linejoin:miter;stroke-width:0.8;"/>
   </g>
  </g>
  <g id="axes_3">
   <g id="patch_158">
    <path d="M 58.17 299.76 
L 233.615 299.76 
L 233.615 195.464751 
L 58.17 195.464751 
z
" style="fill:#ffffff;"/>
   </g>
   <g id="patch_159">
    <path clip-path="url(#p69c6232b00)" d="M 66.144773 299.76 
L 68.706949 299.76 
L 68.706949 284.792645 
L 66.144773 284.792645 
z
" style="fill:#808080;"/>
   </g>
   <g id="patch_160">
    <path clip-path="url(#p69c6232b00)" d="M 69.347493 299.76 
L 71.909669 299.76 
L 71.909669 298.593713 
L 69.347493 298.593713 
z
" style="fill:#808080;"/>
   </g>
   <g id="patch_161">
    <path clip-path="url(#p69c6232b00)" d="M 72.550213 299.76 
L 75.112389 299.76 
L 75.112389 299.565619 
L 72.550213 299.565619 
z
" style="fill:#808080;"/>
   </g>
   <g id="patch_162">
    <path clip-path="url(#p69c6232b00)" d="M 75.752933 299.76 
L 78.315109 299.76 
L 78.315109 292.179132 
L 75.752933 292.179132 
z
" style="fill:#808080;"/>
   </g>
   <g id="patch_163">
    <path clip-path="url(#p69c6232b00)" d="M 78.955653 299.76 
L 81.517829 299.76 
L 81.517829 297.038663 
L 78.955653 297.038663 
z
" style="fill:#808080;"/>
   </g>
   <g id="patch_164">
    <path clip-path="url(#p69c6232b00)" d="M 82.158373 299.76 
L 84.720549 299.76 
L 84.720549 299.565619 
L 82.158373 299.565619 
z
" style="fill:#808080;"/>
   </g>
   <g id="patch_165">
    <path clip-path="url(#p69c6232b00)" d="M 85.361093 299.76 
L 87.923269 299.76 
L 87.923269 294.706088 
L 85.361093 294.706088 
z
" style="fill:#808080;"/>
   </g>
   <g id="patch_166">
    <path clip-path="url(#p69c6232b00)" d="M 88.563813 299.76 
L 91.125988 299.76 
L 91.125988 296.6499 
L 88.563813 296.6499 
z
" style="fill:#808080;"/>
   </g>
   <g id="patch_167">
    <path clip-path="url(#p69c6232b00)" d="M 91.766532 299.76 
L 94.328708 299.76 
L 94.328708 297.233044 
L 91.766532 297.233044 
z
" style="fill:#808080;"/>
   </g>
   <g id="patch_168">
    <path clip-path="url(#p69c6232b00)" d="M 94.969252 299.76 
L 97.531428 299.76 
L 97.531428 290.624082 
L 94.969252 290.624082 
z
" style="fill:#808080;"/>
   </g>
   <g id="patch_169">
    <path clip-path="url(#p69c6232b00)" d="M 98.171972 299.76 
L 100.734148 299.76 
L 100.734148 293.151038 
L 98.171972 293.151038 
z
" style="fill:#808080;"/>
   </g>
   <g id="patch_170">
    <path clip-path="url(#p69c6232b00)" d="M 101.374692 299.76 
L 103.936868 299.76 
L 103.936868 293.151038 
L 101.374692 293.151038 
z
" style="fill:#808080;"/>
   </g>
   <g id="patch_171">
    <path clip-path="url(#p69c6232b00)" d="M 104.577412 299.76 
L 107.139588 299.76 
L 107.139588 291.012845 
L 104.577412 291.012845 
z
" style="fill:#808080;"/>
   </g>
   <g id="patch_172">
    <path clip-path="url(#p69c6232b00)" d="M 107.780132 299.76 
L 110.342308 299.76 
L 110.342308 284.792645 
L 107.780132 284.792645 
z
" style="fill:#808080;"/>
   </g>
   <g id="patch_173">
    <path clip-path="url(#p69c6232b00)" d="M 110.982852 299.76 
L 113.545028 299.76 
L 113.545028 289.263414 
L 110.982852 289.263414 
z
" style="fill:#808080;"/>
   </g>
   <g id="patch_174">
    <path clip-path="url(#p69c6232b00)" d="M 114.185572 299.76 
L 116.747748 299.76 
L 116.747748 282.071308 
L 114.185572 282.071308 
z
" style="fill:#808080;"/>
   </g>
   <g id="patch_175">
    <path clip-path="url(#p69c6232b00)" d="M 117.388292 299.76 
L 119.950468 299.76 
L 119.950468 275.462346 
L 117.388292 275.462346 
z
" style="fill:#808080;"/>
   </g>
   <g id="patch_176">
    <path clip-path="url(#p69c6232b00)" d="M 120.591012 299.76 
L 123.153188 299.76 
L 123.153188 276.04549 
L 120.591012 276.04549 
z
" style="fill:#808080;"/>
   </g>
   <g id="patch_177">
    <path clip-path="url(#p69c6232b00)" d="M 123.793732 299.76 
L 126.355908 299.76 
L 126.355908 266.909572 
L 123.793732 266.909572 
z
" style="fill:#808080;"/>
   </g>
   <g id="patch_178">
    <path clip-path="url(#p69c6232b00)" d="M 126.996452 299.76 
L 129.558628 299.76 
L 129.558628 257.579273 
L 126.996452 257.579273 
z
" style="fill:#808080;"/>
   </g>
   <g id="patch_179">
    <path clip-path="url(#p69c6232b00)" d="M 130.199172 299.76 
L 132.761348 299.76 
L 132.761348 258.162417 
L 130.199172 258.162417 
z
" style="fill:#808080;"/>
   </g>
   <g id="patch_180">
    <path clip-path="url(#p69c6232b00)" d="M 133.401892 299.76 
L 135.964068 299.76 
L 135.964068 254.663555 
L 133.401892 254.663555 
z
" style="fill:#808080;"/>
   </g>
   <g id="patch_181">
    <path clip-path="url(#p69c6232b00)" d="M 136.604612 299.76 
L 139.166788 299.76 
L 139.166788 251.164692 
L 136.604612 251.164692 
z
" style="fill:#808080;"/>
   </g>
   <g id="patch_182">
    <path clip-path="url(#p69c6232b00)" d="M 139.807332 299.76 
L 142.369508 299.76 
L 142.369508 245.722018 
L 139.807332 245.722018 
z
" style="fill:#808080;"/>
   </g>
   <g id="patch_183">
    <path clip-path="url(#p69c6232b00)" d="M 143.010052 299.76 
L 145.572228 299.76 
L 145.572228 241.834393 
L 143.010052 241.834393 
z
" style="fill:#808080;"/>
   </g>
   <g id="patch_184">
    <path clip-path="url(#p69c6232b00)" d="M 146.212772 299.76 
L 148.774948 299.76 
L 148.774948 240.279343 
L 146.212772 240.279343 
z
" style="fill:#808080;"/>
   </g>
   <g id="patch_185">
    <path clip-path="url(#p69c6232b00)" d="M 149.415492 299.76 
L 151.977668 299.76 
L 151.977668 233.476 
L 149.415492 233.476 
z
" style="fill:#808080;"/>
   </g>
   <g id="patch_186">
    <path clip-path="url(#p69c6232b00)" d="M 152.618212 299.76 
L 155.180388 299.76 
L 155.180388 231.532188 
L 152.618212 231.532188 
z
" style="fill:#808080;"/>
   </g>
   <g id="patch_187">
    <path clip-path="url(#p69c6232b00)" d="M 155.820932 299.76 
L 158.383108 299.76 
L 158.383108 225.895132 
L 155.820932 225.895132 
z
" style="fill:#808080;"/>
   </g>
   <g id="patch_188">
    <path clip-path="url(#p69c6232b00)" d="M 159.023652 299.76 
L 161.585828 299.76 
L 161.585828 215.98169 
L 159.023652 215.98169 
z
" style="fill:#808080;"/>
   </g>
   <g id="patch_189">
    <path clip-path="url(#p69c6232b00)" d="M 162.226372 299.76 
L 164.788548 299.76 
L 164.788548 214.232259 
L 162.226372 214.232259 
z
" style="fill:#808080;"/>
   </g>
   <g id="patch_190">
    <path clip-path="url(#p69c6232b00)" d="M 165.429092 299.76 
L 167.991268 299.76 
L 167.991268 209.372728 
L 165.429092 209.372728 
z
" style="fill:#808080;"/>
   </g>
   <g id="patch_191">
    <path clip-path="url(#p69c6232b00)" d="M 168.631812 299.76 
L 171.193988 299.76 
L 171.193988 208.400822 
L 168.631812 208.400822 
z
" style="fill:#808080;"/>
   </g>
   <g id="patch_192">
    <path clip-path="url(#p69c6232b00)" d="M 171.834532 299.76 
L 174.396708 299.76 
L 174.396708 204.90196 
L 171.834532 204.90196 
z
" style="fill:#808080;"/>
   </g>
   <g id="patch_193">
    <path clip-path="url(#p69c6232b00)" d="M 175.037252 299.76 
L 177.599428 299.76 
L 177.599428 200.431191 
L 175.037252 200.431191 
z
" style="fill:#808080;"/>
   </g>
   <g id="patch_194">
    <path clip-path="url(#p69c6232b00)" d="M 178.239972 299.76 
L 180.802148 299.76 
L 180.802148 214.232259 
L 178.239972 214.232259 
z
" style="fill:#808080;"/>
   </g>
   <g id="patch_195">
    <path clip-path="url(#p69c6232b00)" d="M 181.442692 299.76 
L 184.004868 299.76 
L 184.004868 233.087238 
L 181.442692 233.087238 
z
" style="fill:#808080;"/>
   </g>
   <g id="patch_196">
    <path clip-path="url(#p69c6232b00)" d="M 184.645412 299.76 
L 187.207588 299.76 
L 187.207588 243.195062 
L 184.645412 243.195062 
z
" style="fill:#808080;"/>
   </g>
   <g id="patch_197">
    <path clip-path="url(#p69c6232b00)" d="M 187.848132 299.76 
L 190.410308 299.76 
L 190.410308 263.021947 
L 187.848132 263.021947 
z
" style="fill:#808080;"/>
   </g>
   <g id="patch_198">
    <path clip-path="url(#p69c6232b00)" d="M 191.050852 299.76 
L 193.613028 299.76 
L 193.613028 275.267965 
L 191.050852 275.267965 
z
" style="fill:#808080;"/>
   </g>
   <g id="patch_199">
    <path clip-path="url(#p69c6232b00)" d="M 194.253572 299.76 
L 196.815748 299.76 
L 196.815748 286.347695 
L 194.253572 286.347695 
z
" style="fill:#808080;"/>
   </g>
   <g id="patch_200">
    <path clip-path="url(#p69c6232b00)" d="M 197.456292 299.76 
L 200.018468 299.76 
L 200.018468 289.846557 
L 197.456292 289.846557 
z
" style="fill:#808080;"/>
   </g>
   <g id="patch_201">
    <path clip-path="url(#p69c6232b00)" d="M 200.659012 299.76 
L 203.221187 299.76 
L 203.221187 292.567894 
L 200.659012 292.567894 
z
" style="fill:#808080;"/>
   </g>
   <g id="patch_202">
    <path clip-path="url(#p69c6232b00)" d="M 203.861731 299.76 
L 206.423907 299.76 
L 206.423907 294.900469 
L 203.861731 294.900469 
z
" style="fill:#808080;"/>
   </g>
   <g id="patch_203">
    <path clip-path="url(#p69c6232b00)" d="M 207.064451 299.76 
L 209.626627 299.76 
L 209.626627 295.09485 
L 207.064451 295.09485 
z
" style="fill:#808080;"/>
   </g>
   <g id="patch_204">
    <path clip-path="url(#p69c6232b00)" d="M 210.267171 299.76 
L 212.829347 299.76 
L 212.829347 294.900469 
L 210.267171 294.900469 
z
" style="fill:#808080;"/>
   </g>
   <g id="patch_205">
    <path clip-path="url(#p69c6232b00)" d="M 213.469891 299.76 
L 216.032067 299.76 
L 216.032067 294.900469 
L 213.469891 294.900469 
z
" style="fill:#808080;"/>
   </g>
   <g id="patch_206">
    <path clip-path="url(#p69c6232b00)" d="M 216.672611 299.76 
L 219.234787 299.76 
L 219.234787 296.066757 
L 216.672611 296.066757 
z
" style="fill:#808080;"/>
   </g>
   <g id="patch_207">
    <path clip-path="url(#p69c6232b00)" d="M 219.875331 299.76 
L 222.437507 299.76 
L 222.437507 296.455519 
L 219.875331 296.455519 
z
" style="fill:#808080;"/>
   </g>
   <g id="patch_208">
    <path clip-path="url(#p69c6232b00)" d="M 223.078051 299.76 
L 225.640227 299.76 
L 225.640227 292.762276 
L 223.078051 292.762276 
z
" style="fill:#808080;"/>
   </g>
   <g id="matplotlib.axis_5">
    <g id="xtick_13">
     <g id="line2d_19">
      <g>
       <use style="stroke:#000000;stroke-width:0.8;" x="65.824501" xlink:href="#m5c11d1d6d8" y="300.76"/>
      </g>
     </g>
     <g id="text_22">
      <!-- −4 -->
      <g transform="translate(58.453407 315.358437)scale(0.1 -0.1)">
       <use xlink:href="#DejaVuSans-8722"/>
       <use x="83.789062" xlink:href="#DejaVuSans-52"/>
      </g>
     </g>
    </g>
    <g id="xtick_14">
     <g id="line2d_20">
      <g>
       <use style="stroke:#000000;stroke-width:0.8;" x="97.8517" xlink:href="#m5c11d1d6d8" y="300.76"/>
      </g>
     </g>
     <g id="text_23">
      <!-- −3 -->
      <g transform="translate(90.480607 315.358437)scale(0.1 -0.1)">
       <use xlink:href="#DejaVuSans-8722"/>
       <use x="83.789062" xlink:href="#DejaVuSans-51"/>
      </g>
     </g>
    </g>
    <g id="xtick_15">
     <g id="line2d_21">
      <g>
       <use style="stroke:#000000;stroke-width:0.8;" x="129.8789" xlink:href="#m5c11d1d6d8" y="300.76"/>
      </g>
     </g>
     <g id="text_24">
      <!-- −2 -->
      <g transform="translate(122.507806 315.358437)scale(0.1 -0.1)">
       <use xlink:href="#DejaVuSans-8722"/>
       <use x="83.789062" xlink:href="#DejaVuSans-50"/>
      </g>
     </g>
    </g>
    <g id="xtick_16">
     <g id="line2d_22">
      <g>
       <use style="stroke:#000000;stroke-width:0.8;" x="161.9061" xlink:href="#m5c11d1d6d8" y="300.76"/>
      </g>
     </g>
     <g id="text_25">
      <!-- −1 -->
      <g transform="translate(154.535006 315.358437)scale(0.1 -0.1)">
       <use xlink:href="#DejaVuSans-8722"/>
       <use x="83.789062" xlink:href="#DejaVuSans-49"/>
      </g>
     </g>
    </g>
    <g id="xtick_17">
     <g id="line2d_23">
      <g>
       <use style="stroke:#000000;stroke-width:0.8;" x="193.9333" xlink:href="#m5c11d1d6d8" y="300.76"/>
      </g>
     </g>
     <g id="text_26">
      <!-- 0 -->
      <g transform="translate(190.75205 315.358437)scale(0.1 -0.1)">
       <use xlink:href="#DejaVuSans-48"/>
      </g>
     </g>
    </g>
    <g id="xtick_18">
     <g id="line2d_24">
      <g>
       <use style="stroke:#000000;stroke-width:0.8;" x="225.960499" xlink:href="#m5c11d1d6d8" y="300.76"/>
      </g>
     </g>
     <g id="text_27">
      <!-- 1 -->
      <g transform="translate(222.779249 315.358437)scale(0.1 -0.1)">
       <use xlink:href="#DejaVuSans-49"/>
      </g>
     </g>
    </g>
    <g id="text_28">
     <!-- $\log_{10}K_\mathrm{A}$ -->
     <defs>
      <path d="M 34.1875 63.1875 
L 20.796875 26.90625 
L 47.609375 26.90625 
z
M 28.609375 72.90625 
L 39.796875 72.90625 
L 67.578125 0 
L 57.328125 0 
L 50.6875 18.703125 
L 17.828125 18.703125 
L 11.1875 0 
L 0.78125 0 
z
" id="DejaVuSans-65"/>
     </defs>
     <g transform="translate(127.7925 329.038125)scale(0.1 -0.1)">
      <use transform="translate(0 0.015625)" xlink:href="#DejaVuSans-108"/>
      <use transform="translate(27.783203 0.015625)" xlink:href="#DejaVuSans-111"/>
      <use transform="translate(88.964844 0.015625)" xlink:href="#DejaVuSans-103"/>
      <use transform="translate(153.398438 -16.390625)scale(0.7)" xlink:href="#DejaVuSans-49"/>
      <use transform="translate(197.93457 -16.390625)scale(0.7)" xlink:href="#DejaVuSans-48"/>
      <use transform="translate(245.205078 0.015625)" xlink:href="#DejaVuSans-Oblique-75"/>
      <use transform="translate(310.78125 -16.390625)scale(0.7)" xlink:href="#DejaVuSans-65"/>
     </g>
    </g>
   </g>
   <g id="matplotlib.axis_6">
    <g id="ytick_7">
     <g id="line2d_25">
      <g>
       <use style="stroke:#000000;stroke-width:0.8;" x="57.17" xlink:href="#ma4a37122fb" y="299.76"/>
      </g>
     </g>
     <g id="text_29">
      <!-- 0 -->
      <g transform="translate(43.8075 303.559219)scale(0.1 -0.1)">
       <use xlink:href="#DejaVuSans-48"/>
      </g>
     </g>
    </g>
    <g id="ytick_8">
     <g id="line2d_26">
      <g>
       <use style="stroke:#000000;stroke-width:0.8;" x="57.17" xlink:href="#ma4a37122fb" y="260.883754"/>
      </g>
     </g>
     <g id="text_30">
      <!-- 200 -->
      <g transform="translate(31.0825 264.682973)scale(0.1 -0.1)">
       <use xlink:href="#DejaVuSans-50"/>
       <use x="63.623047" xlink:href="#DejaVuSans-48"/>
       <use x="127.246094" xlink:href="#DejaVuSans-48"/>
      </g>
     </g>
    </g>
    <g id="ytick_9">
     <g id="line2d_27">
      <g>
       <use style="stroke:#000000;stroke-width:0.8;" x="57.17" xlink:href="#ma4a37122fb" y="222.007508"/>
      </g>
     </g>
     <g id="text_31">
      <!-- 400 -->
      <g transform="translate(31.0825 225.806727)scale(0.1 -0.1)">
       <use xlink:href="#DejaVuSans-52"/>
       <use x="63.623047" xlink:href="#DejaVuSans-48"/>
       <use x="127.246094" xlink:href="#DejaVuSans-48"/>
      </g>
     </g>
    </g>
    <g id="text_32">
     <!-- Duplications -->
     <g transform="translate(25.002813 278.578782)rotate(-90)scale(0.1 -0.1)">
      <use xlink:href="#DejaVuSans-68"/>
      <use x="77.001953" xlink:href="#DejaVuSans-117"/>
      <use x="140.380859" xlink:href="#DejaVuSans-112"/>
      <use x="203.857422" xlink:href="#DejaVuSans-108"/>
      <use x="231.640625" xlink:href="#DejaVuSans-105"/>
      <use x="259.423828" xlink:href="#DejaVuSans-99"/>
      <use x="314.404297" xlink:href="#DejaVuSans-97"/>
      <use x="375.683594" xlink:href="#DejaVuSans-116"/>
      <use x="414.892578" xlink:href="#DejaVuSans-105"/>
      <use x="442.675781" xlink:href="#DejaVuSans-111"/>
      <use x="503.857422" xlink:href="#DejaVuSans-110"/>
      <use x="567.236328" xlink:href="#DejaVuSans-115"/>
     </g>
    </g>
   </g>
   <g id="patch_209">
    <path d="M 57.17 299.76 
L 57.17 195.464751 
" style="fill:none;stroke:#000000;stroke-linecap:square;stroke-linejoin:miter;stroke-width:0.8;"/>
   </g>
   <g id="patch_210">
    <path d="M 58.17 300.76 
L 233.615 300.76 
" style="fill:none;stroke:#000000;stroke-linecap:square;stroke-linejoin:miter;stroke-width:0.8;"/>
   </g>
  </g>
  <g id="axes_4">
   <g id="patch_211">
    <path d="M 274.555 299.76 
L 450 299.76 
L 450 195.464751 
L 274.555 195.464751 
z
" style="fill:#ffffff;"/>
   </g>
   <g id="patch_212">
    <path clip-path="url(#p279e959e77)" d="M 282.529773 299.76 
L 285.091949 299.76 
L 285.091949 299.76 
L 282.529773 299.76 
z
" style="fill:#808080;"/>
   </g>
   <g id="patch_213">
    <path clip-path="url(#p279e959e77)" d="M 285.732493 299.76 
L 288.294669 299.76 
L 288.294669 299.76 
L 285.732493 299.76 
z
" style="fill:#808080;"/>
   </g>
   <g id="patch_214">
    <path clip-path="url(#p279e959e77)" d="M 288.935213 299.76 
L 291.497389 299.76 
L 291.497389 299.76 
L 288.935213 299.76 
z
" style="fill:#808080;"/>
   </g>
   <g id="patch_215">
    <path clip-path="url(#p279e959e77)" d="M 292.137933 299.76 
L 294.700109 299.76 
L 294.700109 299.76 
L 292.137933 299.76 
z
" style="fill:#808080;"/>
   </g>
   <g id="patch_216">
    <path clip-path="url(#p279e959e77)" d="M 295.340653 299.76 
L 297.902829 299.76 
L 297.902829 299.76 
L 295.340653 299.76 
z
" style="fill:#808080;"/>
   </g>
   <g id="patch_217">
    <path clip-path="url(#p279e959e77)" d="M 298.543373 299.76 
L 301.105549 299.76 
L 301.105549 299.76 
L 298.543373 299.76 
z
" style="fill:#808080;"/>
   </g>
   <g id="patch_218">
    <path clip-path="url(#p279e959e77)" d="M 301.746093 299.76 
L 304.308269 299.76 
L 304.308269 299.76 
L 301.746093 299.76 
z
" style="fill:#808080;"/>
   </g>
   <g id="patch_219">
    <path clip-path="url(#p279e959e77)" d="M 304.948813 299.76 
L 307.510988 299.76 
L 307.510988 299.76 
L 304.948813 299.76 
z
" style="fill:#808080;"/>
   </g>
   <g id="patch_220">
    <path clip-path="url(#p279e959e77)" d="M 308.151532 299.76 
L 310.713708 299.76 
L 310.713708 299.76 
L 308.151532 299.76 
z
" style="fill:#808080;"/>
   </g>
   <g id="patch_221">
    <path clip-path="url(#p279e959e77)" d="M 311.354252 299.76 
L 313.916428 299.76 
L 313.916428 201.686532 
L 311.354252 201.686532 
z
" style="fill:#808080;"/>
   </g>
   <g id="patch_222">
    <path clip-path="url(#p279e959e77)" d="M 314.556972 299.76 
L 317.119148 299.76 
L 317.119148 299.603082 
L 314.556972 299.603082 
z
" style="fill:#808080;"/>
   </g>
   <g id="patch_223">
    <path clip-path="url(#p279e959e77)" d="M 317.759692 299.76 
L 320.321868 299.76 
L 320.321868 299.13233 
L 317.759692 299.13233 
z
" style="fill:#808080;"/>
   </g>
   <g id="patch_224">
    <path clip-path="url(#p279e959e77)" d="M 320.962412 299.76 
L 323.524588 299.76 
L 323.524588 299.446165 
L 320.962412 299.446165 
z
" style="fill:#808080;"/>
   </g>
   <g id="patch_225">
    <path clip-path="url(#p279e959e77)" d="M 324.165132 299.76 
L 326.727308 299.76 
L 326.727308 299.603082 
L 324.165132 299.603082 
z
" style="fill:#808080;"/>
   </g>
   <g id="patch_226">
    <path clip-path="url(#p279e959e77)" d="M 327.367852 299.76 
L 329.930028 299.76 
L 329.930028 299.289247 
L 327.367852 299.289247 
z
" style="fill:#808080;"/>
   </g>
   <g id="patch_227">
    <path clip-path="url(#p279e959e77)" d="M 330.570572 299.76 
L 333.132748 299.76 
L 333.132748 299.289247 
L 330.570572 299.289247 
z
" style="fill:#808080;"/>
   </g>
   <g id="patch_228">
    <path clip-path="url(#p279e959e77)" d="M 333.773292 299.76 
L 336.335468 299.76 
L 336.335468 298.975412 
L 333.773292 298.975412 
z
" style="fill:#808080;"/>
   </g>
   <g id="patch_229">
    <path clip-path="url(#p279e959e77)" d="M 336.976012 299.76 
L 339.538188 299.76 
L 339.538188 297.249319 
L 336.976012 297.249319 
z
" style="fill:#808080;"/>
   </g>
   <g id="patch_230">
    <path clip-path="url(#p279e959e77)" d="M 340.178732 299.76 
L 342.740908 299.76 
L 342.740908 296.778567 
L 340.178732 296.778567 
z
" style="fill:#808080;"/>
   </g>
   <g id="patch_231">
    <path clip-path="url(#p279e959e77)" d="M 343.381452 299.76 
L 345.943628 299.76 
L 345.943628 295.366309 
L 343.381452 295.366309 
z
" style="fill:#808080;"/>
   </g>
   <g id="patch_232">
    <path clip-path="url(#p279e959e77)" d="M 346.584172 299.76 
L 349.146348 299.76 
L 349.146348 295.209391 
L 346.584172 295.209391 
z
" style="fill:#808080;"/>
   </g>
   <g id="patch_233">
    <path clip-path="url(#p279e959e77)" d="M 349.786892 299.76 
L 352.349068 299.76 
L 352.349068 295.523226 
L 349.786892 295.523226 
z
" style="fill:#808080;"/>
   </g>
   <g id="patch_234">
    <path clip-path="url(#p279e959e77)" d="M 352.989612 299.76 
L 355.551788 299.76 
L 355.551788 291.757205 
L 352.989612 291.757205 
z
" style="fill:#808080;"/>
   </g>
   <g id="patch_235">
    <path clip-path="url(#p279e959e77)" d="M 356.192332 299.76 
L 358.754508 299.76 
L 358.754508 290.031112 
L 356.192332 290.031112 
z
" style="fill:#808080;"/>
   </g>
   <g id="patch_236">
    <path clip-path="url(#p279e959e77)" d="M 359.395052 299.76 
L 361.957228 299.76 
L 361.957228 286.578926 
L 359.395052 286.578926 
z
" style="fill:#808080;"/>
   </g>
   <g id="patch_237">
    <path clip-path="url(#p279e959e77)" d="M 362.597772 299.76 
L 365.159948 299.76 
L 365.159948 282.342152 
L 362.597772 282.342152 
z
" style="fill:#808080;"/>
   </g>
   <g id="patch_238">
    <path clip-path="url(#p279e959e77)" d="M 365.800492 299.76 
L 368.362668 299.76 
L 368.362668 281.400647 
L 365.800492 281.400647 
z
" style="fill:#808080;"/>
   </g>
   <g id="patch_239">
    <path clip-path="url(#p279e959e77)" d="M 369.003212 299.76 
L 371.565388 299.76 
L 371.565388 268.533408 
L 369.003212 268.533408 
z
" style="fill:#808080;"/>
   </g>
   <g id="patch_240">
    <path clip-path="url(#p279e959e77)" d="M 372.205932 299.76 
L 374.768108 299.76 
L 374.768108 255.509251 
L 372.205932 255.509251 
z
" style="fill:#808080;"/>
   </g>
   <g id="patch_241">
    <path clip-path="url(#p279e959e77)" d="M 375.408652 299.76 
L 377.970828 299.76 
L 377.970828 250.017137 
L 375.408652 250.017137 
z
" style="fill:#808080;"/>
   </g>
   <g id="patch_242">
    <path clip-path="url(#p279e959e77)" d="M 378.611372 299.76 
L 381.173548 299.76 
L 381.173548 231.971619 
L 378.611372 231.971619 
z
" style="fill:#808080;"/>
   </g>
   <g id="patch_243">
    <path clip-path="url(#p279e959e77)" d="M 381.814092 299.76 
L 384.376268 299.76 
L 384.376268 218.633627 
L 381.814092 218.633627 
z
" style="fill:#808080;"/>
   </g>
   <g id="patch_244">
    <path clip-path="url(#p279e959e77)" d="M 385.016812 299.76 
L 387.578988 299.76 
L 387.578988 215.338358 
L 385.016812 215.338358 
z
" style="fill:#808080;"/>
   </g>
   <g id="patch_245">
    <path clip-path="url(#p279e959e77)" d="M 388.219532 299.76 
L 390.781708 299.76 
L 390.781708 216.907534 
L 388.219532 216.907534 
z
" style="fill:#808080;"/>
   </g>
   <g id="patch_246">
    <path clip-path="url(#p279e959e77)" d="M 391.422252 299.76 
L 393.984428 299.76 
L 393.984428 214.396853 
L 391.422252 214.396853 
z
" style="fill:#808080;"/>
   </g>
   <g id="patch_247">
    <path clip-path="url(#p279e959e77)" d="M 394.624972 299.76 
L 397.187148 299.76 
L 397.187148 218.005957 
L 394.624972 218.005957 
z
" style="fill:#808080;"/>
   </g>
   <g id="patch_248">
    <path clip-path="url(#p279e959e77)" d="M 397.827692 299.76 
L 400.389868 299.76 
L 400.389868 204.9818 
L 397.827692 204.9818 
z
" style="fill:#808080;"/>
   </g>
   <g id="patch_249">
    <path clip-path="url(#p279e959e77)" d="M 401.030412 299.76 
L 403.592588 299.76 
L 403.592588 200.431191 
L 401.030412 200.431191 
z
" style="fill:#808080;"/>
   </g>
   <g id="patch_250">
    <path clip-path="url(#p279e959e77)" d="M 404.233132 299.76 
L 406.795308 299.76 
L 406.795308 213.455348 
L 404.233132 213.455348 
z
" style="fill:#808080;"/>
   </g>
   <g id="patch_251">
    <path clip-path="url(#p279e959e77)" d="M 407.435852 299.76 
L 409.998028 299.76 
L 409.998028 233.383877 
L 407.435852 233.383877 
z
" style="fill:#808080;"/>
   </g>
   <g id="patch_252">
    <path clip-path="url(#p279e959e77)" d="M 410.638572 299.76 
L 413.200748 299.76 
L 413.200748 256.293839 
L 410.638572 256.293839 
z
" style="fill:#808080;"/>
   </g>
   <g id="patch_253">
    <path clip-path="url(#p279e959e77)" d="M 413.841292 299.76 
L 416.403468 299.76 
L 416.403468 271.985594 
L 413.841292 271.985594 
z
" style="fill:#808080;"/>
   </g>
   <g id="patch_254">
    <path clip-path="url(#p279e959e77)" d="M 417.044012 299.76 
L 419.606187 299.76 
L 419.606187 283.283657 
L 417.044012 283.283657 
z
" style="fill:#808080;"/>
   </g>
   <g id="patch_255">
    <path clip-path="url(#p279e959e77)" d="M 420.246731 299.76 
L 422.808907 299.76 
L 422.808907 287.991184 
L 420.246731 287.991184 
z
" style="fill:#808080;"/>
   </g>
   <g id="patch_256">
    <path clip-path="url(#p279e959e77)" d="M 423.449451 299.76 
L 426.011627 299.76 
L 426.011627 292.07104 
L 423.449451 292.07104 
z
" style="fill:#808080;"/>
   </g>
   <g id="patch_257">
    <path clip-path="url(#p279e959e77)" d="M 426.652171 299.76 
L 429.214347 299.76 
L 429.214347 294.738638 
L 426.652171 294.738638 
z
" style="fill:#808080;"/>
   </g>
   <g id="patch_258">
    <path clip-path="url(#p279e959e77)" d="M 429.854891 299.76 
L 432.417067 299.76 
L 432.417067 296.307814 
L 429.854891 296.307814 
z
" style="fill:#808080;"/>
   </g>
   <g id="patch_259">
    <path clip-path="url(#p279e959e77)" d="M 433.057611 299.76 
L 435.619787 299.76 
L 435.619787 297.092402 
L 433.057611 297.092402 
z
" style="fill:#808080;"/>
   </g>
   <g id="patch_260">
    <path clip-path="url(#p279e959e77)" d="M 436.260331 299.76 
L 438.822507 299.76 
L 438.822507 295.837061 
L 436.260331 295.837061 
z
" style="fill:#808080;"/>
   </g>
   <g id="patch_261">
    <path clip-path="url(#p279e959e77)" d="M 439.463051 299.76 
L 442.025227 299.76 
L 442.025227 295.837061 
L 439.463051 295.837061 
z
" style="fill:#808080;"/>
   </g>
   <g id="matplotlib.axis_7">
    <g id="xtick_19">
     <g id="line2d_28">
      <g>
       <use style="stroke:#000000;stroke-width:0.8;" x="282.209501" xlink:href="#m5c11d1d6d8" y="300.76"/>
      </g>
     </g>
     <g id="text_33">
      <!-- −4 -->
      <g transform="translate(274.838407 315.358437)scale(0.1 -0.1)">
       <use xlink:href="#DejaVuSans-8722"/>
       <use x="83.789062" xlink:href="#DejaVuSans-52"/>
      </g>
     </g>
    </g>
    <g id="xtick_20">
     <g id="line2d_29">
      <g>
       <use style="stroke:#000000;stroke-width:0.8;" x="346.2639" xlink:href="#m5c11d1d6d8" y="300.76"/>
      </g>
     </g>
     <g id="text_34">
      <!-- −2 -->
      <g transform="translate(338.892806 315.358437)scale(0.1 -0.1)">
       <use xlink:href="#DejaVuSans-8722"/>
       <use x="83.789062" xlink:href="#DejaVuSans-50"/>
      </g>
     </g>
    </g>
    <g id="xtick_21">
     <g id="line2d_30">
      <g>
       <use style="stroke:#000000;stroke-width:0.8;" x="410.3183" xlink:href="#m5c11d1d6d8" y="300.76"/>
      </g>
     </g>
     <g id="text_35">
      <!-- 0 -->
      <g transform="translate(407.13705 315.358437)scale(0.1 -0.1)">
       <use xlink:href="#DejaVuSans-48"/>
      </g>
     </g>
    </g>
    <g id="text_36">
     <!-- $\log_{10}\omega$ -->
     <defs>
      <path d="M 21.390625 -1.421875 
Q 1.125 -1.421875 6.78125 27.59375 
Q 8.984375 39.0625 19.625 54.6875 
L 29.296875 54.6875 
Q 19.234375 39.0625 17 27.34375 
Q 12.796875 6.203125 23.734375 6.203125 
Q 33.84375 6.203125 38.71875 32.46875 
L 47.015625 32.46875 
Q 41.703125 6.0625 51.8125 6.203125 
Q 62.703125 6.296875 66.796875 27.34375 
Q 69.046875 39.0625 65.140625 54.6875 
L 74.8125 54.6875 
Q 79.296875 39.0625 77.09375 27.59375 
Q 71.53125 -1.46875 51.21875 -1.421875 
Q 37.9375 -1.375 39.109375 13.1875 
Q 34.28125 -1.421875 21.390625 -1.421875 
z
" id="DejaVuSans-Oblique-969"/>
     </defs>
     <g transform="translate(345.8275 329.038125)scale(0.1 -0.1)">
      <use transform="translate(0 0.015625)" xlink:href="#DejaVuSans-108"/>
      <use transform="translate(27.783203 0.015625)" xlink:href="#DejaVuSans-111"/>
      <use transform="translate(88.964844 0.015625)" xlink:href="#DejaVuSans-103"/>
      <use transform="translate(153.398438 -16.390625)scale(0.7)" xlink:href="#DejaVuSans-49"/>
      <use transform="translate(197.93457 -16.390625)scale(0.7)" xlink:href="#DejaVuSans-48"/>
      <use transform="translate(245.205078 0.015625)" xlink:href="#DejaVuSans-Oblique-969"/>
     </g>
    </g>
   </g>
   <g id="matplotlib.axis_8">
    <g id="ytick_10">
     <g id="line2d_31">
      <g>
       <use style="stroke:#000000;stroke-width:0.8;" x="273.555" xlink:href="#ma4a37122fb" y="299.76"/>
      </g>
     </g>
     <g id="text_37">
      <!-- 0 -->
      <g transform="translate(260.1925 303.559219)scale(0.1 -0.1)">
       <use xlink:href="#DejaVuSans-48"/>
      </g>
     </g>
    </g>
    <g id="ytick_11">
     <g id="line2d_32">
      <g>
       <use style="stroke:#000000;stroke-width:0.8;" x="273.555" xlink:href="#ma4a37122fb" y="268.37649"/>
      </g>
     </g>
     <g id="text_38">
      <!-- 200 -->
      <g transform="translate(247.4675 272.175709)scale(0.1 -0.1)">
       <use xlink:href="#DejaVuSans-50"/>
       <use x="63.623047" xlink:href="#DejaVuSans-48"/>
       <use x="127.246094" xlink:href="#DejaVuSans-48"/>
      </g>
     </g>
    </g>
    <g id="ytick_12">
     <g id="line2d_33">
      <g>
       <use style="stroke:#000000;stroke-width:0.8;" x="273.555" xlink:href="#ma4a37122fb" y="236.99298"/>
      </g>
     </g>
     <g id="text_39">
      <!-- 400 -->
      <g transform="translate(247.4675 240.792199)scale(0.1 -0.1)">
       <use xlink:href="#DejaVuSans-52"/>
       <use x="63.623047" xlink:href="#DejaVuSans-48"/>
       <use x="127.246094" xlink:href="#DejaVuSans-48"/>
      </g>
     </g>
    </g>
    <g id="ytick_13">
     <g id="line2d_34">
      <g>
       <use style="stroke:#000000;stroke-width:0.8;" x="273.555" xlink:href="#ma4a37122fb" y="205.60947"/>
      </g>
     </g>
     <g id="text_40">
      <!-- 600 -->
      <defs>
       <path d="M 33.015625 40.375 
Q 26.375 40.375 22.484375 35.828125 
Q 18.609375 31.296875 18.609375 23.390625 
Q 18.609375 15.53125 22.484375 10.953125 
Q 26.375 6.390625 33.015625 6.390625 
Q 39.65625 6.390625 43.53125 10.953125 
Q 47.40625 15.53125 47.40625 23.390625 
Q 47.40625 31.296875 43.53125 35.828125 
Q 39.65625 40.375 33.015625 40.375 
z
M 52.59375 71.296875 
L 52.59375 62.3125 
Q 48.875 64.0625 45.09375 64.984375 
Q 41.3125 65.921875 37.59375 65.921875 
Q 27.828125 65.921875 22.671875 59.328125 
Q 17.53125 52.734375 16.796875 39.40625 
Q 19.671875 43.65625 24.015625 45.921875 
Q 28.375 48.1875 33.59375 48.1875 
Q 44.578125 48.1875 50.953125 41.515625 
Q 57.328125 34.859375 57.328125 23.390625 
Q 57.328125 12.15625 50.6875 5.359375 
Q 44.046875 -1.421875 33.015625 -1.421875 
Q 20.359375 -1.421875 13.671875 8.265625 
Q 6.984375 17.96875 6.984375 36.375 
Q 6.984375 53.65625 15.1875 63.9375 
Q 23.390625 74.21875 37.203125 74.21875 
Q 40.921875 74.21875 44.703125 73.484375 
Q 48.484375 72.75 52.59375 71.296875 
z
" id="DejaVuSans-54"/>
      </defs>
      <g transform="translate(247.4675 209.408689)scale(0.1 -0.1)">
       <use xlink:href="#DejaVuSans-54"/>
       <use x="63.623047" xlink:href="#DejaVuSans-48"/>
       <use x="127.246094" xlink:href="#DejaVuSans-48"/>
      </g>
     </g>
    </g>
   </g>
   <g id="patch_262">
    <path d="M 273.555 299.76 
L 273.555 195.464751 
" style="fill:none;stroke:#000000;stroke-linecap:square;stroke-linejoin:miter;stroke-width:0.8;"/>
   </g>
   <g id="patch_263">
    <path d="M 274.555 300.76 
L 450 300.76 
" style="fill:none;stroke:#000000;stroke-linecap:square;stroke-linejoin:miter;stroke-width:0.8;"/>
   </g>
  </g>
  <g id="text_41">
   <!-- Schlechtendalia.fasta.transdecoder.cds.tsv.ks.tsv -->
   <defs>
    <path d="M 54.890625 33.015625 
L 54.890625 0 
L 45.90625 0 
L 45.90625 32.71875 
Q 45.90625 40.484375 42.875 44.328125 
Q 39.84375 48.1875 33.796875 48.1875 
Q 26.515625 48.1875 22.3125 43.546875 
Q 18.109375 38.921875 18.109375 30.90625 
L 18.109375 0 
L 9.078125 0 
L 9.078125 75.984375 
L 18.109375 75.984375 
L 18.109375 46.1875 
Q 21.34375 51.125 25.703125 53.5625 
Q 30.078125 56 35.796875 56 
Q 45.21875 56 50.046875 50.171875 
Q 54.890625 44.34375 54.890625 33.015625 
z
" id="DejaVuSans-104"/>
    <path d="M 56.203125 29.59375 
L 56.203125 25.203125 
L 14.890625 25.203125 
Q 15.484375 15.921875 20.484375 11.0625 
Q 25.484375 6.203125 34.421875 6.203125 
Q 39.59375 6.203125 44.453125 7.46875 
Q 49.3125 8.734375 54.109375 11.28125 
L 54.109375 2.78125 
Q 49.265625 0.734375 44.1875 -0.34375 
Q 39.109375 -1.421875 33.890625 -1.421875 
Q 20.796875 -1.421875 13.15625 6.1875 
Q 5.515625 13.8125 5.515625 26.8125 
Q 5.515625 40.234375 12.765625 48.109375 
Q 20.015625 56 32.328125 56 
Q 43.359375 56 49.78125 48.890625 
Q 56.203125 41.796875 56.203125 29.59375 
z
M 47.21875 32.234375 
Q 47.125 39.59375 43.09375 43.984375 
Q 39.0625 48.390625 32.421875 48.390625 
Q 24.90625 48.390625 20.390625 44.140625 
Q 15.875 39.890625 15.1875 32.171875 
z
" id="DejaVuSans-101"/>
    <path d="M 45.40625 46.390625 
L 45.40625 75.984375 
L 54.390625 75.984375 
L 54.390625 0 
L 45.40625 0 
L 45.40625 8.203125 
Q 42.578125 3.328125 38.25 0.953125 
Q 33.9375 -1.421875 27.875 -1.421875 
Q 17.96875 -1.421875 11.734375 6.484375 
Q 5.515625 14.40625 5.515625 27.296875 
Q 5.515625 40.1875 11.734375 48.09375 
Q 17.96875 56 27.875 56 
Q 33.9375 56 38.25 53.625 
Q 42.578125 51.265625 45.40625 46.390625 
z
M 14.796875 27.296875 
Q 14.796875 17.390625 18.875 11.75 
Q 22.953125 6.109375 30.078125 6.109375 
Q 37.203125 6.109375 41.296875 11.75 
Q 45.40625 17.390625 45.40625 27.296875 
Q 45.40625 37.203125 41.296875 42.84375 
Q 37.203125 48.484375 30.078125 48.484375 
Q 22.953125 48.484375 18.875 42.84375 
Q 14.796875 37.203125 14.796875 27.296875 
z
" id="DejaVuSans-100"/>
    <path d="M 10.6875 12.40625 
L 21 12.40625 
L 21 0 
L 10.6875 0 
z
" id="DejaVuSans-46"/>
    <path d="M 37.109375 75.984375 
L 37.109375 68.5 
L 28.515625 68.5 
Q 23.6875 68.5 21.796875 66.546875 
Q 19.921875 64.59375 19.921875 59.515625 
L 19.921875 54.6875 
L 34.71875 54.6875 
L 34.71875 47.703125 
L 19.921875 47.703125 
L 19.921875 0 
L 10.890625 0 
L 10.890625 47.703125 
L 2.296875 47.703125 
L 2.296875 54.6875 
L 10.890625 54.6875 
L 10.890625 58.5 
Q 10.890625 67.625 15.140625 71.796875 
Q 19.390625 75.984375 28.609375 75.984375 
z
" id="DejaVuSans-102"/>
    <path d="M 41.109375 46.296875 
Q 39.59375 47.171875 37.8125 47.578125 
Q 36.03125 48 33.890625 48 
Q 26.265625 48 22.1875 43.046875 
Q 18.109375 38.09375 18.109375 28.8125 
L 18.109375 0 
L 9.078125 0 
L 9.078125 54.6875 
L 18.109375 54.6875 
L 18.109375 46.1875 
Q 20.953125 51.171875 25.484375 53.578125 
Q 30.03125 56 36.53125 56 
Q 37.453125 56 38.578125 55.875 
Q 39.703125 55.765625 41.0625 55.515625 
z
" id="DejaVuSans-114"/>
    <path d="M 2.984375 54.6875 
L 12.5 54.6875 
L 29.59375 8.796875 
L 46.6875 54.6875 
L 56.203125 54.6875 
L 35.6875 0 
L 23.484375 0 
z
" id="DejaVuSans-118"/>
    <path d="M 9.078125 75.984375 
L 18.109375 75.984375 
L 18.109375 31.109375 
L 44.921875 54.6875 
L 56.390625 54.6875 
L 27.390625 29.109375 
L 57.625 0 
L 45.90625 0 
L 18.109375 26.703125 
L 18.109375 0 
L 9.078125 0 
z
" id="DejaVuSans-107"/>
   </defs>
   <g transform="translate(57.6 43.678125)scale(0.12 -0.12)">
    <use xlink:href="#DejaVuSans-83"/>
    <use x="63.476562" xlink:href="#DejaVuSans-99"/>
    <use x="118.457031" xlink:href="#DejaVuSans-104"/>
    <use x="181.835938" xlink:href="#DejaVuSans-108"/>
    <use x="209.619141" xlink:href="#DejaVuSans-101"/>
    <use x="271.142578" xlink:href="#DejaVuSans-99"/>
    <use x="326.123047" xlink:href="#DejaVuSans-104"/>
    <use x="389.501953" xlink:href="#DejaVuSans-116"/>
    <use x="428.710938" xlink:href="#DejaVuSans-101"/>
    <use x="490.234375" xlink:href="#DejaVuSans-110"/>
    <use x="553.613281" xlink:href="#DejaVuSans-100"/>
    <use x="617.089844" xlink:href="#DejaVuSans-97"/>
    <use x="678.369141" xlink:href="#DejaVuSans-108"/>
    <use x="706.152344" xlink:href="#DejaVuSans-105"/>
    <use x="733.935547" xlink:href="#DejaVuSans-97"/>
    <use x="795.214844" xlink:href="#DejaVuSans-46"/>
    <use x="827.001953" xlink:href="#DejaVuSans-102"/>
    <use x="862.207031" xlink:href="#DejaVuSans-97"/>
    <use x="923.486328" xlink:href="#DejaVuSans-115"/>
    <use x="975.585938" xlink:href="#DejaVuSans-116"/>
    <use x="1014.794922" xlink:href="#DejaVuSans-97"/>
    <use x="1076.074219" xlink:href="#DejaVuSans-46"/>
    <use x="1107.861328" xlink:href="#DejaVuSans-116"/>
    <use x="1147.070312" xlink:href="#DejaVuSans-114"/>
    <use x="1188.183594" xlink:href="#DejaVuSans-97"/>
    <use x="1249.462891" xlink:href="#DejaVuSans-110"/>
    <use x="1312.841797" xlink:href="#DejaVuSans-115"/>
    <use x="1364.941406" xlink:href="#DejaVuSans-100"/>
    <use x="1428.417969" xlink:href="#DejaVuSans-101"/>
    <use x="1489.941406" xlink:href="#DejaVuSans-99"/>
    <use x="1544.921875" xlink:href="#DejaVuSans-111"/>
    <use x="1606.103516" xlink:href="#DejaVuSans-100"/>
    <use x="1669.580078" xlink:href="#DejaVuSans-101"/>
    <use x="1731.103516" xlink:href="#DejaVuSans-114"/>
    <use x="1763.091797" xlink:href="#DejaVuSans-46"/>
    <use x="1794.878906" xlink:href="#DejaVuSans-99"/>
    <use x="1849.859375" xlink:href="#DejaVuSans-100"/>
    <use x="1913.335938" xlink:href="#DejaVuSans-115"/>
    <use x="1965.435547" xlink:href="#DejaVuSans-46"/>
    <use x="1997.222656" xlink:href="#DejaVuSans-116"/>
    <use x="2036.431641" xlink:href="#DejaVuSans-115"/>
    <use x="2088.53125" xlink:href="#DejaVuSans-118"/>
    <use x="2139.960938" xlink:href="#DejaVuSans-46"/>
    <use x="2171.748047" xlink:href="#DejaVuSans-107"/>
    <use x="2229.658203" xlink:href="#DejaVuSans-115"/>
    <use x="2281.757812" xlink:href="#DejaVuSans-46"/>
    <use x="2313.544922" xlink:href="#DejaVuSans-116"/>
    <use x="2352.753906" xlink:href="#DejaVuSans-115"/>
    <use x="2404.853516" xlink:href="#DejaVuSans-118"/>
   </g>
  </g>
 </g>
 <defs>
  <clipPath id="p174185f2b7">
   <rect height="104.295249" width="175.445" x="58.17" y="51.84"/>
  </clipPath>
  <clipPath id="p2d8dffc2dc">
   <rect height="104.295249" width="175.445" x="274.555" y="51.84"/>
  </clipPath>
  <clipPath id="p69c6232b00">
   <rect height="104.295249" width="175.445" x="58.17" y="195.464751"/>
  </clipPath>
  <clipPath id="p279e959e77">
   <rect height="104.295249" width="175.445" x="274.555" y="195.464751"/>
  </clipPath>
 </defs>
</svg>
