<?xml version="1.0" encoding="utf-8" standalone="no"?>
<!DOCTYPE svg PUBLIC "-//W3C//DTD SVG 1.1//EN"
  "http://www.w3.org/Graphics/SVG/1.1/DTD/svg11.dtd">
<!-- Created with matplotlib (https://matplotlib.org/) -->
<svg height="720pt" version="1.1" viewBox="0 0 720 720" width="720pt" xmlns="http://www.w3.org/2000/svg" xmlns:xlink="http://www.w3.org/1999/xlink">
 <defs>
  <style type="text/css">
*{stroke-linecap:butt;stroke-linejoin:round;}
  </style>
 </defs>
 <g id="figure_1">
  <g id="patch_1">
   <path d="M 0 720 
L 720 720 
L 720 0 
L 0 0 
z
" style="fill:#ffffff;"/>
  </g>
  <g id="axes_1">
   <g id="patch_2">
    <path d="M 54.02 675.592 
L 693.798179 675.592 
L 693.798179 28.32 
L 54.02 28.32 
z
" style="fill:#ffffff;"/>
   </g>
   <g id="patch_3">
    <path clip-path="url(#p6524043809)" d="M 54.933969 675.592 
L 62.245719 675.592 
L 62.245719 576.95719 
L 54.933969 576.95719 
z
" style="fill:#808080;opacity:0.2;"/>
   </g>
   <g id="patch_4">
    <path clip-path="url(#p6524043809)" d="M 64.073657 675.592 
L 71.385408 675.592 
L 71.385408 574.208097 
L 64.073657 574.208097 
z
" style="fill:#808080;opacity:0.2;"/>
   </g>
   <g id="patch_5">
    <path clip-path="url(#p6524043809)" d="M 73.213345 675.592 
L 80.525096 675.592 
L 80.525096 581.43136 
L 73.213345 581.43136 
z
" style="fill:#808080;opacity:0.2;"/>
   </g>
   <g id="patch_6">
    <path clip-path="url(#p6524043809)" d="M 82.353034 675.592 
L 89.664784 675.592 
L 89.664784 561.602052 
L 82.353034 561.602052 
z
" style="fill:#808080;opacity:0.2;"/>
   </g>
   <g id="patch_7">
    <path clip-path="url(#p6524043809)" d="M 91.492722 675.592 
L 98.804473 675.592 
L 98.804473 542.557617 
L 91.492722 542.557617 
z
" style="fill:#808080;opacity:0.2;"/>
   </g>
   <g id="patch_8">
    <path clip-path="url(#p6524043809)" d="M 100.63241 675.592 
L 107.944161 675.592 
L 107.944161 522.538419 
L 100.63241 522.538419 
z
" style="fill:#808080;opacity:0.2;"/>
   </g>
   <g id="patch_9">
    <path clip-path="url(#p6524043809)" d="M 109.772098 675.592 
L 117.083849 675.592 
L 117.083849 536.704834 
L 109.772098 536.704834 
z
" style="fill:#808080;opacity:0.2;"/>
   </g>
   <g id="patch_10">
    <path clip-path="url(#p6524043809)" d="M 118.911787 675.592 
L 126.223537 675.592 
L 126.223537 512.87565 
L 118.911787 512.87565 
z
" style="fill:#808080;opacity:0.2;"/>
   </g>
   <g id="patch_11">
    <path clip-path="url(#p6524043809)" d="M 128.051475 675.592 
L 135.363226 675.592 
L 135.363226 492.353782 
L 128.051475 492.353782 
z
" style="fill:#808080;opacity:0.2;"/>
   </g>
   <g id="patch_12">
    <path clip-path="url(#p6524043809)" d="M 137.191163 675.592 
L 144.502914 675.592 
L 144.502914 504.672292 
L 137.191163 504.672292 
z
" style="fill:#808080;opacity:0.2;"/>
   </g>
   <g id="patch_13">
    <path clip-path="url(#p6524043809)" d="M 146.330851 675.592 
L 153.642602 675.592 
L 153.642602 471.904647 
L 146.330851 471.904647 
z
" style="fill:#808080;opacity:0.2;"/>
   </g>
   <g id="patch_14">
    <path clip-path="url(#p6524043809)" d="M 155.47054 675.592 
L 162.78229 675.592 
L 162.78229 479.66869 
L 155.47054 479.66869 
z
" style="fill:#808080;opacity:0.2;"/>
   </g>
   <g id="patch_15">
    <path clip-path="url(#p6524043809)" d="M 164.610228 675.592 
L 171.921979 675.592 
L 171.921979 513.343765 
L 164.610228 513.343765 
z
" style="fill:#808080;opacity:0.2;"/>
   </g>
   <g id="patch_16">
    <path clip-path="url(#p6524043809)" d="M 173.749916 675.592 
L 181.061667 675.592 
L 181.061667 419.082011 
L 173.749916 419.082011 
z
" style="fill:#808080;opacity:0.2;"/>
   </g>
   <g id="patch_17">
    <path clip-path="url(#p6524043809)" d="M 182.889605 675.592 
L 190.201355 675.592 
L 190.201355 475.831939 
L 182.889605 475.831939 
z
" style="fill:#808080;opacity:0.2;"/>
   </g>
   <g id="patch_18">
    <path clip-path="url(#p6524043809)" d="M 192.029293 675.592 
L 199.341043 675.592 
L 199.341043 492.677249 
L 192.029293 492.677249 
z
" style="fill:#808080;opacity:0.2;"/>
   </g>
   <g id="patch_19">
    <path clip-path="url(#p6524043809)" d="M 201.168981 675.592 
L 208.480732 675.592 
L 208.480732 434.518757 
L 201.168981 434.518757 
z
" style="fill:#808080;opacity:0.2;"/>
   </g>
   <g id="patch_20">
    <path clip-path="url(#p6524043809)" d="M 210.308669 675.592 
L 217.62042 675.592 
L 217.62042 404.819723 
L 210.308669 404.819723 
z
" style="fill:#808080;opacity:0.2;"/>
   </g>
   <g id="patch_21">
    <path clip-path="url(#p6524043809)" d="M 219.448358 675.592 
L 226.760108 675.592 
L 226.760108 453.876592 
L 219.448358 453.876592 
z
" style="fill:#808080;opacity:0.2;"/>
   </g>
   <g id="patch_22">
    <path clip-path="url(#p6524043809)" d="M 228.588046 675.592 
L 235.899797 675.592 
L 235.899797 403.419401 
L 228.588046 403.419401 
z
" style="fill:#808080;opacity:0.2;"/>
   </g>
   <g id="patch_23">
    <path clip-path="url(#p6524043809)" d="M 237.727734 675.592 
L 245.039485 675.592 
L 245.039485 355.11381 
L 237.727734 355.11381 
z
" style="fill:#808080;opacity:0.2;"/>
   </g>
   <g id="patch_24">
    <path clip-path="url(#p6524043809)" d="M 246.867422 675.592 
L 254.179173 675.592 
L 254.179173 406.029175 
L 246.867422 406.029175 
z
" style="fill:#808080;opacity:0.2;"/>
   </g>
   <g id="patch_25">
    <path clip-path="url(#p6524043809)" d="M 256.007111 675.592 
L 263.318861 675.592 
L 263.318861 416.596815 
L 256.007111 416.596815 
z
" style="fill:#808080;opacity:0.2;"/>
   </g>
   <g id="patch_26">
    <path clip-path="url(#p6524043809)" d="M 265.146799 675.592 
L 272.45855 675.592 
L 272.45855 378.158761 
L 265.146799 378.158761 
z
" style="fill:#808080;opacity:0.2;"/>
   </g>
   <g id="patch_27">
    <path clip-path="url(#p6524043809)" d="M 274.286487 675.592 
L 281.598238 675.592 
L 281.598238 406.096989 
L 274.286487 406.096989 
z
" style="fill:#808080;opacity:0.2;"/>
   </g>
   <g id="patch_28">
    <path clip-path="url(#p6524043809)" d="M 283.426176 675.592 
L 290.737926 675.592 
L 290.737926 446.041676 
L 283.426176 446.041676 
z
" style="fill:#808080;opacity:0.2;"/>
   </g>
   <g id="patch_29">
    <path clip-path="url(#p6524043809)" d="M 292.565864 675.592 
L 299.877614 675.592 
L 299.877614 379.833437 
L 292.565864 379.833437 
z
" style="fill:#808080;opacity:0.2;"/>
   </g>
   <g id="patch_30">
    <path clip-path="url(#p6524043809)" d="M 301.705552 675.592 
L 309.017303 675.592 
L 309.017303 411.05099 
L 301.705552 411.05099 
z
" style="fill:#808080;opacity:0.2;"/>
   </g>
   <g id="patch_31">
    <path clip-path="url(#p6524043809)" d="M 310.84524 675.592 
L 318.156991 675.592 
L 318.156991 376.771129 
L 310.84524 376.771129 
z
" style="fill:#808080;opacity:0.2;"/>
   </g>
   <g id="patch_32">
    <path clip-path="url(#p6524043809)" d="M 319.984929 675.592 
L 327.296679 675.592 
L 327.296679 398.167048 
L 319.984929 398.167048 
z
" style="fill:#808080;opacity:0.2;"/>
   </g>
   <g id="patch_33">
    <path clip-path="url(#p6524043809)" d="M 329.124617 675.592 
L 336.436367 675.592 
L 336.436367 424.155935 
L 329.124617 424.155935 
z
" style="fill:#808080;opacity:0.2;"/>
   </g>
   <g id="patch_34">
    <path clip-path="url(#p6524043809)" d="M 338.264305 675.592 
L 345.576056 675.592 
L 345.576056 407.68809 
L 338.264305 407.68809 
z
" style="fill:#808080;opacity:0.2;"/>
   </g>
   <g id="patch_35">
    <path clip-path="url(#p6524043809)" d="M 347.403993 675.592 
L 354.715744 675.592 
L 354.715744 400.892038 
L 347.403993 400.892038 
z
" style="fill:#808080;opacity:0.2;"/>
   </g>
   <g id="patch_36">
    <path clip-path="url(#p6524043809)" d="M 356.543682 675.592 
L 363.855432 675.592 
L 363.855432 440.419225 
L 356.543682 440.419225 
z
" style="fill:#808080;opacity:0.2;"/>
   </g>
   <g id="patch_37">
    <path clip-path="url(#p6524043809)" d="M 365.68337 675.592 
L 372.995121 675.592 
L 372.995121 481.048318 
L 365.68337 481.048318 
z
" style="fill:#808080;opacity:0.2;"/>
   </g>
   <g id="patch_38">
    <path clip-path="url(#p6524043809)" d="M 374.823058 675.592 
L 382.134809 675.592 
L 382.134809 468.29654 
L 374.823058 468.29654 
z
" style="fill:#808080;opacity:0.2;"/>
   </g>
   <g id="patch_39">
    <path clip-path="url(#p6524043809)" d="M 383.962746 675.592 
L 391.274497 675.592 
L 391.274497 429.327249 
L 383.962746 429.327249 
z
" style="fill:#808080;opacity:0.2;"/>
   </g>
   <g id="patch_40">
    <path clip-path="url(#p6524043809)" d="M 393.102435 675.592 
L 400.414185 675.592 
L 400.414185 437.72661 
L 393.102435 437.72661 
z
" style="fill:#808080;opacity:0.2;"/>
   </g>
   <g id="patch_41">
    <path clip-path="url(#p6524043809)" d="M 402.242123 675.592 
L 409.553874 675.592 
L 409.553874 430.817661 
L 402.242123 430.817661 
z
" style="fill:#808080;opacity:0.2;"/>
   </g>
   <g id="patch_42">
    <path clip-path="url(#p6524043809)" d="M 411.381811 675.592 
L 418.693562 675.592 
L 418.693562 461.993242 
L 411.381811 461.993242 
z
" style="fill:#808080;opacity:0.2;"/>
   </g>
   <g id="patch_43">
    <path clip-path="url(#p6524043809)" d="M 420.5215 675.592 
L 427.83325 675.592 
L 427.83325 371.606147 
L 420.5215 371.606147 
z
" style="fill:#808080;opacity:0.2;"/>
   </g>
   <g id="patch_44">
    <path clip-path="url(#p6524043809)" d="M 429.661188 675.592 
L 436.972938 675.592 
L 436.972938 384.344267 
L 429.661188 384.344267 
z
" style="fill:#808080;opacity:0.2;"/>
   </g>
   <g id="patch_45">
    <path clip-path="url(#p6524043809)" d="M 438.800876 675.592 
L 446.112627 675.592 
L 446.112627 337.324086 
L 438.800876 337.324086 
z
" style="fill:#808080;opacity:0.2;"/>
   </g>
   <g id="patch_46">
    <path clip-path="url(#p6524043809)" d="M 447.940564 675.592 
L 455.252315 675.592 
L 455.252315 324.258912 
L 447.940564 324.258912 
z
" style="fill:#808080;opacity:0.2;"/>
   </g>
   <g id="patch_47">
    <path clip-path="url(#p6524043809)" d="M 457.080253 675.592 
L 464.392003 675.592 
L 464.392003 326.28755 
L 457.080253 326.28755 
z
" style="fill:#808080;opacity:0.2;"/>
   </g>
   <g id="patch_48">
    <path clip-path="url(#p6524043809)" d="M 466.219941 675.592 
L 473.531691 675.592 
L 473.531691 232.693371 
L 466.219941 232.693371 
z
" style="fill:#808080;opacity:0.2;"/>
   </g>
   <g id="patch_49">
    <path clip-path="url(#p6524043809)" d="M 475.359629 675.592 
L 482.67138 675.592 
L 482.67138 218.894938 
L 475.359629 218.894938 
z
" style="fill:#808080;opacity:0.2;"/>
   </g>
   <g id="patch_50">
    <path clip-path="url(#p6524043809)" d="M 484.499317 675.592 
L 491.811068 675.592 
L 491.811068 130.801915 
L 484.499317 130.801915 
z
" style="fill:#808080;opacity:0.2;"/>
   </g>
   <g id="patch_51">
    <path clip-path="url(#p6524043809)" d="M 493.639006 675.592 
L 500.950756 675.592 
L 500.950756 137.294606 
L 493.639006 137.294606 
z
" style="fill:#808080;opacity:0.2;"/>
   </g>
   <g id="patch_52">
    <path clip-path="url(#p6524043809)" d="M 502.778694 675.592 
L 510.090445 675.592 
L 510.090445 115.724387 
L 502.778694 115.724387 
z
" style="fill:#808080;opacity:0.2;"/>
   </g>
   <g id="patch_53">
    <path clip-path="url(#p6524043809)" d="M 511.918382 675.592 
L 519.230133 675.592 
L 519.230133 138.961291 
L 511.918382 138.961291 
z
" style="fill:#808080;opacity:0.2;"/>
   </g>
   <g id="patch_54">
    <path clip-path="url(#p6524043809)" d="M 521.05807 675.592 
L 528.369821 675.592 
L 528.369821 210.302357 
L 521.05807 210.302357 
z
" style="fill:#808080;opacity:0.2;"/>
   </g>
   <g id="patch_55">
    <path clip-path="url(#p6524043809)" d="M 530.197759 675.592 
L 537.509509 675.592 
L 537.509509 270.726732 
L 530.197759 270.726732 
z
" style="fill:#808080;opacity:0.2;"/>
   </g>
   <g id="patch_56">
    <path clip-path="url(#p6524043809)" d="M 539.337447 675.592 
L 546.649198 675.592 
L 546.649198 257.609004 
L 539.337447 257.609004 
z
" style="fill:#808080;opacity:0.2;"/>
   </g>
   <g id="patch_57">
    <path clip-path="url(#p6524043809)" d="M 548.477135 675.592 
L 555.788886 675.592 
L 555.788886 294.669477 
L 548.477135 294.669477 
z
" style="fill:#808080;opacity:0.2;"/>
   </g>
   <g id="patch_58">
    <path clip-path="url(#p6524043809)" d="M 557.616824 675.592 
L 564.928574 675.592 
L 564.928574 273.915411 
L 557.616824 273.915411 
z
" style="fill:#808080;opacity:0.2;"/>
   </g>
   <g id="patch_59">
    <path clip-path="url(#p6524043809)" d="M 566.756512 675.592 
L 574.068262 675.592 
L 574.068262 273.372388 
L 566.756512 273.372388 
z
" style="fill:#808080;opacity:0.2;"/>
   </g>
   <g id="patch_60">
    <path clip-path="url(#p6524043809)" d="M 575.8962 675.592 
L 583.207951 675.592 
L 583.207951 252.88166 
L 575.8962 252.88166 
z
" style="fill:#808080;opacity:0.2;"/>
   </g>
   <g id="patch_61">
    <path clip-path="url(#p6524043809)" d="M 585.035888 675.592 
L 592.347639 675.592 
L 592.347639 220.039983 
L 585.035888 220.039983 
z
" style="fill:#808080;opacity:0.2;"/>
   </g>
   <g id="patch_62">
    <path clip-path="url(#p6524043809)" d="M 594.175577 675.592 
L 601.487327 675.592 
L 601.487327 243.924044 
L 594.175577 243.924044 
z
" style="fill:#808080;opacity:0.2;"/>
   </g>
   <g id="patch_63">
    <path clip-path="url(#p6524043809)" d="M 603.315265 675.592 
L 610.627015 675.592 
L 610.627015 213.670179 
L 603.315265 213.670179 
z
" style="fill:#808080;opacity:0.2;"/>
   </g>
   <g id="patch_64">
    <path clip-path="url(#p6524043809)" d="M 612.454953 675.592 
L 619.766704 675.592 
L 619.766704 244.613693 
L 612.454953 244.613693 
z
" style="fill:#808080;opacity:0.2;"/>
   </g>
   <g id="patch_65">
    <path clip-path="url(#p6524043809)" d="M 621.594641 675.592 
L 628.906392 675.592 
L 628.906392 277.925935 
L 621.594641 277.925935 
z
" style="fill:#808080;opacity:0.2;"/>
   </g>
   <g id="patch_66">
    <path clip-path="url(#p6524043809)" d="M 630.73433 675.592 
L 638.04608 675.592 
L 638.04608 252.302147 
L 630.73433 252.302147 
z
" style="fill:#808080;opacity:0.2;"/>
   </g>
   <g id="patch_67">
    <path clip-path="url(#p6524043809)" d="M 639.874018 675.592 
L 647.185769 675.592 
L 647.185769 254.759709 
L 639.874018 254.759709 
z
" style="fill:#808080;opacity:0.2;"/>
   </g>
   <g id="patch_68">
    <path clip-path="url(#p6524043809)" d="M 649.013706 675.592 
L 656.325457 675.592 
L 656.325457 175.471693 
L 649.013706 175.471693 
z
" style="fill:#808080;opacity:0.2;"/>
   </g>
   <g id="patch_69">
    <path clip-path="url(#p6524043809)" d="M 658.153394 675.592 
L 665.465145 675.592 
L 665.465145 187.551374 
L 658.153394 187.551374 
z
" style="fill:#808080;opacity:0.2;"/>
   </g>
   <g id="patch_70">
    <path clip-path="url(#p6524043809)" d="M 667.293083 675.592 
L 674.604833 675.592 
L 674.604833 240.69943 
L 667.293083 240.69943 
z
" style="fill:#808080;opacity:0.2;"/>
   </g>
   <g id="patch_71">
    <path clip-path="url(#p6524043809)" d="M 676.432771 675.592 
L 683.744522 675.592 
L 683.744522 233.813826 
L 676.432771 233.813826 
z
" style="fill:#808080;opacity:0.2;"/>
   </g>
   <g id="patch_72">
    <path clip-path="url(#p6524043809)" d="M 685.572459 675.592 
L 692.88421 675.592 
L 692.88421 296.440734 
L 685.572459 296.440734 
z
" style="fill:#808080;opacity:0.2;"/>
   </g>
   <g id="matplotlib.axis_1">
    <g id="xtick_1">
     <g id="line2d_1">
      <defs>
       <path d="M 0 0 
L 0 3.5 
" id="m2d5ef1e5bc" style="stroke:#000000;stroke-width:0.8;"/>
      </defs>
      <g>
       <use style="stroke:#000000;stroke-width:0.8;" x="54.02" xlink:href="#m2d5ef1e5bc" y="675.592"/>
      </g>
     </g>
     <g id="text_1">
      <!-- −5 -->
      <defs>
       <path d="M 10.59375 35.5 
L 73.1875 35.5 
L 73.1875 27.203125 
L 10.59375 27.203125 
z
" id="DejaVuSans-8722"/>
       <path d="M 10.796875 72.90625 
L 49.515625 72.90625 
L 49.515625 64.59375 
L 19.828125 64.59375 
L 19.828125 46.734375 
Q 21.96875 47.46875 24.109375 47.828125 
Q 26.265625 48.1875 28.421875 48.1875 
Q 40.625 48.1875 47.75 41.5 
Q 54.890625 34.8125 54.890625 23.390625 
Q 54.890625 11.625 47.5625 5.09375 
Q 40.234375 -1.421875 26.90625 -1.421875 
Q 22.3125 -1.421875 17.546875 -0.640625 
Q 12.796875 0.140625 7.71875 1.703125 
L 7.71875 11.625 
Q 12.109375 9.234375 16.796875 8.0625 
Q 21.484375 6.890625 26.703125 6.890625 
Q 35.15625 6.890625 40.078125 11.328125 
Q 45.015625 15.765625 45.015625 23.390625 
Q 45.015625 31 40.078125 35.4375 
Q 35.15625 39.890625 26.703125 39.890625 
Q 22.75 39.890625 18.8125 39.015625 
Q 14.890625 38.140625 10.796875 36.28125 
z
" id="DejaVuSans-53"/>
      </defs>
      <g transform="translate(46.648906 690.190437)scale(0.1 -0.1)">
       <use xlink:href="#DejaVuSans-8722"/>
       <use x="83.789062" xlink:href="#DejaVuSans-53"/>
      </g>
     </g>
    </g>
    <g id="xtick_2">
     <g id="line2d_2">
      <g>
       <use style="stroke:#000000;stroke-width:0.8;" x="145.416883" xlink:href="#m2d5ef1e5bc" y="675.592"/>
      </g>
     </g>
     <g id="text_2">
      <!-- −4 -->
      <defs>
       <path d="M 37.796875 64.3125 
L 12.890625 25.390625 
L 37.796875 25.390625 
z
M 35.203125 72.90625 
L 47.609375 72.90625 
L 47.609375 25.390625 
L 58.015625 25.390625 
L 58.015625 17.1875 
L 47.609375 17.1875 
L 47.609375 0 
L 37.796875 0 
L 37.796875 17.1875 
L 4.890625 17.1875 
L 4.890625 26.703125 
z
" id="DejaVuSans-52"/>
      </defs>
      <g transform="translate(138.045789 690.190437)scale(0.1 -0.1)">
       <use xlink:href="#DejaVuSans-8722"/>
       <use x="83.789062" xlink:href="#DejaVuSans-52"/>
      </g>
     </g>
    </g>
    <g id="xtick_3">
     <g id="line2d_3">
      <g>
       <use style="stroke:#000000;stroke-width:0.8;" x="236.813765" xlink:href="#m2d5ef1e5bc" y="675.592"/>
      </g>
     </g>
     <g id="text_3">
      <!-- −3 -->
      <defs>
       <path d="M 40.578125 39.3125 
Q 47.65625 37.796875 51.625 33 
Q 55.609375 28.21875 55.609375 21.1875 
Q 55.609375 10.40625 48.1875 4.484375 
Q 40.765625 -1.421875 27.09375 -1.421875 
Q 22.515625 -1.421875 17.65625 -0.515625 
Q 12.796875 0.390625 7.625 2.203125 
L 7.625 11.71875 
Q 11.71875 9.328125 16.59375 8.109375 
Q 21.484375 6.890625 26.8125 6.890625 
Q 36.078125 6.890625 40.9375 10.546875 
Q 45.796875 14.203125 45.796875 21.1875 
Q 45.796875 27.640625 41.28125 31.265625 
Q 36.765625 34.90625 28.71875 34.90625 
L 20.21875 34.90625 
L 20.21875 43.015625 
L 29.109375 43.015625 
Q 36.375 43.015625 40.234375 45.921875 
Q 44.09375 48.828125 44.09375 54.296875 
Q 44.09375 59.90625 40.109375 62.90625 
Q 36.140625 65.921875 28.71875 65.921875 
Q 24.65625 65.921875 20.015625 65.03125 
Q 15.375 64.15625 9.8125 62.3125 
L 9.8125 71.09375 
Q 15.4375 72.65625 20.34375 73.4375 
Q 25.25 74.21875 29.59375 74.21875 
Q 40.828125 74.21875 47.359375 69.109375 
Q 53.90625 64.015625 53.90625 55.328125 
Q 53.90625 49.265625 50.4375 45.09375 
Q 46.96875 40.921875 40.578125 39.3125 
z
" id="DejaVuSans-51"/>
      </defs>
      <g transform="translate(229.442672 690.190437)scale(0.1 -0.1)">
       <use xlink:href="#DejaVuSans-8722"/>
       <use x="83.789062" xlink:href="#DejaVuSans-51"/>
      </g>
     </g>
    </g>
    <g id="xtick_4">
     <g id="line2d_4">
      <g>
       <use style="stroke:#000000;stroke-width:0.8;" x="328.210648" xlink:href="#m2d5ef1e5bc" y="675.592"/>
      </g>
     </g>
     <g id="text_4">
      <!-- −2 -->
      <defs>
       <path d="M 19.1875 8.296875 
L 53.609375 8.296875 
L 53.609375 0 
L 7.328125 0 
L 7.328125 8.296875 
Q 12.9375 14.109375 22.625 23.890625 
Q 32.328125 33.6875 34.8125 36.53125 
Q 39.546875 41.84375 41.421875 45.53125 
Q 43.3125 49.21875 43.3125 52.78125 
Q 43.3125 58.59375 39.234375 62.25 
Q 35.15625 65.921875 28.609375 65.921875 
Q 23.96875 65.921875 18.8125 64.3125 
Q 13.671875 62.703125 7.8125 59.421875 
L 7.8125 69.390625 
Q 13.765625 71.78125 18.9375 73 
Q 24.125 74.21875 28.421875 74.21875 
Q 39.75 74.21875 46.484375 68.546875 
Q 53.21875 62.890625 53.21875 53.421875 
Q 53.21875 48.921875 51.53125 44.890625 
Q 49.859375 40.875 45.40625 35.40625 
Q 44.1875 33.984375 37.640625 27.21875 
Q 31.109375 20.453125 19.1875 8.296875 
z
" id="DejaVuSans-50"/>
      </defs>
      <g transform="translate(320.839554 690.190437)scale(0.1 -0.1)">
       <use xlink:href="#DejaVuSans-8722"/>
       <use x="83.789062" xlink:href="#DejaVuSans-50"/>
      </g>
     </g>
    </g>
    <g id="xtick_5">
     <g id="line2d_5">
      <g>
       <use style="stroke:#000000;stroke-width:0.8;" x="419.607531" xlink:href="#m2d5ef1e5bc" y="675.592"/>
      </g>
     </g>
     <g id="text_5">
      <!-- −1 -->
      <defs>
       <path d="M 12.40625 8.296875 
L 28.515625 8.296875 
L 28.515625 63.921875 
L 10.984375 60.40625 
L 10.984375 69.390625 
L 28.421875 72.90625 
L 38.28125 72.90625 
L 38.28125 8.296875 
L 54.390625 8.296875 
L 54.390625 0 
L 12.40625 0 
z
" id="DejaVuSans-49"/>
      </defs>
      <g transform="translate(412.236437 690.190437)scale(0.1 -0.1)">
       <use xlink:href="#DejaVuSans-8722"/>
       <use x="83.789062" xlink:href="#DejaVuSans-49"/>
      </g>
     </g>
    </g>
    <g id="xtick_6">
     <g id="line2d_6">
      <g>
       <use style="stroke:#000000;stroke-width:0.8;" x="511.004413" xlink:href="#m2d5ef1e5bc" y="675.592"/>
      </g>
     </g>
     <g id="text_6">
      <!-- 0 -->
      <defs>
       <path d="M 31.78125 66.40625 
Q 24.171875 66.40625 20.328125 58.90625 
Q 16.5 51.421875 16.5 36.375 
Q 16.5 21.390625 20.328125 13.890625 
Q 24.171875 6.390625 31.78125 6.390625 
Q 39.453125 6.390625 43.28125 13.890625 
Q 47.125 21.390625 47.125 36.375 
Q 47.125 51.421875 43.28125 58.90625 
Q 39.453125 66.40625 31.78125 66.40625 
z
M 31.78125 74.21875 
Q 44.046875 74.21875 50.515625 64.515625 
Q 56.984375 54.828125 56.984375 36.375 
Q 56.984375 17.96875 50.515625 8.265625 
Q 44.046875 -1.421875 31.78125 -1.421875 
Q 19.53125 -1.421875 13.0625 8.265625 
Q 6.59375 17.96875 6.59375 36.375 
Q 6.59375 54.828125 13.0625 64.515625 
Q 19.53125 74.21875 31.78125 74.21875 
z
" id="DejaVuSans-48"/>
      </defs>
      <g transform="translate(507.823163 690.190437)scale(0.1 -0.1)">
       <use xlink:href="#DejaVuSans-48"/>
      </g>
     </g>
    </g>
    <g id="xtick_7">
     <g id="line2d_7">
      <g>
       <use style="stroke:#000000;stroke-width:0.8;" x="602.401296" xlink:href="#m2d5ef1e5bc" y="675.592"/>
      </g>
     </g>
     <g id="text_7">
      <!-- 1 -->
      <g transform="translate(599.220046 690.190437)scale(0.1 -0.1)">
       <use xlink:href="#DejaVuSans-49"/>
      </g>
     </g>
    </g>
    <g id="xtick_8">
     <g id="line2d_8">
      <g>
       <use style="stroke:#000000;stroke-width:0.8;" x="693.798179" xlink:href="#m2d5ef1e5bc" y="675.592"/>
      </g>
     </g>
     <g id="text_8">
      <!-- 2 -->
      <g transform="translate(690.616929 690.190437)scale(0.1 -0.1)">
       <use xlink:href="#DejaVuSans-50"/>
      </g>
     </g>
    </g>
    <g id="text_9">
     <!-- ln $K_\mathrm{S}$ -->
     <defs>
      <path d="M 9.421875 75.984375 
L 18.40625 75.984375 
L 18.40625 0 
L 9.421875 0 
z
" id="DejaVuSans-108"/>
      <path d="M 54.890625 33.015625 
L 54.890625 0 
L 45.90625 0 
L 45.90625 32.71875 
Q 45.90625 40.484375 42.875 44.328125 
Q 39.84375 48.1875 33.796875 48.1875 
Q 26.515625 48.1875 22.3125 43.546875 
Q 18.109375 38.921875 18.109375 30.90625 
L 18.109375 0 
L 9.078125 0 
L 9.078125 54.6875 
L 18.109375 54.6875 
L 18.109375 46.1875 
Q 21.34375 51.125 25.703125 53.5625 
Q 30.078125 56 35.796875 56 
Q 45.21875 56 50.046875 50.171875 
Q 54.890625 44.34375 54.890625 33.015625 
z
" id="DejaVuSans-110"/>
      <path id="DejaVuSans-32"/>
      <path d="M 16.890625 72.90625 
L 26.8125 72.90625 
L 20.796875 42.1875 
L 59.078125 72.90625 
L 72.21875 72.90625 
L 28.90625 38.09375 
L 60.59375 0 
L 48.578125 0 
L 19.484375 35.5 
L 12.59375 0 
L 2.6875 0 
z
" id="DejaVuSans-Oblique-75"/>
      <path d="M 53.515625 70.515625 
L 53.515625 60.890625 
Q 47.90625 63.578125 42.921875 64.890625 
Q 37.9375 66.21875 33.296875 66.21875 
Q 25.25 66.21875 20.875 63.09375 
Q 16.5 59.96875 16.5 54.203125 
Q 16.5 49.359375 19.40625 46.890625 
Q 22.3125 44.4375 30.421875 42.921875 
L 36.375 41.703125 
Q 47.40625 39.59375 52.65625 34.296875 
Q 57.90625 29 57.90625 20.125 
Q 57.90625 9.515625 50.796875 4.046875 
Q 43.703125 -1.421875 29.984375 -1.421875 
Q 24.8125 -1.421875 18.96875 -0.25 
Q 13.140625 0.921875 6.890625 3.21875 
L 6.890625 13.375 
Q 12.890625 10.015625 18.65625 8.296875 
Q 24.421875 6.59375 29.984375 6.59375 
Q 38.421875 6.59375 43.015625 9.90625 
Q 47.609375 13.234375 47.609375 19.390625 
Q 47.609375 24.75 44.3125 27.78125 
Q 41.015625 30.8125 33.5 32.328125 
L 27.484375 33.5 
Q 16.453125 35.6875 11.515625 40.375 
Q 6.59375 45.0625 6.59375 53.421875 
Q 6.59375 63.09375 13.40625 68.65625 
Q 20.21875 74.21875 32.171875 74.21875 
Q 37.3125 74.21875 42.625 73.28125 
Q 47.953125 72.359375 53.515625 70.515625 
z
" id="DejaVuSans-83"/>
     </defs>
     <g transform="translate(362.109089 703.868562)scale(0.1 -0.1)">
      <use transform="translate(0 0.015625)" xlink:href="#DejaVuSans-108"/>
      <use transform="translate(27.783203 0.015625)" xlink:href="#DejaVuSans-110"/>
      <use transform="translate(91.162109 0.015625)" xlink:href="#DejaVuSans-32"/>
      <use transform="translate(122.949219 0.015625)" xlink:href="#DejaVuSans-Oblique-75"/>
      <use transform="translate(188.525391 -16.390625)scale(0.7)" xlink:href="#DejaVuSans-83"/>
     </g>
    </g>
   </g>
   <g id="matplotlib.axis_2">
    <g id="ytick_1">
     <g id="line2d_9">
      <defs>
       <path d="M 0 0 
L -3.5 0 
" id="m164bac9903" style="stroke:#000000;stroke-width:0.8;"/>
      </defs>
      <g>
       <use style="stroke:#000000;stroke-width:0.8;" x="54.02" xlink:href="#m164bac9903" y="675.592"/>
      </g>
     </g>
     <g id="text_10">
      <!-- 0.00 -->
      <defs>
       <path d="M 10.6875 12.40625 
L 21 12.40625 
L 21 0 
L 10.6875 0 
z
" id="DejaVuSans-46"/>
      </defs>
      <g transform="translate(24.754375 679.391219)scale(0.1 -0.1)">
       <use xlink:href="#DejaVuSans-48"/>
       <use x="63.623047" xlink:href="#DejaVuSans-46"/>
       <use x="95.410156" xlink:href="#DejaVuSans-48"/>
       <use x="159.033203" xlink:href="#DejaVuSans-48"/>
      </g>
     </g>
    </g>
    <g id="ytick_2">
     <g id="line2d_10">
      <g>
       <use style="stroke:#000000;stroke-width:0.8;" x="54.02" xlink:href="#m164bac9903" y="567.65555"/>
      </g>
     </g>
     <g id="text_11">
      <!-- 0.05 -->
      <g transform="translate(24.754375 571.454769)scale(0.1 -0.1)">
       <use xlink:href="#DejaVuSans-48"/>
       <use x="63.623047" xlink:href="#DejaVuSans-46"/>
       <use x="95.410156" xlink:href="#DejaVuSans-48"/>
       <use x="159.033203" xlink:href="#DejaVuSans-53"/>
      </g>
     </g>
    </g>
    <g id="ytick_3">
     <g id="line2d_11">
      <g>
       <use style="stroke:#000000;stroke-width:0.8;" x="54.02" xlink:href="#m164bac9903" y="459.719101"/>
      </g>
     </g>
     <g id="text_12">
      <!-- 0.10 -->
      <g transform="translate(24.754375 463.518319)scale(0.1 -0.1)">
       <use xlink:href="#DejaVuSans-48"/>
       <use x="63.623047" xlink:href="#DejaVuSans-46"/>
       <use x="95.410156" xlink:href="#DejaVuSans-49"/>
       <use x="159.033203" xlink:href="#DejaVuSans-48"/>
      </g>
     </g>
    </g>
    <g id="ytick_4">
     <g id="line2d_12">
      <g>
       <use style="stroke:#000000;stroke-width:0.8;" x="54.02" xlink:href="#m164bac9903" y="351.782651"/>
      </g>
     </g>
     <g id="text_13">
      <!-- 0.15 -->
      <g transform="translate(24.754375 355.58187)scale(0.1 -0.1)">
       <use xlink:href="#DejaVuSans-48"/>
       <use x="63.623047" xlink:href="#DejaVuSans-46"/>
       <use x="95.410156" xlink:href="#DejaVuSans-49"/>
       <use x="159.033203" xlink:href="#DejaVuSans-53"/>
      </g>
     </g>
    </g>
    <g id="ytick_5">
     <g id="line2d_13">
      <g>
       <use style="stroke:#000000;stroke-width:0.8;" x="54.02" xlink:href="#m164bac9903" y="243.846201"/>
      </g>
     </g>
     <g id="text_14">
      <!-- 0.20 -->
      <g transform="translate(24.754375 247.64542)scale(0.1 -0.1)">
       <use xlink:href="#DejaVuSans-48"/>
       <use x="63.623047" xlink:href="#DejaVuSans-46"/>
       <use x="95.410156" xlink:href="#DejaVuSans-50"/>
       <use x="159.033203" xlink:href="#DejaVuSans-48"/>
      </g>
     </g>
    </g>
    <g id="ytick_6">
     <g id="line2d_14">
      <g>
       <use style="stroke:#000000;stroke-width:0.8;" x="54.02" xlink:href="#m164bac9903" y="135.909751"/>
      </g>
     </g>
     <g id="text_15">
      <!-- 0.25 -->
      <g transform="translate(24.754375 139.70897)scale(0.1 -0.1)">
       <use xlink:href="#DejaVuSans-48"/>
       <use x="63.623047" xlink:href="#DejaVuSans-46"/>
       <use x="95.410156" xlink:href="#DejaVuSans-50"/>
       <use x="159.033203" xlink:href="#DejaVuSans-53"/>
      </g>
     </g>
    </g>
    <g id="text_16">
     <!-- Density of retained duplicates -->
     <defs>
      <path d="M 19.671875 64.796875 
L 19.671875 8.109375 
L 31.59375 8.109375 
Q 46.6875 8.109375 53.6875 14.9375 
Q 60.6875 21.78125 60.6875 36.53125 
Q 60.6875 51.171875 53.6875 57.984375 
Q 46.6875 64.796875 31.59375 64.796875 
z
M 9.8125 72.90625 
L 30.078125 72.90625 
Q 51.265625 72.90625 61.171875 64.09375 
Q 71.09375 55.28125 71.09375 36.53125 
Q 71.09375 17.671875 61.125 8.828125 
Q 51.171875 0 30.078125 0 
L 9.8125 0 
z
" id="DejaVuSans-68"/>
      <path d="M 56.203125 29.59375 
L 56.203125 25.203125 
L 14.890625 25.203125 
Q 15.484375 15.921875 20.484375 11.0625 
Q 25.484375 6.203125 34.421875 6.203125 
Q 39.59375 6.203125 44.453125 7.46875 
Q 49.3125 8.734375 54.109375 11.28125 
L 54.109375 2.78125 
Q 49.265625 0.734375 44.1875 -0.34375 
Q 39.109375 -1.421875 33.890625 -1.421875 
Q 20.796875 -1.421875 13.15625 6.1875 
Q 5.515625 13.8125 5.515625 26.8125 
Q 5.515625 40.234375 12.765625 48.109375 
Q 20.015625 56 32.328125 56 
Q 43.359375 56 49.78125 48.890625 
Q 56.203125 41.796875 56.203125 29.59375 
z
M 47.21875 32.234375 
Q 47.125 39.59375 43.09375 43.984375 
Q 39.0625 48.390625 32.421875 48.390625 
Q 24.90625 48.390625 20.390625 44.140625 
Q 15.875 39.890625 15.1875 32.171875 
z
" id="DejaVuSans-101"/>
      <path d="M 44.28125 53.078125 
L 44.28125 44.578125 
Q 40.484375 46.53125 36.375 47.5 
Q 32.28125 48.484375 27.875 48.484375 
Q 21.1875 48.484375 17.84375 46.4375 
Q 14.5 44.390625 14.5 40.28125 
Q 14.5 37.15625 16.890625 35.375 
Q 19.28125 33.59375 26.515625 31.984375 
L 29.59375 31.296875 
Q 39.15625 29.25 43.1875 25.515625 
Q 47.21875 21.78125 47.21875 15.09375 
Q 47.21875 7.46875 41.1875 3.015625 
Q 35.15625 -1.421875 24.609375 -1.421875 
Q 20.21875 -1.421875 15.453125 -0.5625 
Q 10.6875 0.296875 5.421875 2 
L 5.421875 11.28125 
Q 10.40625 8.6875 15.234375 7.390625 
Q 20.0625 6.109375 24.8125 6.109375 
Q 31.15625 6.109375 34.5625 8.28125 
Q 37.984375 10.453125 37.984375 14.40625 
Q 37.984375 18.0625 35.515625 20.015625 
Q 33.0625 21.96875 24.703125 23.78125 
L 21.578125 24.515625 
Q 13.234375 26.265625 9.515625 29.90625 
Q 5.8125 33.546875 5.8125 39.890625 
Q 5.8125 47.609375 11.28125 51.796875 
Q 16.75 56 26.8125 56 
Q 31.78125 56 36.171875 55.265625 
Q 40.578125 54.546875 44.28125 53.078125 
z
" id="DejaVuSans-115"/>
      <path d="M 9.421875 54.6875 
L 18.40625 54.6875 
L 18.40625 0 
L 9.421875 0 
z
M 9.421875 75.984375 
L 18.40625 75.984375 
L 18.40625 64.59375 
L 9.421875 64.59375 
z
" id="DejaVuSans-105"/>
      <path d="M 18.3125 70.21875 
L 18.3125 54.6875 
L 36.8125 54.6875 
L 36.8125 47.703125 
L 18.3125 47.703125 
L 18.3125 18.015625 
Q 18.3125 11.328125 20.140625 9.421875 
Q 21.96875 7.515625 27.59375 7.515625 
L 36.8125 7.515625 
L 36.8125 0 
L 27.59375 0 
Q 17.1875 0 13.234375 3.875 
Q 9.28125 7.765625 9.28125 18.015625 
L 9.28125 47.703125 
L 2.6875 47.703125 
L 2.6875 54.6875 
L 9.28125 54.6875 
L 9.28125 70.21875 
z
" id="DejaVuSans-116"/>
      <path d="M 32.171875 -5.078125 
Q 28.375 -14.84375 24.75 -17.8125 
Q 21.140625 -20.796875 15.09375 -20.796875 
L 7.90625 -20.796875 
L 7.90625 -13.28125 
L 13.1875 -13.28125 
Q 16.890625 -13.28125 18.9375 -11.515625 
Q 21 -9.765625 23.484375 -3.21875 
L 25.09375 0.875 
L 2.984375 54.6875 
L 12.5 54.6875 
L 29.59375 11.921875 
L 46.6875 54.6875 
L 56.203125 54.6875 
z
" id="DejaVuSans-121"/>
      <path d="M 30.609375 48.390625 
Q 23.390625 48.390625 19.1875 42.75 
Q 14.984375 37.109375 14.984375 27.296875 
Q 14.984375 17.484375 19.15625 11.84375 
Q 23.34375 6.203125 30.609375 6.203125 
Q 37.796875 6.203125 41.984375 11.859375 
Q 46.1875 17.53125 46.1875 27.296875 
Q 46.1875 37.015625 41.984375 42.703125 
Q 37.796875 48.390625 30.609375 48.390625 
z
M 30.609375 56 
Q 42.328125 56 49.015625 48.375 
Q 55.71875 40.765625 55.71875 27.296875 
Q 55.71875 13.875 49.015625 6.21875 
Q 42.328125 -1.421875 30.609375 -1.421875 
Q 18.84375 -1.421875 12.171875 6.21875 
Q 5.515625 13.875 5.515625 27.296875 
Q 5.515625 40.765625 12.171875 48.375 
Q 18.84375 56 30.609375 56 
z
" id="DejaVuSans-111"/>
      <path d="M 37.109375 75.984375 
L 37.109375 68.5 
L 28.515625 68.5 
Q 23.6875 68.5 21.796875 66.546875 
Q 19.921875 64.59375 19.921875 59.515625 
L 19.921875 54.6875 
L 34.71875 54.6875 
L 34.71875 47.703125 
L 19.921875 47.703125 
L 19.921875 0 
L 10.890625 0 
L 10.890625 47.703125 
L 2.296875 47.703125 
L 2.296875 54.6875 
L 10.890625 54.6875 
L 10.890625 58.5 
Q 10.890625 67.625 15.140625 71.796875 
Q 19.390625 75.984375 28.609375 75.984375 
z
" id="DejaVuSans-102"/>
      <path d="M 41.109375 46.296875 
Q 39.59375 47.171875 37.8125 47.578125 
Q 36.03125 48 33.890625 48 
Q 26.265625 48 22.1875 43.046875 
Q 18.109375 38.09375 18.109375 28.8125 
L 18.109375 0 
L 9.078125 0 
L 9.078125 54.6875 
L 18.109375 54.6875 
L 18.109375 46.1875 
Q 20.953125 51.171875 25.484375 53.578125 
Q 30.03125 56 36.53125 56 
Q 37.453125 56 38.578125 55.875 
Q 39.703125 55.765625 41.0625 55.515625 
z
" id="DejaVuSans-114"/>
      <path d="M 34.28125 27.484375 
Q 23.390625 27.484375 19.1875 25 
Q 14.984375 22.515625 14.984375 16.5 
Q 14.984375 11.71875 18.140625 8.90625 
Q 21.296875 6.109375 26.703125 6.109375 
Q 34.1875 6.109375 38.703125 11.40625 
Q 43.21875 16.703125 43.21875 25.484375 
L 43.21875 27.484375 
z
M 52.203125 31.203125 
L 52.203125 0 
L 43.21875 0 
L 43.21875 8.296875 
Q 40.140625 3.328125 35.546875 0.953125 
Q 30.953125 -1.421875 24.3125 -1.421875 
Q 15.921875 -1.421875 10.953125 3.296875 
Q 6 8.015625 6 15.921875 
Q 6 25.140625 12.171875 29.828125 
Q 18.359375 34.515625 30.609375 34.515625 
L 43.21875 34.515625 
L 43.21875 35.40625 
Q 43.21875 41.609375 39.140625 45 
Q 35.0625 48.390625 27.6875 48.390625 
Q 23 48.390625 18.546875 47.265625 
Q 14.109375 46.140625 10.015625 43.890625 
L 10.015625 52.203125 
Q 14.9375 54.109375 19.578125 55.046875 
Q 24.21875 56 28.609375 56 
Q 40.484375 56 46.34375 49.84375 
Q 52.203125 43.703125 52.203125 31.203125 
z
" id="DejaVuSans-97"/>
      <path d="M 45.40625 46.390625 
L 45.40625 75.984375 
L 54.390625 75.984375 
L 54.390625 0 
L 45.40625 0 
L 45.40625 8.203125 
Q 42.578125 3.328125 38.25 0.953125 
Q 33.9375 -1.421875 27.875 -1.421875 
Q 17.96875 -1.421875 11.734375 6.484375 
Q 5.515625 14.40625 5.515625 27.296875 
Q 5.515625 40.1875 11.734375 48.09375 
Q 17.96875 56 27.875 56 
Q 33.9375 56 38.25 53.625 
Q 42.578125 51.265625 45.40625 46.390625 
z
M 14.796875 27.296875 
Q 14.796875 17.390625 18.875 11.75 
Q 22.953125 6.109375 30.078125 6.109375 
Q 37.203125 6.109375 41.296875 11.75 
Q 45.40625 17.390625 45.40625 27.296875 
Q 45.40625 37.203125 41.296875 42.84375 
Q 37.203125 48.484375 30.078125 48.484375 
Q 22.953125 48.484375 18.875 42.84375 
Q 14.796875 37.203125 14.796875 27.296875 
z
" id="DejaVuSans-100"/>
      <path d="M 8.5 21.578125 
L 8.5 54.6875 
L 17.484375 54.6875 
L 17.484375 21.921875 
Q 17.484375 14.15625 20.5 10.265625 
Q 23.53125 6.390625 29.59375 6.390625 
Q 36.859375 6.390625 41.078125 11.03125 
Q 45.3125 15.671875 45.3125 23.6875 
L 45.3125 54.6875 
L 54.296875 54.6875 
L 54.296875 0 
L 45.3125 0 
L 45.3125 8.40625 
Q 42.046875 3.421875 37.71875 1 
Q 33.40625 -1.421875 27.6875 -1.421875 
Q 18.265625 -1.421875 13.375 4.4375 
Q 8.5 10.296875 8.5 21.578125 
z
M 31.109375 56 
z
" id="DejaVuSans-117"/>
      <path d="M 18.109375 8.203125 
L 18.109375 -20.796875 
L 9.078125 -20.796875 
L 9.078125 54.6875 
L 18.109375 54.6875 
L 18.109375 46.390625 
Q 20.953125 51.265625 25.265625 53.625 
Q 29.59375 56 35.59375 56 
Q 45.5625 56 51.78125 48.09375 
Q 58.015625 40.1875 58.015625 27.296875 
Q 58.015625 14.40625 51.78125 6.484375 
Q 45.5625 -1.421875 35.59375 -1.421875 
Q 29.59375 -1.421875 25.265625 0.953125 
Q 20.953125 3.328125 18.109375 8.203125 
z
M 48.6875 27.296875 
Q 48.6875 37.203125 44.609375 42.84375 
Q 40.53125 48.484375 33.40625 48.484375 
Q 26.265625 48.484375 22.1875 42.84375 
Q 18.109375 37.203125 18.109375 27.296875 
Q 18.109375 17.390625 22.1875 11.75 
Q 26.265625 6.109375 33.40625 6.109375 
Q 40.53125 6.109375 44.609375 11.75 
Q 48.6875 17.390625 48.6875 27.296875 
z
" id="DejaVuSans-112"/>
      <path d="M 48.78125 52.59375 
L 48.78125 44.1875 
Q 44.96875 46.296875 41.140625 47.34375 
Q 37.3125 48.390625 33.40625 48.390625 
Q 24.65625 48.390625 19.8125 42.84375 
Q 14.984375 37.3125 14.984375 27.296875 
Q 14.984375 17.28125 19.8125 11.734375 
Q 24.65625 6.203125 33.40625 6.203125 
Q 37.3125 6.203125 41.140625 7.25 
Q 44.96875 8.296875 48.78125 10.40625 
L 48.78125 2.09375 
Q 45.015625 0.34375 40.984375 -0.53125 
Q 36.96875 -1.421875 32.421875 -1.421875 
Q 20.0625 -1.421875 12.78125 6.34375 
Q 5.515625 14.109375 5.515625 27.296875 
Q 5.515625 40.671875 12.859375 48.328125 
Q 20.21875 56 33.015625 56 
Q 37.15625 56 41.109375 55.140625 
Q 45.0625 54.296875 48.78125 52.59375 
z
" id="DejaVuSans-99"/>
     </defs>
     <g transform="translate(18.674688 427.153656)rotate(-90)scale(0.1 -0.1)">
      <use xlink:href="#DejaVuSans-68"/>
      <use x="77.001953" xlink:href="#DejaVuSans-101"/>
      <use x="138.525391" xlink:href="#DejaVuSans-110"/>
      <use x="201.904297" xlink:href="#DejaVuSans-115"/>
      <use x="254.003906" xlink:href="#DejaVuSans-105"/>
      <use x="281.787109" xlink:href="#DejaVuSans-116"/>
      <use x="320.996094" xlink:href="#DejaVuSans-121"/>
      <use x="380.175781" xlink:href="#DejaVuSans-32"/>
      <use x="411.962891" xlink:href="#DejaVuSans-111"/>
      <use x="473.144531" xlink:href="#DejaVuSans-102"/>
      <use x="508.349609" xlink:href="#DejaVuSans-32"/>
      <use x="540.136719" xlink:href="#DejaVuSans-114"/>
      <use x="579" xlink:href="#DejaVuSans-101"/>
      <use x="640.523438" xlink:href="#DejaVuSans-116"/>
      <use x="679.732422" xlink:href="#DejaVuSans-97"/>
      <use x="741.011719" xlink:href="#DejaVuSans-105"/>
      <use x="768.794922" xlink:href="#DejaVuSans-110"/>
      <use x="832.173828" xlink:href="#DejaVuSans-101"/>
      <use x="893.697266" xlink:href="#DejaVuSans-100"/>
      <use x="957.173828" xlink:href="#DejaVuSans-32"/>
      <use x="988.960938" xlink:href="#DejaVuSans-100"/>
      <use x="1052.4375" xlink:href="#DejaVuSans-117"/>
      <use x="1115.816406" xlink:href="#DejaVuSans-112"/>
      <use x="1179.292969" xlink:href="#DejaVuSans-108"/>
      <use x="1207.076172" xlink:href="#DejaVuSans-105"/>
      <use x="1234.859375" xlink:href="#DejaVuSans-99"/>
      <use x="1289.839844" xlink:href="#DejaVuSans-97"/>
      <use x="1351.119141" xlink:href="#DejaVuSans-116"/>
      <use x="1390.328125" xlink:href="#DejaVuSans-101"/>
      <use x="1451.851562" xlink:href="#DejaVuSans-115"/>
     </g>
    </g>
   </g>
   <g id="line2d_15">
    <path clip-path="url(#p6524043809)" d="M -1 650.941466 
L 2.810782 648.202638 
L 7.50691 644.75924 
L 12.203039 641.612993 
L 14.551103 640.224134 
L 19.247232 637.821665 
L 26.291425 634.759839 
L 30.987554 632.596848 
L 33.335618 631.343031 
L 35.683683 629.918935 
L 38.031747 628.289674 
L 40.379811 626.428885 
L 42.727876 624.32196 
L 45.07594 621.969141 
L 47.424004 619.387595 
L 52.120133 613.689893 
L 61.512391 601.71661 
L 66.208519 596.186884 
L 70.904648 591.076362 
L 87.341099 573.790564 
L 99.08142 560.944675 
L 103.777549 556.085249 
L 108.473678 551.506906 
L 113.169806 547.18615 
L 120.214 541.087273 
L 124.910128 537.264241 
L 131.954321 531.89874 
L 138.998514 526.851526 
L 146.042708 522.096478 
L 153.086901 517.763437 
L 157.783029 514.90831 
L 162.479158 511.720847 
L 167.175287 508.012677 
L 174.21948 502.000784 
L 176.567544 500.151626 
L 178.915609 498.487993 
L 181.263673 497.035515 
L 183.611737 495.779622 
L 193.003995 491.228566 
L 195.352059 489.726686 
L 197.700123 487.940349 
L 200.048188 485.863983 
L 202.396252 483.532344 
L 207.092381 478.376637 
L 214.136574 470.444055 
L 223.528831 460.066364 
L 232.921089 449.169159 
L 235.269153 446.714178 
L 237.617218 444.556066 
L 239.965282 442.770893 
L 242.313346 441.400611 
L 244.661411 440.447301 
L 247.009475 439.876029 
L 249.357539 439.625407 
L 251.705604 439.623099 
L 254.053668 439.802325 
L 258.749797 440.540044 
L 261.097861 441.079836 
L 263.445926 441.754313 
L 265.79399 442.585983 
L 268.142054 443.5849 
L 272.838183 445.990719 
L 277.534312 448.469793 
L 279.882376 449.477553 
L 282.23044 450.188758 
L 284.578505 450.524357 
L 286.926569 450.443733 
L 289.274634 449.951268 
L 291.622698 449.095413 
L 293.970762 447.960879 
L 303.36302 442.849864 
L 305.711084 441.928473 
L 308.059148 441.280185 
L 310.407213 440.928722 
L 312.755277 440.87756 
L 315.103341 441.11395 
L 317.451406 441.61263 
L 319.79947 442.338942 
L 322.147535 443.25174 
L 326.843663 445.461118 
L 333.887856 449.233864 
L 338.583985 452.040774 
L 340.932049 453.655462 
L 343.280114 455.501903 
L 345.628178 457.646424 
L 347.976243 460.135813 
L 350.324307 462.982606 
L 352.672371 466.153964 
L 362.064629 479.784237 
L 364.412693 482.587418 
L 366.760757 484.81249 
L 369.108822 486.35072 
L 371.456886 487.153076 
L 373.80495 487.235075 
L 376.153015 486.672524 
L 378.501079 485.589155 
L 380.849144 484.138451 
L 390.241401 477.635176 
L 392.589465 476.321215 
L 397.285594 474.133973 
L 401.981723 471.995385 
L 404.329787 470.663842 
L 406.677852 469.003847 
L 409.025916 466.920708 
L 411.37398 464.348677 
L 413.722045 461.257127 
L 416.070109 457.652091 
L 418.418173 453.572997 
L 420.766238 449.08519 
L 425.462366 439.211207 
L 432.506559 423.291172 
L 441.898817 401.489482 
L 446.594946 390.160704 
L 451.291074 378.116729 
L 453.639139 371.691577 
L 455.987203 364.923683 
L 458.335267 357.763857 
L 460.683332 350.174562 
L 463.031396 342.135807 
L 467.727525 324.749642 
L 472.423654 305.975096 
L 479.467847 277.175924 
L 481.815911 268.035147 
L 484.163975 259.412309 
L 486.51204 251.4729 
L 488.860104 244.367391 
L 491.208169 238.227648 
L 493.556233 233.166214 
L 495.904297 229.277542 
L 498.252362 226.639617 
L 500.600426 225.314239 
L 502.94849 225.344679 
L 505.296555 226.75029 
L 507.644619 229.518791 
L 509.992683 233.597875 
L 512.340748 238.888406 
L 514.688812 245.241423 
L 517.036876 252.46063 
L 521.733005 268.53313 
L 526.429134 285.043059 
L 528.777198 292.858083 
L 531.125263 300.13174 
L 533.473327 306.743497 
L 535.821391 312.627831 
L 538.169456 317.76843 
L 540.51752 322.187106 
L 542.865584 325.929761 
L 545.213649 329.052034 
L 547.561713 331.606975 
L 549.909778 333.636372 
L 552.257842 335.166364 
L 554.605906 336.207127 
L 556.953971 336.755764 
L 559.302035 336.80136 
L 561.650099 336.331201 
L 563.998164 335.337436 
L 566.346228 333.823632 
L 568.694292 331.810761 
L 571.042357 329.342033 
L 573.390421 326.485911 
L 578.08655 320.01122 
L 582.782679 313.379713 
L 585.130743 310.359122 
L 587.478807 307.713134 
L 589.826872 305.551076 
L 592.174936 303.953921 
L 594.523 302.969839 
L 596.871065 302.612663 
L 599.219129 302.862937 
L 601.567193 303.670988 
L 603.915258 304.961325 
L 606.263322 306.637743 
L 608.611387 308.588611 
L 615.65558 314.843498 
L 618.003644 316.635082 
L 620.351708 318.073055 
L 622.699773 319.045042 
L 625.047837 319.45236 
L 627.395901 319.21523 
L 629.743966 318.278818 
L 632.09203 316.619836 
L 634.440094 314.253019 
L 636.788159 311.23659 
L 639.136223 307.675569 
L 643.832352 299.569264 
L 646.180416 295.445179 
L 648.528481 291.594906 
L 650.876545 288.263451 
L 653.224609 285.674128 
L 655.572674 284.007311 
L 657.920738 283.382126 
L 660.268802 283.843847 
L 662.616867 285.359006 
L 664.964931 287.819015 
L 667.312996 291.051702 
L 669.66106 294.838923 
L 676.705253 307.098258 
L 679.053317 310.729584 
L 681.401382 313.836351 
L 683.749446 316.306392 
L 686.09751 318.074605 
L 688.445575 319.120115 
L 690.793639 319.461138 
L 693.141703 319.148739 
L 695.489768 318.26048 
L 697.837832 316.894759 
L 700.185897 315.16632 
L 709.578154 307.358299 
L 711.926218 305.969716 
L 714.274283 305.169781 
L 716.622347 305.170983 
L 718.970411 306.207231 
L 721 308.218502 
L 721 308.218502 
" style="fill:none;stroke:#000000;stroke-linecap:square;"/>
   </g>
   <g id="line2d_16">
    <path clip-path="url(#p6524043809)" d="M -1 640.613031 
L 7.50691 635.762108 
L 16.899168 630.093672 
L 26.291425 624.116767 
L 35.683683 617.848691 
L 45.07594 611.30674 
L 54.468197 604.508212 
L 63.860455 597.470405 
L 75.600777 588.363011 
L 87.341099 578.942552 
L 99.08142 569.242814 
L 113.169806 557.282046 
L 127.258193 545.026143 
L 143.694643 530.432452 
L 164.827222 511.344809 
L 185.959802 492.247909 
L 195.352059 484.025134 
L 204.744317 476.11901 
L 211.78851 470.462498 
L 218.832703 465.090925 
L 225.876896 460.050072 
L 232.921089 455.385721 
L 237.617218 452.507929 
L 242.313346 449.831383 
L 247.009475 447.369648 
L 251.705604 445.136289 
L 256.401732 443.14487 
L 261.097861 441.408957 
L 265.79399 439.942115 
L 270.490119 438.757907 
L 275.186247 437.8699 
L 279.882376 437.291657 
L 284.578505 437.036744 
L 289.274634 437.118726 
L 293.970762 437.551168 
L 298.666891 438.347633 
L 303.36302 439.521688 
L 308.059148 441.086897 
L 312.755277 443.056825 
L 317.451406 445.430172 
L 322.147535 448.146182 
L 326.843663 451.129233 
L 333.887856 455.939093 
L 350.324307 467.40338 
L 355.020436 470.40064 
L 359.716564 473.135595 
L 364.412693 475.532623 
L 369.108822 477.516103 
L 371.456886 478.329132 
L 373.80495 479.010415 
L 376.153015 479.550502 
L 378.501079 479.939938 
L 380.849144 480.169271 
L 383.197208 480.22905 
L 385.545272 480.10982 
L 387.893337 479.80267 
L 390.241401 479.300851 
L 392.589465 478.598155 
L 394.93753 477.688371 
L 397.285594 476.565292 
L 399.633658 475.222708 
L 401.981723 473.654411 
L 404.329787 471.854193 
L 406.677852 469.815844 
L 409.025916 467.533155 
L 411.37398 464.999919 
L 413.722045 462.209926 
L 416.070109 459.156967 
L 418.418173 455.834834 
L 420.766238 452.237317 
L 423.114302 448.358209 
L 425.462366 444.1913 
L 427.810431 439.730382 
L 430.158495 434.969246 
L 432.506559 429.901682 
L 434.854624 424.521484 
L 437.202688 418.82244 
L 439.550753 412.798344 
L 441.898817 406.442986 
L 444.246881 399.750157 
L 448.94301 385.327252 
L 453.639139 369.47996 
L 458.335267 352.15861 
L 463.031396 333.467785 
L 472.423654 295.018334 
L 477.119782 277.011399 
L 479.467847 268.695563 
L 481.815911 260.98412 
L 484.163975 253.986553 
L 486.51204 247.812342 
L 488.860104 242.570967 
L 491.208169 238.37191 
L 493.556233 235.32465 
L 495.904297 233.53867 
L 498.252362 233.08397 
L 500.600426 233.872641 
L 502.94849 235.777291 
L 505.296555 238.670533 
L 507.644619 242.424975 
L 509.992683 246.913229 
L 512.340748 252.007904 
L 514.688812 257.581612 
L 519.384941 269.656566 
L 526.429134 288.176999 
L 528.777198 293.949719 
L 531.125263 299.309744 
L 533.473327 304.154619 
L 535.821391 308.481626 
L 538.169456 312.31298 
L 540.51752 315.6709 
L 542.865584 318.577601 
L 545.213649 321.0553 
L 547.561713 323.126213 
L 549.909778 324.812556 
L 552.257842 326.136546 
L 554.605906 327.1204 
L 556.953971 327.786333 
L 559.302035 328.156563 
L 561.650099 328.253305 
L 563.998164 328.098777 
L 566.346228 327.715194 
L 568.694292 327.124773 
L 571.042357 326.349731 
L 573.390421 325.412283 
L 578.08655 323.139039 
L 582.782679 320.482771 
L 596.871065 311.993144 
L 601.567193 309.582098 
L 603.915258 308.55508 
L 606.263322 307.671415 
L 608.611387 306.926955 
L 610.959451 306.312284 
L 615.65558 305.434632 
L 620.351708 304.963108 
L 625.047837 304.822366 
L 629.743966 304.937057 
L 636.788159 305.423204 
L 650.876545 306.593867 
L 655.572674 306.766587 
L 660.268802 306.704975 
L 664.964931 306.333684 
L 669.66106 305.577366 
L 672.009124 305.031274 
L 674.357189 304.360671 
L 676.705253 303.556136 
L 681.401382 301.592754 
L 688.445575 298.525389 
L 690.793639 297.688114 
L 693.141703 297.034173 
L 695.489768 296.618016 
L 697.837832 296.494089 
L 700.185897 296.71684 
L 702.533961 297.340716 
L 704.882025 298.420165 
L 707.23009 300.009635 
L 709.578154 302.163572 
L 711.926218 304.936425 
L 714.274283 308.382641 
L 716.622347 312.556667 
L 718.970411 317.512951 
L 721 322.520218 
L 721 322.520218 
" style="fill:none;stroke:#0000ff;stroke-linecap:square;"/>
   </g>
   <g id="line2d_17">
    <path clip-path="url(#p6524043809)" d="M 658.098365 675.592 
L 658.098365 28.32 
" style="fill:none;stroke:#ff0000;stroke-dasharray:3.7,1.6;stroke-dashoffset:0;"/>
   </g>
   <g id="patch_73">
    <path d="M 54.02 675.592 
L 54.02 28.32 
" style="fill:none;stroke:#000000;stroke-linecap:square;stroke-linejoin:miter;stroke-width:0.8;"/>
   </g>
   <g id="patch_74">
    <path d="M 693.798179 675.592 
L 693.798179 28.32 
" style="fill:none;stroke:#000000;stroke-linecap:square;stroke-linejoin:miter;stroke-width:0.8;"/>
   </g>
   <g id="patch_75">
    <path d="M 54.02 675.592 
L 693.798179 675.592 
" style="fill:none;stroke:#000000;stroke-linecap:square;stroke-linejoin:miter;stroke-width:0.8;"/>
   </g>
   <g id="patch_76">
    <path d="M 54.02 28.32 
L 693.798179 28.32 
" style="fill:none;stroke:#000000;stroke-linecap:square;stroke-linejoin:miter;stroke-width:0.8;"/>
   </g>
   <g id="text_17">
    <!-- KDE and spline of log-transformed $K_\mathrm{S}$ of species Schlechtendalia.fasta.transdecoder.cds.tsv.ks.tsv -->
    <defs>
     <path d="M 9.8125 72.90625 
L 19.671875 72.90625 
L 19.671875 42.09375 
L 52.390625 72.90625 
L 65.09375 72.90625 
L 28.90625 38.921875 
L 67.671875 0 
L 54.6875 0 
L 19.671875 35.109375 
L 19.671875 0 
L 9.8125 0 
z
" id="DejaVuSans-75"/>
     <path d="M 9.8125 72.90625 
L 55.90625 72.90625 
L 55.90625 64.59375 
L 19.671875 64.59375 
L 19.671875 43.015625 
L 54.390625 43.015625 
L 54.390625 34.71875 
L 19.671875 34.71875 
L 19.671875 8.296875 
L 56.78125 8.296875 
L 56.78125 0 
L 9.8125 0 
z
" id="DejaVuSans-69"/>
     <path d="M 45.40625 27.984375 
Q 45.40625 37.75 41.375 43.109375 
Q 37.359375 48.484375 30.078125 48.484375 
Q 22.859375 48.484375 18.828125 43.109375 
Q 14.796875 37.75 14.796875 27.984375 
Q 14.796875 18.265625 18.828125 12.890625 
Q 22.859375 7.515625 30.078125 7.515625 
Q 37.359375 7.515625 41.375 12.890625 
Q 45.40625 18.265625 45.40625 27.984375 
z
M 54.390625 6.78125 
Q 54.390625 -7.171875 48.1875 -13.984375 
Q 42 -20.796875 29.203125 -20.796875 
Q 24.46875 -20.796875 20.265625 -20.09375 
Q 16.0625 -19.390625 12.109375 -17.921875 
L 12.109375 -9.1875 
Q 16.0625 -11.328125 19.921875 -12.34375 
Q 23.78125 -13.375 27.78125 -13.375 
Q 36.625 -13.375 41.015625 -8.765625 
Q 45.40625 -4.15625 45.40625 5.171875 
L 45.40625 9.625 
Q 42.625 4.78125 38.28125 2.390625 
Q 33.9375 0 27.875 0 
Q 17.828125 0 11.671875 7.65625 
Q 5.515625 15.328125 5.515625 27.984375 
Q 5.515625 40.671875 11.671875 48.328125 
Q 17.828125 56 27.875 56 
Q 33.9375 56 38.28125 53.609375 
Q 42.625 51.21875 45.40625 46.390625 
L 45.40625 54.6875 
L 54.390625 54.6875 
z
" id="DejaVuSans-103"/>
     <path d="M 4.890625 31.390625 
L 31.203125 31.390625 
L 31.203125 23.390625 
L 4.890625 23.390625 
z
" id="DejaVuSans-45"/>
     <path d="M 52 44.1875 
Q 55.375 50.25 60.0625 53.125 
Q 64.75 56 71.09375 56 
Q 79.640625 56 84.28125 50.015625 
Q 88.921875 44.046875 88.921875 33.015625 
L 88.921875 0 
L 79.890625 0 
L 79.890625 32.71875 
Q 79.890625 40.578125 77.09375 44.375 
Q 74.3125 48.1875 68.609375 48.1875 
Q 61.625 48.1875 57.5625 43.546875 
Q 53.515625 38.921875 53.515625 30.90625 
L 53.515625 0 
L 44.484375 0 
L 44.484375 32.71875 
Q 44.484375 40.625 41.703125 44.40625 
Q 38.921875 48.1875 33.109375 48.1875 
Q 26.21875 48.1875 22.15625 43.53125 
Q 18.109375 38.875 18.109375 30.90625 
L 18.109375 0 
L 9.078125 0 
L 9.078125 54.6875 
L 18.109375 54.6875 
L 18.109375 46.1875 
Q 21.1875 51.21875 25.484375 53.609375 
Q 29.78125 56 35.6875 56 
Q 41.65625 56 45.828125 52.96875 
Q 50 49.953125 52 44.1875 
z
" id="DejaVuSans-109"/>
     <path d="M 54.890625 33.015625 
L 54.890625 0 
L 45.90625 0 
L 45.90625 32.71875 
Q 45.90625 40.484375 42.875 44.328125 
Q 39.84375 48.1875 33.796875 48.1875 
Q 26.515625 48.1875 22.3125 43.546875 
Q 18.109375 38.921875 18.109375 30.90625 
L 18.109375 0 
L 9.078125 0 
L 9.078125 75.984375 
L 18.109375 75.984375 
L 18.109375 46.1875 
Q 21.34375 51.125 25.703125 53.5625 
Q 30.078125 56 35.796875 56 
Q 45.21875 56 50.046875 50.171875 
Q 54.890625 44.34375 54.890625 33.015625 
z
" id="DejaVuSans-104"/>
     <path d="M 2.984375 54.6875 
L 12.5 54.6875 
L 29.59375 8.796875 
L 46.6875 54.6875 
L 56.203125 54.6875 
L 35.6875 0 
L 23.484375 0 
z
" id="DejaVuSans-118"/>
     <path d="M 9.078125 75.984375 
L 18.109375 75.984375 
L 18.109375 31.109375 
L 44.921875 54.6875 
L 56.390625 54.6875 
L 27.390625 29.109375 
L 57.625 0 
L 45.90625 0 
L 18.109375 26.703125 
L 18.109375 0 
L 9.078125 0 
z
" id="DejaVuSans-107"/>
    </defs>
    <g transform="translate(79.309089 22.32)scale(0.12 -0.12)">
     <use transform="translate(0 0.015625)" xlink:href="#DejaVuSans-75"/>
     <use transform="translate(65.576172 0.015625)" xlink:href="#DejaVuSans-68"/>
     <use transform="translate(142.578125 0.015625)" xlink:href="#DejaVuSans-69"/>
     <use transform="translate(205.761719 0.015625)" xlink:href="#DejaVuSans-32"/>
     <use transform="translate(237.548828 0.015625)" xlink:href="#DejaVuSans-97"/>
     <use transform="translate(298.828125 0.015625)" xlink:href="#DejaVuSans-110"/>
     <use transform="translate(362.207031 0.015625)" xlink:href="#DejaVuSans-100"/>
     <use transform="translate(425.683594 0.015625)" xlink:href="#DejaVuSans-32"/>
     <use transform="translate(457.470703 0.015625)" xlink:href="#DejaVuSans-115"/>
     <use transform="translate(509.570312 0.015625)" xlink:href="#DejaVuSans-112"/>
     <use transform="translate(573.046875 0.015625)" xlink:href="#DejaVuSans-108"/>
     <use transform="translate(600.830078 0.015625)" xlink:href="#DejaVuSans-105"/>
     <use transform="translate(628.613281 0.015625)" xlink:href="#DejaVuSans-110"/>
     <use transform="translate(691.992188 0.015625)" xlink:href="#DejaVuSans-101"/>
     <use transform="translate(753.515625 0.015625)" xlink:href="#DejaVuSans-32"/>
     <use transform="translate(785.302734 0.015625)" xlink:href="#DejaVuSans-111"/>
     <use transform="translate(846.484375 0.015625)" xlink:href="#DejaVuSans-102"/>
     <use transform="translate(881.689453 0.015625)" xlink:href="#DejaVuSans-32"/>
     <use transform="translate(913.476562 0.015625)" xlink:href="#DejaVuSans-108"/>
     <use transform="translate(941.259766 0.015625)" xlink:href="#DejaVuSans-111"/>
     <use transform="translate(1002.441406 0.015625)" xlink:href="#DejaVuSans-103"/>
     <use transform="translate(1065.917969 0.015625)" xlink:href="#DejaVuSans-45"/>
     <use transform="translate(1102.001953 0.015625)" xlink:href="#DejaVuSans-116"/>
     <use transform="translate(1141.210938 0.015625)" xlink:href="#DejaVuSans-114"/>
     <use transform="translate(1182.324219 0.015625)" xlink:href="#DejaVuSans-97"/>
     <use transform="translate(1243.603516 0.015625)" xlink:href="#DejaVuSans-110"/>
     <use transform="translate(1306.982422 0.015625)" xlink:href="#DejaVuSans-115"/>
     <use transform="translate(1359.082031 0.015625)" xlink:href="#DejaVuSans-102"/>
     <use transform="translate(1394.287109 0.015625)" xlink:href="#DejaVuSans-111"/>
     <use transform="translate(1455.46875 0.015625)" xlink:href="#DejaVuSans-114"/>
     <use transform="translate(1496.582031 0.015625)" xlink:href="#DejaVuSans-109"/>
     <use transform="translate(1593.994141 0.015625)" xlink:href="#DejaVuSans-101"/>
     <use transform="translate(1655.517578 0.015625)" xlink:href="#DejaVuSans-100"/>
     <use transform="translate(1718.994141 0.015625)" xlink:href="#DejaVuSans-32"/>
     <use transform="translate(1750.78125 0.015625)" xlink:href="#DejaVuSans-Oblique-75"/>
     <use transform="translate(1816.357422 -16.390625)scale(0.7)" xlink:href="#DejaVuSans-83"/>
     <use transform="translate(1863.525391 0.015625)" xlink:href="#DejaVuSans-32"/>
     <use transform="translate(1895.3125 0.015625)" xlink:href="#DejaVuSans-111"/>
     <use transform="translate(1956.494141 0.015625)" xlink:href="#DejaVuSans-102"/>
     <use transform="translate(1991.699219 0.015625)" xlink:href="#DejaVuSans-32"/>
     <use transform="translate(2023.486328 0.015625)" xlink:href="#DejaVuSans-115"/>
     <use transform="translate(2075.585938 0.015625)" xlink:href="#DejaVuSans-112"/>
     <use transform="translate(2139.0625 0.015625)" xlink:href="#DejaVuSans-101"/>
     <use transform="translate(2200.585938 0.015625)" xlink:href="#DejaVuSans-99"/>
     <use transform="translate(2255.566406 0.015625)" xlink:href="#DejaVuSans-105"/>
     <use transform="translate(2283.349609 0.015625)" xlink:href="#DejaVuSans-101"/>
     <use transform="translate(2344.873047 0.015625)" xlink:href="#DejaVuSans-115"/>
     <use transform="translate(2396.972656 0.015625)" xlink:href="#DejaVuSans-32"/>
     <use transform="translate(2428.759766 0.015625)" xlink:href="#DejaVuSans-83"/>
     <use transform="translate(2492.236328 0.015625)" xlink:href="#DejaVuSans-99"/>
     <use transform="translate(2547.216797 0.015625)" xlink:href="#DejaVuSans-104"/>
     <use transform="translate(2610.595703 0.015625)" xlink:href="#DejaVuSans-108"/>
     <use transform="translate(2638.378906 0.015625)" xlink:href="#DejaVuSans-101"/>
     <use transform="translate(2699.902344 0.015625)" xlink:href="#DejaVuSans-99"/>
     <use transform="translate(2754.882812 0.015625)" xlink:href="#DejaVuSans-104"/>
     <use transform="translate(2818.261719 0.015625)" xlink:href="#DejaVuSans-116"/>
     <use transform="translate(2857.470703 0.015625)" xlink:href="#DejaVuSans-101"/>
     <use transform="translate(2918.994141 0.015625)" xlink:href="#DejaVuSans-110"/>
     <use transform="translate(2982.373047 0.015625)" xlink:href="#DejaVuSans-100"/>
     <use transform="translate(3045.849609 0.015625)" xlink:href="#DejaVuSans-97"/>
     <use transform="translate(3107.128906 0.015625)" xlink:href="#DejaVuSans-108"/>
     <use transform="translate(3134.912109 0.015625)" xlink:href="#DejaVuSans-105"/>
     <use transform="translate(3162.695312 0.015625)" xlink:href="#DejaVuSans-97"/>
     <use transform="translate(3223.974609 0.015625)" xlink:href="#DejaVuSans-46"/>
     <use transform="translate(3255.761719 0.015625)" xlink:href="#DejaVuSans-102"/>
     <use transform="translate(3290.966797 0.015625)" xlink:href="#DejaVuSans-97"/>
     <use transform="translate(3352.246094 0.015625)" xlink:href="#DejaVuSans-115"/>
     <use transform="translate(3404.345703 0.015625)" xlink:href="#DejaVuSans-116"/>
     <use transform="translate(3443.554688 0.015625)" xlink:href="#DejaVuSans-97"/>
     <use transform="translate(3504.833984 0.015625)" xlink:href="#DejaVuSans-46"/>
     <use transform="translate(3536.621094 0.015625)" xlink:href="#DejaVuSans-116"/>
     <use transform="translate(3575.830078 0.015625)" xlink:href="#DejaVuSans-114"/>
     <use transform="translate(3616.943359 0.015625)" xlink:href="#DejaVuSans-97"/>
     <use transform="translate(3678.222656 0.015625)" xlink:href="#DejaVuSans-110"/>
     <use transform="translate(3741.601562 0.015625)" xlink:href="#DejaVuSans-115"/>
     <use transform="translate(3793.701172 0.015625)" xlink:href="#DejaVuSans-100"/>
     <use transform="translate(3857.177734 0.015625)" xlink:href="#DejaVuSans-101"/>
     <use transform="translate(3918.701172 0.015625)" xlink:href="#DejaVuSans-99"/>
     <use transform="translate(3973.681641 0.015625)" xlink:href="#DejaVuSans-111"/>
     <use transform="translate(4034.863281 0.015625)" xlink:href="#DejaVuSans-100"/>
     <use transform="translate(4098.339844 0.015625)" xlink:href="#DejaVuSans-101"/>
     <use transform="translate(4159.863281 0.015625)" xlink:href="#DejaVuSans-114"/>
     <use transform="translate(4200.976562 0.015625)" xlink:href="#DejaVuSans-46"/>
     <use transform="translate(4232.763672 0.015625)" xlink:href="#DejaVuSans-99"/>
     <use transform="translate(4287.744141 0.015625)" xlink:href="#DejaVuSans-100"/>
     <use transform="translate(4351.220703 0.015625)" xlink:href="#DejaVuSans-115"/>
     <use transform="translate(4403.320312 0.015625)" xlink:href="#DejaVuSans-46"/>
     <use transform="translate(4435.107422 0.015625)" xlink:href="#DejaVuSans-116"/>
     <use transform="translate(4474.316406 0.015625)" xlink:href="#DejaVuSans-115"/>
     <use transform="translate(4526.416016 0.015625)" xlink:href="#DejaVuSans-118"/>
     <use transform="translate(4585.595703 0.015625)" xlink:href="#DejaVuSans-46"/>
     <use transform="translate(4617.382812 0.015625)" xlink:href="#DejaVuSans-107"/>
     <use transform="translate(4675.292969 0.015625)" xlink:href="#DejaVuSans-115"/>
     <use transform="translate(4727.392578 0.015625)" xlink:href="#DejaVuSans-46"/>
     <use transform="translate(4759.179688 0.015625)" xlink:href="#DejaVuSans-116"/>
     <use transform="translate(4798.388672 0.015625)" xlink:href="#DejaVuSans-115"/>
     <use transform="translate(4850.488281 0.015625)" xlink:href="#DejaVuSans-118"/>
    </g>
   </g>
   <g id="legend_1">
    <g id="line2d_18">
     <path d="M 64.82 44.038125 
L 88.82 44.038125 
" style="fill:none;stroke:#000000;stroke-linecap:square;"/>
    </g>
    <g id="line2d_19"/>
    <g id="text_18">
     <!-- KDE -->
     <g transform="translate(98.42 48.238125)scale(0.12 -0.12)">
      <use xlink:href="#DejaVuSans-75"/>
      <use x="65.576172" xlink:href="#DejaVuSans-68"/>
      <use x="142.578125" xlink:href="#DejaVuSans-69"/>
     </g>
    </g>
    <g id="line2d_20">
     <path d="M 64.82 61.651875 
L 88.82 61.651875 
" style="fill:none;stroke:#0000ff;stroke-linecap:square;"/>
    </g>
    <g id="line2d_21"/>
    <g id="text_19">
     <!-- Spline on KDE -->
     <g transform="translate(98.42 65.851875)scale(0.12 -0.12)">
      <use xlink:href="#DejaVuSans-83"/>
      <use x="63.476562" xlink:href="#DejaVuSans-112"/>
      <use x="126.953125" xlink:href="#DejaVuSans-108"/>
      <use x="154.736328" xlink:href="#DejaVuSans-105"/>
      <use x="182.519531" xlink:href="#DejaVuSans-110"/>
      <use x="245.898438" xlink:href="#DejaVuSans-101"/>
      <use x="307.421875" xlink:href="#DejaVuSans-32"/>
      <use x="339.208984" xlink:href="#DejaVuSans-111"/>
      <use x="400.390625" xlink:href="#DejaVuSans-110"/>
      <use x="463.769531" xlink:href="#DejaVuSans-32"/>
      <use x="495.556641" xlink:href="#DejaVuSans-75"/>
      <use x="561.132812" xlink:href="#DejaVuSans-68"/>
      <use x="638.134766" xlink:href="#DejaVuSans-69"/>
     </g>
    </g>
    <g id="line2d_22">
     <path d="M 64.82 79.265625 
L 88.82 79.265625 
" style="fill:none;stroke:#ff0000;stroke-dasharray:3.7,1.6;stroke-dashoffset:0;"/>
    </g>
    <g id="line2d_23"/>
    <g id="text_20">
     <!-- Reflection boundary -->
     <defs>
      <path d="M 44.390625 34.1875 
Q 47.5625 33.109375 50.5625 29.59375 
Q 53.5625 26.078125 56.59375 19.921875 
L 66.609375 0 
L 56 0 
L 46.6875 18.703125 
Q 43.0625 26.03125 39.671875 28.421875 
Q 36.28125 30.8125 30.421875 30.8125 
L 19.671875 30.8125 
L 19.671875 0 
L 9.8125 0 
L 9.8125 72.90625 
L 32.078125 72.90625 
Q 44.578125 72.90625 50.734375 67.671875 
Q 56.890625 62.453125 56.890625 51.90625 
Q 56.890625 45.015625 53.6875 40.46875 
Q 50.484375 35.9375 44.390625 34.1875 
z
M 19.671875 64.796875 
L 19.671875 38.921875 
L 32.078125 38.921875 
Q 39.203125 38.921875 42.84375 42.21875 
Q 46.484375 45.515625 46.484375 51.90625 
Q 46.484375 58.296875 42.84375 61.546875 
Q 39.203125 64.796875 32.078125 64.796875 
z
" id="DejaVuSans-82"/>
      <path d="M 48.6875 27.296875 
Q 48.6875 37.203125 44.609375 42.84375 
Q 40.53125 48.484375 33.40625 48.484375 
Q 26.265625 48.484375 22.1875 42.84375 
Q 18.109375 37.203125 18.109375 27.296875 
Q 18.109375 17.390625 22.1875 11.75 
Q 26.265625 6.109375 33.40625 6.109375 
Q 40.53125 6.109375 44.609375 11.75 
Q 48.6875 17.390625 48.6875 27.296875 
z
M 18.109375 46.390625 
Q 20.953125 51.265625 25.265625 53.625 
Q 29.59375 56 35.59375 56 
Q 45.5625 56 51.78125 48.09375 
Q 58.015625 40.1875 58.015625 27.296875 
Q 58.015625 14.40625 51.78125 6.484375 
Q 45.5625 -1.421875 35.59375 -1.421875 
Q 29.59375 -1.421875 25.265625 0.953125 
Q 20.953125 3.328125 18.109375 8.203125 
L 18.109375 0 
L 9.078125 0 
L 9.078125 75.984375 
L 18.109375 75.984375 
z
" id="DejaVuSans-98"/>
     </defs>
     <g transform="translate(98.42 83.465625)scale(0.12 -0.12)">
      <use xlink:href="#DejaVuSans-82"/>
      <use x="64.982422" xlink:href="#DejaVuSans-101"/>
      <use x="126.505859" xlink:href="#DejaVuSans-102"/>
      <use x="161.710938" xlink:href="#DejaVuSans-108"/>
      <use x="189.494141" xlink:href="#DejaVuSans-101"/>
      <use x="251.017578" xlink:href="#DejaVuSans-99"/>
      <use x="305.998047" xlink:href="#DejaVuSans-116"/>
      <use x="345.207031" xlink:href="#DejaVuSans-105"/>
      <use x="372.990234" xlink:href="#DejaVuSans-111"/>
      <use x="434.171875" xlink:href="#DejaVuSans-110"/>
      <use x="497.550781" xlink:href="#DejaVuSans-32"/>
      <use x="529.337891" xlink:href="#DejaVuSans-98"/>
      <use x="592.814453" xlink:href="#DejaVuSans-111"/>
      <use x="653.996094" xlink:href="#DejaVuSans-117"/>
      <use x="717.375" xlink:href="#DejaVuSans-110"/>
      <use x="780.753906" xlink:href="#DejaVuSans-100"/>
      <use x="844.230469" xlink:href="#DejaVuSans-97"/>
      <use x="905.509766" xlink:href="#DejaVuSans-114"/>
      <use x="946.623047" xlink:href="#DejaVuSans-121"/>
     </g>
    </g>
   </g>
  </g>
 </g>
 <defs>
  <clipPath id="p6524043809">
   <rect height="647.272" width="639.778179" x="54.02" y="28.32"/>
  </clipPath>
 </defs>
</svg>
