<?xml version="1.0" encoding="utf-8" standalone="no"?>
<!DOCTYPE svg PUBLIC "-//W3C//DTD SVG 1.1//EN"
  "http://www.w3.org/Graphics/SVG/1.1/DTD/svg11.dtd">
<!-- Created with matplotlib (https://matplotlib.org/) -->
<svg height="720pt" version="1.1" viewBox="0 0 720 720" width="720pt" xmlns="http://www.w3.org/2000/svg" xmlns:xlink="http://www.w3.org/1999/xlink">
 <defs>
  <style type="text/css">
*{stroke-linecap:butt;stroke-linejoin:round;}
  </style>
 </defs>
 <g id="figure_1">
  <g id="patch_1">
   <path d="M 0 720 
L 720 720 
L 720 0 
L 0 0 
z
" style="fill:#ffffff;"/>
  </g>
  <g id="axes_1">
   <g id="patch_2">
    <path d="M 54.02 675.592 
L 693.798179 675.592 
L 693.798179 28.32 
L 54.02 28.32 
z
" style="fill:#ffffff;"/>
   </g>
   <g id="patch_3">
    <path clip-path="url(#p135a4c1b5c)" d="M 54.933969 675.592 
L 62.245719 675.592 
L 62.245719 585.569051 
L 54.933969 585.569051 
z
" style="fill:#808080;opacity:0.2;"/>
   </g>
   <g id="patch_4">
    <path clip-path="url(#p135a4c1b5c)" d="M 64.073657 675.592 
L 71.385408 675.592 
L 71.385408 569.815035 
L 64.073657 569.815035 
z
" style="fill:#808080;opacity:0.2;"/>
   </g>
   <g id="patch_5">
    <path clip-path="url(#p135a4c1b5c)" d="M 73.213345 675.592 
L 80.525096 675.592 
L 80.525096 567.564462 
L 73.213345 567.564462 
z
" style="fill:#808080;opacity:0.2;"/>
   </g>
   <g id="patch_6">
    <path clip-path="url(#p135a4c1b5c)" d="M 82.353034 675.592 
L 89.664784 675.592 
L 89.664784 563.063314 
L 82.353034 563.063314 
z
" style="fill:#808080;opacity:0.2;"/>
   </g>
   <g id="patch_7">
    <path clip-path="url(#p135a4c1b5c)" d="M 91.492722 675.592 
L 98.804473 675.592 
L 98.804473 540.557577 
L 91.492722 540.557577 
z
" style="fill:#808080;opacity:0.2;"/>
   </g>
   <g id="patch_8">
    <path clip-path="url(#p135a4c1b5c)" d="M 100.63241 675.592 
L 107.944161 675.592 
L 107.944161 540.557577 
L 100.63241 540.557577 
z
" style="fill:#808080;opacity:0.2;"/>
   </g>
   <g id="patch_9">
    <path clip-path="url(#p135a4c1b5c)" d="M 109.772098 675.592 
L 117.083849 675.592 
L 117.083849 540.557577 
L 109.772098 540.557577 
z
" style="fill:#808080;opacity:0.2;"/>
   </g>
   <g id="patch_10">
    <path clip-path="url(#p135a4c1b5c)" d="M 118.911787 675.592 
L 126.223537 675.592 
L 126.223537 522.552987 
L 118.911787 522.552987 
z
" style="fill:#808080;opacity:0.2;"/>
   </g>
   <g id="patch_11">
    <path clip-path="url(#p135a4c1b5c)" d="M 128.051475 675.592 
L 135.363226 675.592 
L 135.363226 506.798971 
L 128.051475 506.798971 
z
" style="fill:#808080;opacity:0.2;"/>
   </g>
   <g id="patch_12">
    <path clip-path="url(#p135a4c1b5c)" d="M 137.191163 675.592 
L 144.502914 675.592 
L 144.502914 511.300119 
L 137.191163 511.300119 
z
" style="fill:#808080;opacity:0.2;"/>
   </g>
   <g id="patch_13">
    <path clip-path="url(#p135a4c1b5c)" d="M 146.330851 675.592 
L 153.642602 675.592 
L 153.642602 488.794381 
L 146.330851 488.794381 
z
" style="fill:#808080;opacity:0.2;"/>
   </g>
   <g id="patch_14">
    <path clip-path="url(#p135a4c1b5c)" d="M 155.47054 675.592 
L 162.78229 675.592 
L 162.78229 466.288644 
L 155.47054 466.288644 
z
" style="fill:#808080;opacity:0.2;"/>
   </g>
   <g id="patch_15">
    <path clip-path="url(#p135a4c1b5c)" d="M 164.610228 675.592 
L 171.921979 675.592 
L 171.921979 520.302413 
L 164.610228 520.302413 
z
" style="fill:#808080;opacity:0.2;"/>
   </g>
   <g id="patch_16">
    <path clip-path="url(#p135a4c1b5c)" d="M 173.749916 675.592 
L 181.061667 675.592 
L 181.061667 425.778317 
L 173.749916 425.778317 
z
" style="fill:#808080;opacity:0.2;"/>
   </g>
   <g id="patch_17">
    <path clip-path="url(#p135a4c1b5c)" d="M 182.889605 675.592 
L 190.201355 675.592 
L 190.201355 488.794381 
L 182.889605 488.794381 
z
" style="fill:#808080;opacity:0.2;"/>
   </g>
   <g id="patch_18">
    <path clip-path="url(#p135a4c1b5c)" d="M 192.029293 675.592 
L 199.341043 675.592 
L 199.341043 504.548397 
L 192.029293 504.548397 
z
" style="fill:#808080;opacity:0.2;"/>
   </g>
   <g id="patch_19">
    <path clip-path="url(#p135a4c1b5c)" d="M 201.168981 675.592 
L 208.480732 675.592 
L 208.480732 441.532333 
L 201.168981 441.532333 
z
" style="fill:#808080;opacity:0.2;"/>
   </g>
   <g id="patch_20">
    <path clip-path="url(#p135a4c1b5c)" d="M 210.308669 675.592 
L 217.62042 675.592 
L 217.62042 416.776022 
L 210.308669 416.776022 
z
" style="fill:#808080;opacity:0.2;"/>
   </g>
   <g id="patch_21">
    <path clip-path="url(#p135a4c1b5c)" d="M 219.448358 675.592 
L 226.760108 675.592 
L 226.760108 473.040365 
L 219.448358 473.040365 
z
" style="fill:#808080;opacity:0.2;"/>
   </g>
   <g id="patch_22">
    <path clip-path="url(#p135a4c1b5c)" d="M 228.588046 675.592 
L 235.899797 675.592 
L 235.899797 434.780612 
L 228.588046 434.780612 
z
" style="fill:#808080;opacity:0.2;"/>
   </g>
   <g id="patch_23">
    <path clip-path="url(#p135a4c1b5c)" d="M 237.727734 675.592 
L 245.039485 675.592 
L 245.039485 367.263401 
L 237.727734 367.263401 
z
" style="fill:#808080;opacity:0.2;"/>
   </g>
   <g id="patch_24">
    <path clip-path="url(#p135a4c1b5c)" d="M 246.867422 675.592 
L 254.179173 675.592 
L 254.179173 410.024301 
L 246.867422 410.024301 
z
" style="fill:#808080;opacity:0.2;"/>
   </g>
   <g id="patch_25">
    <path clip-path="url(#p135a4c1b5c)" d="M 256.007111 675.592 
L 263.318861 675.592 
L 263.318861 423.527744 
L 256.007111 423.527744 
z
" style="fill:#808080;opacity:0.2;"/>
   </g>
   <g id="patch_26">
    <path clip-path="url(#p135a4c1b5c)" d="M 265.146799 675.592 
L 272.45855 675.592 
L 272.45855 421.27717 
L 265.146799 421.27717 
z
" style="fill:#808080;opacity:0.2;"/>
   </g>
   <g id="patch_27">
    <path clip-path="url(#p135a4c1b5c)" d="M 274.286487 675.592 
L 281.598238 675.592 
L 281.598238 421.27717 
L 274.286487 421.27717 
z
" style="fill:#808080;opacity:0.2;"/>
   </g>
   <g id="patch_28">
    <path clip-path="url(#p135a4c1b5c)" d="M 283.426176 675.592 
L 290.737926 675.592 
L 290.737926 448.284055 
L 283.426176 448.284055 
z
" style="fill:#808080;opacity:0.2;"/>
   </g>
   <g id="patch_29">
    <path clip-path="url(#p135a4c1b5c)" d="M 292.565864 675.592 
L 299.877614 675.592 
L 299.877614 389.769138 
L 292.565864 389.769138 
z
" style="fill:#808080;opacity:0.2;"/>
   </g>
   <g id="patch_30">
    <path clip-path="url(#p135a4c1b5c)" d="M 301.705552 675.592 
L 309.017303 675.592 
L 309.017303 432.530039 
L 301.705552 432.530039 
z
" style="fill:#808080;opacity:0.2;"/>
   </g>
   <g id="patch_31">
    <path clip-path="url(#p135a4c1b5c)" d="M 310.84524 675.592 
L 318.156991 675.592 
L 318.156991 374.015122 
L 310.84524 374.015122 
z
" style="fill:#808080;opacity:0.2;"/>
   </g>
   <g id="patch_32">
    <path clip-path="url(#p135a4c1b5c)" d="M 319.984929 675.592 
L 327.296679 675.592 
L 327.296679 398.771433 
L 319.984929 398.771433 
z
" style="fill:#808080;opacity:0.2;"/>
   </g>
   <g id="patch_33">
    <path clip-path="url(#p135a4c1b5c)" d="M 329.124617 675.592 
L 336.436367 675.592 
L 336.436367 443.782907 
L 329.124617 443.782907 
z
" style="fill:#808080;opacity:0.2;"/>
   </g>
   <g id="patch_34">
    <path clip-path="url(#p135a4c1b5c)" d="M 338.264305 675.592 
L 345.576056 675.592 
L 345.576056 425.778317 
L 338.264305 425.778317 
z
" style="fill:#808080;opacity:0.2;"/>
   </g>
   <g id="patch_35">
    <path clip-path="url(#p135a4c1b5c)" d="M 347.403993 675.592 
L 354.715744 675.592 
L 354.715744 464.038071 
L 347.403993 464.038071 
z
" style="fill:#808080;opacity:0.2;"/>
   </g>
   <g id="patch_36">
    <path clip-path="url(#p135a4c1b5c)" d="M 356.543682 675.592 
L 363.855432 675.592 
L 363.855432 441.532333 
L 356.543682 441.532333 
z
" style="fill:#808080;opacity:0.2;"/>
   </g>
   <g id="patch_37">
    <path clip-path="url(#p135a4c1b5c)" d="M 365.68337 675.592 
L 372.995121 675.592 
L 372.995121 497.796676 
L 365.68337 497.796676 
z
" style="fill:#808080;opacity:0.2;"/>
   </g>
   <g id="patch_38">
    <path clip-path="url(#p135a4c1b5c)" d="M 374.823058 675.592 
L 382.134809 675.592 
L 382.134809 477.541513 
L 374.823058 477.541513 
z
" style="fill:#808080;opacity:0.2;"/>
   </g>
   <g id="patch_39">
    <path clip-path="url(#p135a4c1b5c)" d="M 383.962746 675.592 
L 391.274497 675.592 
L 391.274497 441.532333 
L 383.962746 441.532333 
z
" style="fill:#808080;opacity:0.2;"/>
   </g>
   <g id="patch_40">
    <path clip-path="url(#p135a4c1b5c)" d="M 393.102435 675.592 
L 400.414185 675.592 
L 400.414185 437.031186 
L 393.102435 437.031186 
z
" style="fill:#808080;opacity:0.2;"/>
   </g>
   <g id="patch_41">
    <path clip-path="url(#p135a4c1b5c)" d="M 402.242123 675.592 
L 409.553874 675.592 
L 409.553874 455.035776 
L 402.242123 455.035776 
z
" style="fill:#808080;opacity:0.2;"/>
   </g>
   <g id="patch_42">
    <path clip-path="url(#p135a4c1b5c)" d="M 411.381811 675.592 
L 418.693562 675.592 
L 418.693562 464.038071 
L 411.381811 464.038071 
z
" style="fill:#808080;opacity:0.2;"/>
   </g>
   <g id="patch_43">
    <path clip-path="url(#p135a4c1b5c)" d="M 420.5215 675.592 
L 427.83325 675.592 
L 427.83325 398.771433 
L 420.5215 398.771433 
z
" style="fill:#808080;opacity:0.2;"/>
   </g>
   <g id="patch_44">
    <path clip-path="url(#p135a4c1b5c)" d="M 429.661188 675.592 
L 436.972938 675.592 
L 436.972938 389.769138 
L 429.661188 389.769138 
z
" style="fill:#808080;opacity:0.2;"/>
   </g>
   <g id="patch_45">
    <path clip-path="url(#p135a4c1b5c)" d="M 438.800876 675.592 
L 446.112627 675.592 
L 446.112627 369.513974 
L 438.800876 369.513974 
z
" style="fill:#808080;opacity:0.2;"/>
   </g>
   <g id="patch_46">
    <path clip-path="url(#p135a4c1b5c)" d="M 447.940564 675.592 
L 455.252315 675.592 
L 455.252315 340.256516 
L 447.940564 340.256516 
z
" style="fill:#808080;opacity:0.2;"/>
   </g>
   <g id="patch_47">
    <path clip-path="url(#p135a4c1b5c)" d="M 457.080253 675.592 
L 464.392003 675.592 
L 464.392003 353.759958 
L 457.080253 353.759958 
z
" style="fill:#808080;opacity:0.2;"/>
   </g>
   <g id="patch_48">
    <path clip-path="url(#p135a4c1b5c)" d="M 466.219941 675.592 
L 473.531691 675.592 
L 473.531691 292.994468 
L 466.219941 292.994468 
z
" style="fill:#808080;opacity:0.2;"/>
   </g>
   <g id="patch_49">
    <path clip-path="url(#p135a4c1b5c)" d="M 475.359629 675.592 
L 482.67138 675.592 
L 482.67138 252.484141 
L 475.359629 252.484141 
z
" style="fill:#808080;opacity:0.2;"/>
   </g>
   <g id="patch_50">
    <path clip-path="url(#p135a4c1b5c)" d="M 484.499317 675.592 
L 491.811068 675.592 
L 491.811068 180.465782 
L 484.499317 180.465782 
z
" style="fill:#808080;opacity:0.2;"/>
   </g>
   <g id="patch_51">
    <path clip-path="url(#p135a4c1b5c)" d="M 493.639006 675.592 
L 500.950756 675.592 
L 500.950756 211.973814 
L 493.639006 211.973814 
z
" style="fill:#808080;opacity:0.2;"/>
   </g>
   <g id="patch_52">
    <path clip-path="url(#p135a4c1b5c)" d="M 502.778694 675.592 
L 510.090445 675.592 
L 510.090445 115.199144 
L 502.778694 115.199144 
z
" style="fill:#808080;opacity:0.2;"/>
   </g>
   <g id="patch_53">
    <path clip-path="url(#p135a4c1b5c)" d="M 511.918382 675.592 
L 519.230133 675.592 
L 519.230133 225.477257 
L 511.918382 225.477257 
z
" style="fill:#808080;opacity:0.2;"/>
   </g>
   <g id="patch_54">
    <path clip-path="url(#p135a4c1b5c)" d="M 521.05807 675.592 
L 528.369821 675.592 
L 528.369821 238.980699 
L 521.05807 238.980699 
z
" style="fill:#808080;opacity:0.2;"/>
   </g>
   <g id="patch_55">
    <path clip-path="url(#p135a4c1b5c)" d="M 530.197759 675.592 
L 537.509509 675.592 
L 537.509509 263.73701 
L 530.197759 263.73701 
z
" style="fill:#808080;opacity:0.2;"/>
   </g>
   <g id="patch_56">
    <path clip-path="url(#p135a4c1b5c)" d="M 539.337447 675.592 
L 546.649198 675.592 
L 546.649198 313.249631 
L 539.337447 313.249631 
z
" style="fill:#808080;opacity:0.2;"/>
   </g>
   <g id="patch_57">
    <path clip-path="url(#p135a4c1b5c)" d="M 548.477135 675.592 
L 555.788886 675.592 
L 555.788886 286.242747 
L 548.477135 286.242747 
z
" style="fill:#808080;opacity:0.2;"/>
   </g>
   <g id="patch_58">
    <path clip-path="url(#p135a4c1b5c)" d="M 557.616824 675.592 
L 564.928574 675.592 
L 564.928574 342.50709 
L 557.616824 342.50709 
z
" style="fill:#808080;opacity:0.2;"/>
   </g>
   <g id="patch_59">
    <path clip-path="url(#p135a4c1b5c)" d="M 566.756512 675.592 
L 574.068262 675.592 
L 574.068262 295.245042 
L 566.756512 295.245042 
z
" style="fill:#808080;opacity:0.2;"/>
   </g>
   <g id="patch_60">
    <path clip-path="url(#p135a4c1b5c)" d="M 575.8962 675.592 
L 583.207951 675.592 
L 583.207951 236.730125 
L 575.8962 236.730125 
z
" style="fill:#808080;opacity:0.2;"/>
   </g>
   <g id="patch_61">
    <path clip-path="url(#p135a4c1b5c)" d="M 585.035888 675.592 
L 592.347639 675.592 
L 592.347639 229.978404 
L 585.035888 229.978404 
z
" style="fill:#808080;opacity:0.2;"/>
   </g>
   <g id="patch_62">
    <path clip-path="url(#p135a4c1b5c)" d="M 594.175577 675.592 
L 601.487327 675.592 
L 601.487327 265.987583 
L 594.175577 265.987583 
z
" style="fill:#808080;opacity:0.2;"/>
   </g>
   <g id="patch_63">
    <path clip-path="url(#p135a4c1b5c)" d="M 603.315265 675.592 
L 610.627015 675.592 
L 610.627015 193.969224 
L 603.315265 193.969224 
z
" style="fill:#808080;opacity:0.2;"/>
   </g>
   <g id="patch_64">
    <path clip-path="url(#p135a4c1b5c)" d="M 612.454953 675.592 
L 619.766704 675.592 
L 619.766704 196.219798 
L 612.454953 196.219798 
z
" style="fill:#808080;opacity:0.2;"/>
   </g>
   <g id="patch_65">
    <path clip-path="url(#p135a4c1b5c)" d="M 621.594641 675.592 
L 628.906392 675.592 
L 628.906392 279.491026 
L 621.594641 279.491026 
z
" style="fill:#808080;opacity:0.2;"/>
   </g>
   <g id="patch_66">
    <path clip-path="url(#p135a4c1b5c)" d="M 630.73433 675.592 
L 638.04608 675.592 
L 638.04608 326.753074 
L 630.73433 326.753074 
z
" style="fill:#808080;opacity:0.2;"/>
   </g>
   <g id="patch_67">
    <path clip-path="url(#p135a4c1b5c)" d="M 639.874018 675.592 
L 647.185769 675.592 
L 647.185769 362.762253 
L 639.874018 362.762253 
z
" style="fill:#808080;opacity:0.2;"/>
   </g>
   <g id="patch_68">
    <path clip-path="url(#p135a4c1b5c)" d="M 649.013706 675.592 
L 656.325457 675.592 
L 656.325457 335.755369 
L 649.013706 335.755369 
z
" style="fill:#808080;opacity:0.2;"/>
   </g>
   <g id="patch_69">
    <path clip-path="url(#p135a4c1b5c)" d="M 658.153394 675.592 
L 665.465145 675.592 
L 665.465145 342.50709 
L 658.153394 342.50709 
z
" style="fill:#808080;opacity:0.2;"/>
   </g>
   <g id="patch_70">
    <path clip-path="url(#p135a4c1b5c)" d="M 667.293083 675.592 
L 674.604833 675.592 
L 674.604833 362.762253 
L 667.293083 362.762253 
z
" style="fill:#808080;opacity:0.2;"/>
   </g>
   <g id="patch_71">
    <path clip-path="url(#p135a4c1b5c)" d="M 676.432771 675.592 
L 683.744522 675.592 
L 683.744522 313.249631 
L 676.432771 313.249631 
z
" style="fill:#808080;opacity:0.2;"/>
   </g>
   <g id="patch_72">
    <path clip-path="url(#p135a4c1b5c)" d="M 685.572459 675.592 
L 692.88421 675.592 
L 692.88421 306.49791 
L 685.572459 306.49791 
z
" style="fill:#808080;opacity:0.2;"/>
   </g>
   <g id="matplotlib.axis_1">
    <g id="xtick_1">
     <g id="line2d_1">
      <defs>
       <path d="M 0 0 
L 0 3.5 
" id="m9b4131141a" style="stroke:#000000;stroke-width:0.8;"/>
      </defs>
      <g>
       <use style="stroke:#000000;stroke-width:0.8;" x="54.02" xlink:href="#m9b4131141a" y="675.592"/>
      </g>
     </g>
     <g id="text_1">
      <!-- −5 -->
      <defs>
       <path d="M 10.59375 35.5 
L 73.1875 35.5 
L 73.1875 27.203125 
L 10.59375 27.203125 
z
" id="DejaVuSans-8722"/>
       <path d="M 10.796875 72.90625 
L 49.515625 72.90625 
L 49.515625 64.59375 
L 19.828125 64.59375 
L 19.828125 46.734375 
Q 21.96875 47.46875 24.109375 47.828125 
Q 26.265625 48.1875 28.421875 48.1875 
Q 40.625 48.1875 47.75 41.5 
Q 54.890625 34.8125 54.890625 23.390625 
Q 54.890625 11.625 47.5625 5.09375 
Q 40.234375 -1.421875 26.90625 -1.421875 
Q 22.3125 -1.421875 17.546875 -0.640625 
Q 12.796875 0.140625 7.71875 1.703125 
L 7.71875 11.625 
Q 12.109375 9.234375 16.796875 8.0625 
Q 21.484375 6.890625 26.703125 6.890625 
Q 35.15625 6.890625 40.078125 11.328125 
Q 45.015625 15.765625 45.015625 23.390625 
Q 45.015625 31 40.078125 35.4375 
Q 35.15625 39.890625 26.703125 39.890625 
Q 22.75 39.890625 18.8125 39.015625 
Q 14.890625 38.140625 10.796875 36.28125 
z
" id="DejaVuSans-53"/>
      </defs>
      <g transform="translate(46.648906 690.190437)scale(0.1 -0.1)">
       <use xlink:href="#DejaVuSans-8722"/>
       <use x="83.789062" xlink:href="#DejaVuSans-53"/>
      </g>
     </g>
    </g>
    <g id="xtick_2">
     <g id="line2d_2">
      <g>
       <use style="stroke:#000000;stroke-width:0.8;" x="145.416883" xlink:href="#m9b4131141a" y="675.592"/>
      </g>
     </g>
     <g id="text_2">
      <!-- −4 -->
      <defs>
       <path d="M 37.796875 64.3125 
L 12.890625 25.390625 
L 37.796875 25.390625 
z
M 35.203125 72.90625 
L 47.609375 72.90625 
L 47.609375 25.390625 
L 58.015625 25.390625 
L 58.015625 17.1875 
L 47.609375 17.1875 
L 47.609375 0 
L 37.796875 0 
L 37.796875 17.1875 
L 4.890625 17.1875 
L 4.890625 26.703125 
z
" id="DejaVuSans-52"/>
      </defs>
      <g transform="translate(138.045789 690.190437)scale(0.1 -0.1)">
       <use xlink:href="#DejaVuSans-8722"/>
       <use x="83.789062" xlink:href="#DejaVuSans-52"/>
      </g>
     </g>
    </g>
    <g id="xtick_3">
     <g id="line2d_3">
      <g>
       <use style="stroke:#000000;stroke-width:0.8;" x="236.813765" xlink:href="#m9b4131141a" y="675.592"/>
      </g>
     </g>
     <g id="text_3">
      <!-- −3 -->
      <defs>
       <path d="M 40.578125 39.3125 
Q 47.65625 37.796875 51.625 33 
Q 55.609375 28.21875 55.609375 21.1875 
Q 55.609375 10.40625 48.1875 4.484375 
Q 40.765625 -1.421875 27.09375 -1.421875 
Q 22.515625 -1.421875 17.65625 -0.515625 
Q 12.796875 0.390625 7.625 2.203125 
L 7.625 11.71875 
Q 11.71875 9.328125 16.59375 8.109375 
Q 21.484375 6.890625 26.8125 6.890625 
Q 36.078125 6.890625 40.9375 10.546875 
Q 45.796875 14.203125 45.796875 21.1875 
Q 45.796875 27.640625 41.28125 31.265625 
Q 36.765625 34.90625 28.71875 34.90625 
L 20.21875 34.90625 
L 20.21875 43.015625 
L 29.109375 43.015625 
Q 36.375 43.015625 40.234375 45.921875 
Q 44.09375 48.828125 44.09375 54.296875 
Q 44.09375 59.90625 40.109375 62.90625 
Q 36.140625 65.921875 28.71875 65.921875 
Q 24.65625 65.921875 20.015625 65.03125 
Q 15.375 64.15625 9.8125 62.3125 
L 9.8125 71.09375 
Q 15.4375 72.65625 20.34375 73.4375 
Q 25.25 74.21875 29.59375 74.21875 
Q 40.828125 74.21875 47.359375 69.109375 
Q 53.90625 64.015625 53.90625 55.328125 
Q 53.90625 49.265625 50.4375 45.09375 
Q 46.96875 40.921875 40.578125 39.3125 
z
" id="DejaVuSans-51"/>
      </defs>
      <g transform="translate(229.442672 690.190437)scale(0.1 -0.1)">
       <use xlink:href="#DejaVuSans-8722"/>
       <use x="83.789062" xlink:href="#DejaVuSans-51"/>
      </g>
     </g>
    </g>
    <g id="xtick_4">
     <g id="line2d_4">
      <g>
       <use style="stroke:#000000;stroke-width:0.8;" x="328.210648" xlink:href="#m9b4131141a" y="675.592"/>
      </g>
     </g>
     <g id="text_4">
      <!-- −2 -->
      <defs>
       <path d="M 19.1875 8.296875 
L 53.609375 8.296875 
L 53.609375 0 
L 7.328125 0 
L 7.328125 8.296875 
Q 12.9375 14.109375 22.625 23.890625 
Q 32.328125 33.6875 34.8125 36.53125 
Q 39.546875 41.84375 41.421875 45.53125 
Q 43.3125 49.21875 43.3125 52.78125 
Q 43.3125 58.59375 39.234375 62.25 
Q 35.15625 65.921875 28.609375 65.921875 
Q 23.96875 65.921875 18.8125 64.3125 
Q 13.671875 62.703125 7.8125 59.421875 
L 7.8125 69.390625 
Q 13.765625 71.78125 18.9375 73 
Q 24.125 74.21875 28.421875 74.21875 
Q 39.75 74.21875 46.484375 68.546875 
Q 53.21875 62.890625 53.21875 53.421875 
Q 53.21875 48.921875 51.53125 44.890625 
Q 49.859375 40.875 45.40625 35.40625 
Q 44.1875 33.984375 37.640625 27.21875 
Q 31.109375 20.453125 19.1875 8.296875 
z
" id="DejaVuSans-50"/>
      </defs>
      <g transform="translate(320.839554 690.190437)scale(0.1 -0.1)">
       <use xlink:href="#DejaVuSans-8722"/>
       <use x="83.789062" xlink:href="#DejaVuSans-50"/>
      </g>
     </g>
    </g>
    <g id="xtick_5">
     <g id="line2d_5">
      <g>
       <use style="stroke:#000000;stroke-width:0.8;" x="419.607531" xlink:href="#m9b4131141a" y="675.592"/>
      </g>
     </g>
     <g id="text_5">
      <!-- −1 -->
      <defs>
       <path d="M 12.40625 8.296875 
L 28.515625 8.296875 
L 28.515625 63.921875 
L 10.984375 60.40625 
L 10.984375 69.390625 
L 28.421875 72.90625 
L 38.28125 72.90625 
L 38.28125 8.296875 
L 54.390625 8.296875 
L 54.390625 0 
L 12.40625 0 
z
" id="DejaVuSans-49"/>
      </defs>
      <g transform="translate(412.236437 690.190437)scale(0.1 -0.1)">
       <use xlink:href="#DejaVuSans-8722"/>
       <use x="83.789062" xlink:href="#DejaVuSans-49"/>
      </g>
     </g>
    </g>
    <g id="xtick_6">
     <g id="line2d_6">
      <g>
       <use style="stroke:#000000;stroke-width:0.8;" x="511.004413" xlink:href="#m9b4131141a" y="675.592"/>
      </g>
     </g>
     <g id="text_6">
      <!-- 0 -->
      <defs>
       <path d="M 31.78125 66.40625 
Q 24.171875 66.40625 20.328125 58.90625 
Q 16.5 51.421875 16.5 36.375 
Q 16.5 21.390625 20.328125 13.890625 
Q 24.171875 6.390625 31.78125 6.390625 
Q 39.453125 6.390625 43.28125 13.890625 
Q 47.125 21.390625 47.125 36.375 
Q 47.125 51.421875 43.28125 58.90625 
Q 39.453125 66.40625 31.78125 66.40625 
z
M 31.78125 74.21875 
Q 44.046875 74.21875 50.515625 64.515625 
Q 56.984375 54.828125 56.984375 36.375 
Q 56.984375 17.96875 50.515625 8.265625 
Q 44.046875 -1.421875 31.78125 -1.421875 
Q 19.53125 -1.421875 13.0625 8.265625 
Q 6.59375 17.96875 6.59375 36.375 
Q 6.59375 54.828125 13.0625 64.515625 
Q 19.53125 74.21875 31.78125 74.21875 
z
" id="DejaVuSans-48"/>
      </defs>
      <g transform="translate(507.823163 690.190437)scale(0.1 -0.1)">
       <use xlink:href="#DejaVuSans-48"/>
      </g>
     </g>
    </g>
    <g id="xtick_7">
     <g id="line2d_7">
      <g>
       <use style="stroke:#000000;stroke-width:0.8;" x="602.401296" xlink:href="#m9b4131141a" y="675.592"/>
      </g>
     </g>
     <g id="text_7">
      <!-- 1 -->
      <g transform="translate(599.220046 690.190437)scale(0.1 -0.1)">
       <use xlink:href="#DejaVuSans-49"/>
      </g>
     </g>
    </g>
    <g id="xtick_8">
     <g id="line2d_8">
      <g>
       <use style="stroke:#000000;stroke-width:0.8;" x="693.798179" xlink:href="#m9b4131141a" y="675.592"/>
      </g>
     </g>
     <g id="text_8">
      <!-- 2 -->
      <g transform="translate(690.616929 690.190437)scale(0.1 -0.1)">
       <use xlink:href="#DejaVuSans-50"/>
      </g>
     </g>
    </g>
    <g id="text_9">
     <!-- ln $K_\mathrm{S}$ -->
     <defs>
      <path d="M 9.421875 75.984375 
L 18.40625 75.984375 
L 18.40625 0 
L 9.421875 0 
z
" id="DejaVuSans-108"/>
      <path d="M 54.890625 33.015625 
L 54.890625 0 
L 45.90625 0 
L 45.90625 32.71875 
Q 45.90625 40.484375 42.875 44.328125 
Q 39.84375 48.1875 33.796875 48.1875 
Q 26.515625 48.1875 22.3125 43.546875 
Q 18.109375 38.921875 18.109375 30.90625 
L 18.109375 0 
L 9.078125 0 
L 9.078125 54.6875 
L 18.109375 54.6875 
L 18.109375 46.1875 
Q 21.34375 51.125 25.703125 53.5625 
Q 30.078125 56 35.796875 56 
Q 45.21875 56 50.046875 50.171875 
Q 54.890625 44.34375 54.890625 33.015625 
z
" id="DejaVuSans-110"/>
      <path id="DejaVuSans-32"/>
      <path d="M 16.890625 72.90625 
L 26.8125 72.90625 
L 20.796875 42.1875 
L 59.078125 72.90625 
L 72.21875 72.90625 
L 28.90625 38.09375 
L 60.59375 0 
L 48.578125 0 
L 19.484375 35.5 
L 12.59375 0 
L 2.6875 0 
z
" id="DejaVuSans-Oblique-75"/>
      <path d="M 53.515625 70.515625 
L 53.515625 60.890625 
Q 47.90625 63.578125 42.921875 64.890625 
Q 37.9375 66.21875 33.296875 66.21875 
Q 25.25 66.21875 20.875 63.09375 
Q 16.5 59.96875 16.5 54.203125 
Q 16.5 49.359375 19.40625 46.890625 
Q 22.3125 44.4375 30.421875 42.921875 
L 36.375 41.703125 
Q 47.40625 39.59375 52.65625 34.296875 
Q 57.90625 29 57.90625 20.125 
Q 57.90625 9.515625 50.796875 4.046875 
Q 43.703125 -1.421875 29.984375 -1.421875 
Q 24.8125 -1.421875 18.96875 -0.25 
Q 13.140625 0.921875 6.890625 3.21875 
L 6.890625 13.375 
Q 12.890625 10.015625 18.65625 8.296875 
Q 24.421875 6.59375 29.984375 6.59375 
Q 38.421875 6.59375 43.015625 9.90625 
Q 47.609375 13.234375 47.609375 19.390625 
Q 47.609375 24.75 44.3125 27.78125 
Q 41.015625 30.8125 33.5 32.328125 
L 27.484375 33.5 
Q 16.453125 35.6875 11.515625 40.375 
Q 6.59375 45.0625 6.59375 53.421875 
Q 6.59375 63.09375 13.40625 68.65625 
Q 20.21875 74.21875 32.171875 74.21875 
Q 37.3125 74.21875 42.625 73.28125 
Q 47.953125 72.359375 53.515625 70.515625 
z
" id="DejaVuSans-83"/>
     </defs>
     <g transform="translate(362.109089 703.868562)scale(0.1 -0.1)">
      <use transform="translate(0 0.015625)" xlink:href="#DejaVuSans-108"/>
      <use transform="translate(27.783203 0.015625)" xlink:href="#DejaVuSans-110"/>
      <use transform="translate(91.162109 0.015625)" xlink:href="#DejaVuSans-32"/>
      <use transform="translate(122.949219 0.015625)" xlink:href="#DejaVuSans-Oblique-75"/>
      <use transform="translate(188.525391 -16.390625)scale(0.7)" xlink:href="#DejaVuSans-83"/>
     </g>
    </g>
   </g>
   <g id="matplotlib.axis_2">
    <g id="ytick_1">
     <g id="line2d_9">
      <defs>
       <path d="M 0 0 
L -3.5 0 
" id="mdf27ccb653" style="stroke:#000000;stroke-width:0.8;"/>
      </defs>
      <g>
       <use style="stroke:#000000;stroke-width:0.8;" x="54.02" xlink:href="#mdf27ccb653" y="675.592"/>
      </g>
     </g>
     <g id="text_10">
      <!-- 0.00 -->
      <defs>
       <path d="M 10.6875 12.40625 
L 21 12.40625 
L 21 0 
L 10.6875 0 
z
" id="DejaVuSans-46"/>
      </defs>
      <g transform="translate(24.754375 679.391219)scale(0.1 -0.1)">
       <use xlink:href="#DejaVuSans-48"/>
       <use x="63.623047" xlink:href="#DejaVuSans-46"/>
       <use x="95.410156" xlink:href="#DejaVuSans-48"/>
       <use x="159.033203" xlink:href="#DejaVuSans-48"/>
      </g>
     </g>
    </g>
    <g id="ytick_2">
     <g id="line2d_10">
      <g>
       <use style="stroke:#000000;stroke-width:0.8;" x="54.02" xlink:href="#mdf27ccb653" y="575.970354"/>
      </g>
     </g>
     <g id="text_11">
      <!-- 0.05 -->
      <g transform="translate(24.754375 579.769573)scale(0.1 -0.1)">
       <use xlink:href="#DejaVuSans-48"/>
       <use x="63.623047" xlink:href="#DejaVuSans-46"/>
       <use x="95.410156" xlink:href="#DejaVuSans-48"/>
       <use x="159.033203" xlink:href="#DejaVuSans-53"/>
      </g>
     </g>
    </g>
    <g id="ytick_3">
     <g id="line2d_11">
      <g>
       <use style="stroke:#000000;stroke-width:0.8;" x="54.02" xlink:href="#mdf27ccb653" y="476.348709"/>
      </g>
     </g>
     <g id="text_12">
      <!-- 0.10 -->
      <g transform="translate(24.754375 480.147928)scale(0.1 -0.1)">
       <use xlink:href="#DejaVuSans-48"/>
       <use x="63.623047" xlink:href="#DejaVuSans-46"/>
       <use x="95.410156" xlink:href="#DejaVuSans-49"/>
       <use x="159.033203" xlink:href="#DejaVuSans-48"/>
      </g>
     </g>
    </g>
    <g id="ytick_4">
     <g id="line2d_12">
      <g>
       <use style="stroke:#000000;stroke-width:0.8;" x="54.02" xlink:href="#mdf27ccb653" y="376.727063"/>
      </g>
     </g>
     <g id="text_13">
      <!-- 0.15 -->
      <g transform="translate(24.754375 380.526282)scale(0.1 -0.1)">
       <use xlink:href="#DejaVuSans-48"/>
       <use x="63.623047" xlink:href="#DejaVuSans-46"/>
       <use x="95.410156" xlink:href="#DejaVuSans-49"/>
       <use x="159.033203" xlink:href="#DejaVuSans-53"/>
      </g>
     </g>
    </g>
    <g id="ytick_5">
     <g id="line2d_13">
      <g>
       <use style="stroke:#000000;stroke-width:0.8;" x="54.02" xlink:href="#mdf27ccb653" y="277.105418"/>
      </g>
     </g>
     <g id="text_14">
      <!-- 0.20 -->
      <g transform="translate(24.754375 280.904636)scale(0.1 -0.1)">
       <use xlink:href="#DejaVuSans-48"/>
       <use x="63.623047" xlink:href="#DejaVuSans-46"/>
       <use x="95.410156" xlink:href="#DejaVuSans-50"/>
       <use x="159.033203" xlink:href="#DejaVuSans-48"/>
      </g>
     </g>
    </g>
    <g id="ytick_6">
     <g id="line2d_14">
      <g>
       <use style="stroke:#000000;stroke-width:0.8;" x="54.02" xlink:href="#mdf27ccb653" y="177.483772"/>
      </g>
     </g>
     <g id="text_15">
      <!-- 0.25 -->
      <g transform="translate(24.754375 181.282991)scale(0.1 -0.1)">
       <use xlink:href="#DejaVuSans-48"/>
       <use x="63.623047" xlink:href="#DejaVuSans-46"/>
       <use x="95.410156" xlink:href="#DejaVuSans-50"/>
       <use x="159.033203" xlink:href="#DejaVuSans-53"/>
      </g>
     </g>
    </g>
    <g id="ytick_7">
     <g id="line2d_15">
      <g>
       <use style="stroke:#000000;stroke-width:0.8;" x="54.02" xlink:href="#mdf27ccb653" y="77.862126"/>
      </g>
     </g>
     <g id="text_16">
      <!-- 0.30 -->
      <g transform="translate(24.754375 81.661345)scale(0.1 -0.1)">
       <use xlink:href="#DejaVuSans-48"/>
       <use x="63.623047" xlink:href="#DejaVuSans-46"/>
       <use x="95.410156" xlink:href="#DejaVuSans-51"/>
       <use x="159.033203" xlink:href="#DejaVuSans-48"/>
      </g>
     </g>
    </g>
    <g id="text_17">
     <!-- Density of retained duplicates -->
     <defs>
      <path d="M 19.671875 64.796875 
L 19.671875 8.109375 
L 31.59375 8.109375 
Q 46.6875 8.109375 53.6875 14.9375 
Q 60.6875 21.78125 60.6875 36.53125 
Q 60.6875 51.171875 53.6875 57.984375 
Q 46.6875 64.796875 31.59375 64.796875 
z
M 9.8125 72.90625 
L 30.078125 72.90625 
Q 51.265625 72.90625 61.171875 64.09375 
Q 71.09375 55.28125 71.09375 36.53125 
Q 71.09375 17.671875 61.125 8.828125 
Q 51.171875 0 30.078125 0 
L 9.8125 0 
z
" id="DejaVuSans-68"/>
      <path d="M 56.203125 29.59375 
L 56.203125 25.203125 
L 14.890625 25.203125 
Q 15.484375 15.921875 20.484375 11.0625 
Q 25.484375 6.203125 34.421875 6.203125 
Q 39.59375 6.203125 44.453125 7.46875 
Q 49.3125 8.734375 54.109375 11.28125 
L 54.109375 2.78125 
Q 49.265625 0.734375 44.1875 -0.34375 
Q 39.109375 -1.421875 33.890625 -1.421875 
Q 20.796875 -1.421875 13.15625 6.1875 
Q 5.515625 13.8125 5.515625 26.8125 
Q 5.515625 40.234375 12.765625 48.109375 
Q 20.015625 56 32.328125 56 
Q 43.359375 56 49.78125 48.890625 
Q 56.203125 41.796875 56.203125 29.59375 
z
M 47.21875 32.234375 
Q 47.125 39.59375 43.09375 43.984375 
Q 39.0625 48.390625 32.421875 48.390625 
Q 24.90625 48.390625 20.390625 44.140625 
Q 15.875 39.890625 15.1875 32.171875 
z
" id="DejaVuSans-101"/>
      <path d="M 44.28125 53.078125 
L 44.28125 44.578125 
Q 40.484375 46.53125 36.375 47.5 
Q 32.28125 48.484375 27.875 48.484375 
Q 21.1875 48.484375 17.84375 46.4375 
Q 14.5 44.390625 14.5 40.28125 
Q 14.5 37.15625 16.890625 35.375 
Q 19.28125 33.59375 26.515625 31.984375 
L 29.59375 31.296875 
Q 39.15625 29.25 43.1875 25.515625 
Q 47.21875 21.78125 47.21875 15.09375 
Q 47.21875 7.46875 41.1875 3.015625 
Q 35.15625 -1.421875 24.609375 -1.421875 
Q 20.21875 -1.421875 15.453125 -0.5625 
Q 10.6875 0.296875 5.421875 2 
L 5.421875 11.28125 
Q 10.40625 8.6875 15.234375 7.390625 
Q 20.0625 6.109375 24.8125 6.109375 
Q 31.15625 6.109375 34.5625 8.28125 
Q 37.984375 10.453125 37.984375 14.40625 
Q 37.984375 18.0625 35.515625 20.015625 
Q 33.0625 21.96875 24.703125 23.78125 
L 21.578125 24.515625 
Q 13.234375 26.265625 9.515625 29.90625 
Q 5.8125 33.546875 5.8125 39.890625 
Q 5.8125 47.609375 11.28125 51.796875 
Q 16.75 56 26.8125 56 
Q 31.78125 56 36.171875 55.265625 
Q 40.578125 54.546875 44.28125 53.078125 
z
" id="DejaVuSans-115"/>
      <path d="M 9.421875 54.6875 
L 18.40625 54.6875 
L 18.40625 0 
L 9.421875 0 
z
M 9.421875 75.984375 
L 18.40625 75.984375 
L 18.40625 64.59375 
L 9.421875 64.59375 
z
" id="DejaVuSans-105"/>
      <path d="M 18.3125 70.21875 
L 18.3125 54.6875 
L 36.8125 54.6875 
L 36.8125 47.703125 
L 18.3125 47.703125 
L 18.3125 18.015625 
Q 18.3125 11.328125 20.140625 9.421875 
Q 21.96875 7.515625 27.59375 7.515625 
L 36.8125 7.515625 
L 36.8125 0 
L 27.59375 0 
Q 17.1875 0 13.234375 3.875 
Q 9.28125 7.765625 9.28125 18.015625 
L 9.28125 47.703125 
L 2.6875 47.703125 
L 2.6875 54.6875 
L 9.28125 54.6875 
L 9.28125 70.21875 
z
" id="DejaVuSans-116"/>
      <path d="M 32.171875 -5.078125 
Q 28.375 -14.84375 24.75 -17.8125 
Q 21.140625 -20.796875 15.09375 -20.796875 
L 7.90625 -20.796875 
L 7.90625 -13.28125 
L 13.1875 -13.28125 
Q 16.890625 -13.28125 18.9375 -11.515625 
Q 21 -9.765625 23.484375 -3.21875 
L 25.09375 0.875 
L 2.984375 54.6875 
L 12.5 54.6875 
L 29.59375 11.921875 
L 46.6875 54.6875 
L 56.203125 54.6875 
z
" id="DejaVuSans-121"/>
      <path d="M 30.609375 48.390625 
Q 23.390625 48.390625 19.1875 42.75 
Q 14.984375 37.109375 14.984375 27.296875 
Q 14.984375 17.484375 19.15625 11.84375 
Q 23.34375 6.203125 30.609375 6.203125 
Q 37.796875 6.203125 41.984375 11.859375 
Q 46.1875 17.53125 46.1875 27.296875 
Q 46.1875 37.015625 41.984375 42.703125 
Q 37.796875 48.390625 30.609375 48.390625 
z
M 30.609375 56 
Q 42.328125 56 49.015625 48.375 
Q 55.71875 40.765625 55.71875 27.296875 
Q 55.71875 13.875 49.015625 6.21875 
Q 42.328125 -1.421875 30.609375 -1.421875 
Q 18.84375 -1.421875 12.171875 6.21875 
Q 5.515625 13.875 5.515625 27.296875 
Q 5.515625 40.765625 12.171875 48.375 
Q 18.84375 56 30.609375 56 
z
" id="DejaVuSans-111"/>
      <path d="M 37.109375 75.984375 
L 37.109375 68.5 
L 28.515625 68.5 
Q 23.6875 68.5 21.796875 66.546875 
Q 19.921875 64.59375 19.921875 59.515625 
L 19.921875 54.6875 
L 34.71875 54.6875 
L 34.71875 47.703125 
L 19.921875 47.703125 
L 19.921875 0 
L 10.890625 0 
L 10.890625 47.703125 
L 2.296875 47.703125 
L 2.296875 54.6875 
L 10.890625 54.6875 
L 10.890625 58.5 
Q 10.890625 67.625 15.140625 71.796875 
Q 19.390625 75.984375 28.609375 75.984375 
z
" id="DejaVuSans-102"/>
      <path d="M 41.109375 46.296875 
Q 39.59375 47.171875 37.8125 47.578125 
Q 36.03125 48 33.890625 48 
Q 26.265625 48 22.1875 43.046875 
Q 18.109375 38.09375 18.109375 28.8125 
L 18.109375 0 
L 9.078125 0 
L 9.078125 54.6875 
L 18.109375 54.6875 
L 18.109375 46.1875 
Q 20.953125 51.171875 25.484375 53.578125 
Q 30.03125 56 36.53125 56 
Q 37.453125 56 38.578125 55.875 
Q 39.703125 55.765625 41.0625 55.515625 
z
" id="DejaVuSans-114"/>
      <path d="M 34.28125 27.484375 
Q 23.390625 27.484375 19.1875 25 
Q 14.984375 22.515625 14.984375 16.5 
Q 14.984375 11.71875 18.140625 8.90625 
Q 21.296875 6.109375 26.703125 6.109375 
Q 34.1875 6.109375 38.703125 11.40625 
Q 43.21875 16.703125 43.21875 25.484375 
L 43.21875 27.484375 
z
M 52.203125 31.203125 
L 52.203125 0 
L 43.21875 0 
L 43.21875 8.296875 
Q 40.140625 3.328125 35.546875 0.953125 
Q 30.953125 -1.421875 24.3125 -1.421875 
Q 15.921875 -1.421875 10.953125 3.296875 
Q 6 8.015625 6 15.921875 
Q 6 25.140625 12.171875 29.828125 
Q 18.359375 34.515625 30.609375 34.515625 
L 43.21875 34.515625 
L 43.21875 35.40625 
Q 43.21875 41.609375 39.140625 45 
Q 35.0625 48.390625 27.6875 48.390625 
Q 23 48.390625 18.546875 47.265625 
Q 14.109375 46.140625 10.015625 43.890625 
L 10.015625 52.203125 
Q 14.9375 54.109375 19.578125 55.046875 
Q 24.21875 56 28.609375 56 
Q 40.484375 56 46.34375 49.84375 
Q 52.203125 43.703125 52.203125 31.203125 
z
" id="DejaVuSans-97"/>
      <path d="M 45.40625 46.390625 
L 45.40625 75.984375 
L 54.390625 75.984375 
L 54.390625 0 
L 45.40625 0 
L 45.40625 8.203125 
Q 42.578125 3.328125 38.25 0.953125 
Q 33.9375 -1.421875 27.875 -1.421875 
Q 17.96875 -1.421875 11.734375 6.484375 
Q 5.515625 14.40625 5.515625 27.296875 
Q 5.515625 40.1875 11.734375 48.09375 
Q 17.96875 56 27.875 56 
Q 33.9375 56 38.25 53.625 
Q 42.578125 51.265625 45.40625 46.390625 
z
M 14.796875 27.296875 
Q 14.796875 17.390625 18.875 11.75 
Q 22.953125 6.109375 30.078125 6.109375 
Q 37.203125 6.109375 41.296875 11.75 
Q 45.40625 17.390625 45.40625 27.296875 
Q 45.40625 37.203125 41.296875 42.84375 
Q 37.203125 48.484375 30.078125 48.484375 
Q 22.953125 48.484375 18.875 42.84375 
Q 14.796875 37.203125 14.796875 27.296875 
z
" id="DejaVuSans-100"/>
      <path d="M 8.5 21.578125 
L 8.5 54.6875 
L 17.484375 54.6875 
L 17.484375 21.921875 
Q 17.484375 14.15625 20.5 10.265625 
Q 23.53125 6.390625 29.59375 6.390625 
Q 36.859375 6.390625 41.078125 11.03125 
Q 45.3125 15.671875 45.3125 23.6875 
L 45.3125 54.6875 
L 54.296875 54.6875 
L 54.296875 0 
L 45.3125 0 
L 45.3125 8.40625 
Q 42.046875 3.421875 37.71875 1 
Q 33.40625 -1.421875 27.6875 -1.421875 
Q 18.265625 -1.421875 13.375 4.4375 
Q 8.5 10.296875 8.5 21.578125 
z
M 31.109375 56 
z
" id="DejaVuSans-117"/>
      <path d="M 18.109375 8.203125 
L 18.109375 -20.796875 
L 9.078125 -20.796875 
L 9.078125 54.6875 
L 18.109375 54.6875 
L 18.109375 46.390625 
Q 20.953125 51.265625 25.265625 53.625 
Q 29.59375 56 35.59375 56 
Q 45.5625 56 51.78125 48.09375 
Q 58.015625 40.1875 58.015625 27.296875 
Q 58.015625 14.40625 51.78125 6.484375 
Q 45.5625 -1.421875 35.59375 -1.421875 
Q 29.59375 -1.421875 25.265625 0.953125 
Q 20.953125 3.328125 18.109375 8.203125 
z
M 48.6875 27.296875 
Q 48.6875 37.203125 44.609375 42.84375 
Q 40.53125 48.484375 33.40625 48.484375 
Q 26.265625 48.484375 22.1875 42.84375 
Q 18.109375 37.203125 18.109375 27.296875 
Q 18.109375 17.390625 22.1875 11.75 
Q 26.265625 6.109375 33.40625 6.109375 
Q 40.53125 6.109375 44.609375 11.75 
Q 48.6875 17.390625 48.6875 27.296875 
z
" id="DejaVuSans-112"/>
      <path d="M 48.78125 52.59375 
L 48.78125 44.1875 
Q 44.96875 46.296875 41.140625 47.34375 
Q 37.3125 48.390625 33.40625 48.390625 
Q 24.65625 48.390625 19.8125 42.84375 
Q 14.984375 37.3125 14.984375 27.296875 
Q 14.984375 17.28125 19.8125 11.734375 
Q 24.65625 6.203125 33.40625 6.203125 
Q 37.3125 6.203125 41.140625 7.25 
Q 44.96875 8.296875 48.78125 10.40625 
L 48.78125 2.09375 
Q 45.015625 0.34375 40.984375 -0.53125 
Q 36.96875 -1.421875 32.421875 -1.421875 
Q 20.0625 -1.421875 12.78125 6.34375 
Q 5.515625 14.109375 5.515625 27.296875 
Q 5.515625 40.671875 12.859375 48.328125 
Q 20.21875 56 33.015625 56 
Q 37.15625 56 41.109375 55.140625 
Q 45.0625 54.296875 48.78125 52.59375 
z
" id="DejaVuSans-99"/>
     </defs>
     <g transform="translate(18.674688 427.153656)rotate(-90)scale(0.1 -0.1)">
      <use xlink:href="#DejaVuSans-68"/>
      <use x="77.001953" xlink:href="#DejaVuSans-101"/>
      <use x="138.525391" xlink:href="#DejaVuSans-110"/>
      <use x="201.904297" xlink:href="#DejaVuSans-115"/>
      <use x="254.003906" xlink:href="#DejaVuSans-105"/>
      <use x="281.787109" xlink:href="#DejaVuSans-116"/>
      <use x="320.996094" xlink:href="#DejaVuSans-121"/>
      <use x="380.175781" xlink:href="#DejaVuSans-32"/>
      <use x="411.962891" xlink:href="#DejaVuSans-111"/>
      <use x="473.144531" xlink:href="#DejaVuSans-102"/>
      <use x="508.349609" xlink:href="#DejaVuSans-32"/>
      <use x="540.136719" xlink:href="#DejaVuSans-114"/>
      <use x="579" xlink:href="#DejaVuSans-101"/>
      <use x="640.523438" xlink:href="#DejaVuSans-116"/>
      <use x="679.732422" xlink:href="#DejaVuSans-97"/>
      <use x="741.011719" xlink:href="#DejaVuSans-105"/>
      <use x="768.794922" xlink:href="#DejaVuSans-110"/>
      <use x="832.173828" xlink:href="#DejaVuSans-101"/>
      <use x="893.697266" xlink:href="#DejaVuSans-100"/>
      <use x="957.173828" xlink:href="#DejaVuSans-32"/>
      <use x="988.960938" xlink:href="#DejaVuSans-100"/>
      <use x="1052.4375" xlink:href="#DejaVuSans-117"/>
      <use x="1115.816406" xlink:href="#DejaVuSans-112"/>
      <use x="1179.292969" xlink:href="#DejaVuSans-108"/>
      <use x="1207.076172" xlink:href="#DejaVuSans-105"/>
      <use x="1234.859375" xlink:href="#DejaVuSans-99"/>
      <use x="1289.839844" xlink:href="#DejaVuSans-97"/>
      <use x="1351.119141" xlink:href="#DejaVuSans-116"/>
      <use x="1390.328125" xlink:href="#DejaVuSans-101"/>
      <use x="1451.851562" xlink:href="#DejaVuSans-115"/>
     </g>
    </g>
   </g>
   <g id="line2d_16">
    <path clip-path="url(#p135a4c1b5c)" d="M -1 646.395195 
L 4.043999 643.303457 
L 20.545376 632.918984 
L 34.296524 624.555664 
L 39.796983 620.906469 
L 42.547213 618.899371 
L 45.297442 616.726936 
L 48.047672 614.365459 
L 50.797901 611.804681 
L 53.548131 609.051207 
L 59.04859 603.0795 
L 70.049508 590.682337 
L 75.549968 585.054609 
L 78.300197 582.482345 
L 83.800656 577.806725 
L 89.301115 573.611382 
L 111.302952 557.565364 
L 119.553641 551.113788 
L 127.80433 544.434849 
L 136.055018 537.467126 
L 149.806166 525.624067 
L 155.306625 521.264746 
L 160.807084 517.299522 
L 166.307544 513.768551 
L 169.057773 512.186998 
L 171.808003 510.743554 
L 174.558232 509.444079 
L 180.058691 507.223534 
L 185.559151 505.200058 
L 188.30938 504.079016 
L 191.05961 502.780874 
L 193.809839 501.249687 
L 196.560069 499.462698 
L 199.310299 497.43521 
L 204.810758 492.874517 
L 221.312135 478.537676 
L 226.812594 473.250452 
L 235.063283 464.859416 
L 237.813513 462.337256 
L 240.563742 460.165247 
L 243.313972 458.444232 
L 246.064201 457.233209 
L 248.814431 456.543611 
L 251.56466 456.343123 
L 254.31489 456.566458 
L 257.06512 457.128992 
L 259.815349 457.939119 
L 265.315808 459.945114 
L 270.816267 461.911247 
L 273.566497 462.681847 
L 276.316727 463.212787 
L 279.066956 463.443278 
L 281.817186 463.332146 
L 284.567415 462.865416 
L 287.317645 462.060866 
L 290.067875 460.967956 
L 295.568334 458.241142 
L 301.068793 455.463276 
L 303.819022 454.309853 
L 306.569252 453.433414 
L 309.319482 452.907638 
L 312.069711 452.790374 
L 314.819941 453.121321 
L 317.57017 453.919699 
L 320.3204 455.182719 
L 323.070629 456.885951 
L 325.820859 458.986351 
L 328.571089 461.427865 
L 331.321318 464.148582 
L 334.071548 467.087715 
L 339.572007 473.410166 
L 350.572925 486.593382 
L 353.323155 489.685102 
L 356.073384 492.531826 
L 358.823614 495.028106 
L 361.573843 497.067381 
L 364.324073 498.555874 
L 367.074303 499.427658 
L 369.824532 499.657777 
L 372.574762 499.270255 
L 375.324991 498.338627 
L 378.075221 496.978041 
L 380.825451 495.32982 
L 389.076139 490.030468 
L 394.576598 487.00028 
L 400.077058 484.213599 
L 402.827287 482.664866 
L 405.577517 480.851992 
L 408.327746 478.669058 
L 411.077976 476.040286 
L 413.828205 472.928923 
L 416.578435 469.338975 
L 419.328665 465.309958 
L 422.078894 460.906214 
L 424.829124 456.203351 
L 430.329583 446.181292 
L 435.830042 435.645586 
L 441.330501 424.698003 
L 446.83096 413.204254 
L 452.331419 400.877143 
L 455.081649 394.279335 
L 457.831879 387.320426 
L 460.582108 379.953824 
L 463.332338 372.150809 
L 466.082567 363.911662 
L 471.583026 346.320897 
L 479.833715 318.938423 
L 482.583945 310.221496 
L 485.334174 302.023659 
L 488.084404 294.527185 
L 490.834634 287.904602 
L 493.584863 282.3184 
L 496.335093 277.920305 
L 499.085322 274.847164 
L 501.835552 273.2117 
L 504.585781 273.088615 
L 507.336011 274.498755 
L 510.086241 277.395643 
L 512.83647 281.658739 
L 515.5867 287.096456 
L 518.336929 293.459559 
L 521.087159 300.46296 
L 529.337848 322.468303 
L 532.088077 329.341274 
L 534.838307 335.706655 
L 537.588536 341.471605 
L 540.338766 346.578275 
L 543.088995 350.988428 
L 545.839225 354.6685 
L 548.589455 357.578582 
L 551.339684 359.667879 
L 554.089914 360.8778 
L 556.840143 361.152024 
L 559.590373 360.451203 
L 562.340602 358.768754 
L 565.090832 356.143815 
L 567.841062 352.668005 
L 570.591291 348.484043 
L 573.341521 343.776166 
L 584.342439 323.889197 
L 587.092669 319.584914 
L 589.842898 315.816302 
L 592.593128 312.665267 
L 595.343357 310.197656 
L 598.093587 308.475238 
L 600.843817 307.564702 
L 603.594046 307.540642 
L 606.344276 308.48094 
L 609.094505 310.454951 
L 611.844735 313.506853 
L 614.594964 317.637889 
L 617.345194 322.791788 
L 620.095424 328.847057 
L 622.845653 335.618456 
L 628.346112 350.324162 
L 631.096342 357.705701 
L 633.846571 364.747268 
L 636.596801 371.222005 
L 639.347031 376.958437 
L 642.09726 381.849187 
L 644.84749 385.850566 
L 647.597719 388.973363 
L 650.347949 391.266563 
L 653.098178 392.796827 
L 655.848408 393.6274 
L 658.598638 393.800273 
L 661.348867 393.324948 
L 664.099097 392.175947 
L 666.849326 390.299532 
L 669.599556 387.628369 
L 672.349786 384.101341 
L 675.100015 379.684859 
L 677.850245 374.391845 
L 680.600474 368.295037 
L 683.350704 361.532302 
L 688.851163 346.85489 
L 691.601393 339.465851 
L 694.351622 332.419049 
L 697.101852 325.979655 
L 699.852081 320.374737 
L 702.602311 315.781048 
L 705.35254 312.323311 
L 708.10277 310.08388 
L 710.853 309.122373 
L 713.603229 309.501601 
L 716.353459 311.314335 
L 719.103688 314.704566 
L 721 318.271122 
L 721 318.271122 
" style="fill:none;stroke:#000000;stroke-linecap:square;"/>
   </g>
   <g id="line2d_17">
    <path clip-path="url(#p135a4c1b5c)" d="M -1 640.494519 
L 6.794228 636.822218 
L 15.044917 632.657625 
L 23.295606 628.204373 
L 31.546294 623.456484 
L 39.796983 618.407979 
L 48.047672 613.052879 
L 56.298361 607.385205 
L 64.549049 601.398979 
L 72.799738 595.096328 
L 81.050427 588.511799 
L 89.301115 581.688048 
L 100.302034 572.291311 
L 114.053182 560.207996 
L 155.306625 523.604487 
L 166.307544 514.234234 
L 174.558232 507.436139 
L 182.808921 500.882233 
L 191.05961 494.61517 
L 199.310299 488.677604 
L 207.560987 483.112188 
L 213.061446 479.629725 
L 218.561906 476.344258 
L 224.062365 473.268425 
L 229.562824 470.414864 
L 235.063283 467.796214 
L 240.563742 465.425033 
L 246.064201 463.312064 
L 251.56466 461.466229 
L 257.06512 459.896375 
L 262.565579 458.611344 
L 268.066038 457.619983 
L 273.566497 456.931137 
L 279.066956 456.553648 
L 284.567415 456.496364 
L 290.067875 456.768128 
L 295.568334 457.377784 
L 301.068793 458.334179 
L 306.569252 459.646156 
L 312.069711 461.32256 
L 317.57017 463.372237 
L 323.070629 465.80403 
L 328.571089 468.60637 
L 334.071548 471.686024 
L 356.073384 484.50485 
L 361.573843 487.266373 
L 367.074303 489.62333 
L 369.824532 490.614581 
L 372.574762 491.462073 
L 375.324991 492.1516 
L 378.075221 492.668955 
L 380.825451 492.999934 
L 383.57568 493.13033 
L 386.32591 493.045937 
L 389.076139 492.73255 
L 391.826369 492.175962 
L 394.576598 491.361968 
L 397.326828 490.276362 
L 400.077058 488.904938 
L 402.827287 487.23349 
L 405.577517 485.247813 
L 408.327746 482.9337 
L 411.077976 480.278502 
L 413.828205 477.275801 
L 416.578435 473.920732 
L 419.328665 470.208434 
L 422.078894 466.134045 
L 424.829124 461.6927 
L 427.579353 456.879538 
L 430.329583 451.689696 
L 433.079812 446.118311 
L 435.830042 440.160521 
L 438.580272 433.811463 
L 441.330501 427.066274 
L 444.080731 419.920092 
L 446.83096 412.368054 
L 449.58119 404.405297 
L 452.331419 396.026958 
L 457.831879 378.17051 
L 468.832797 341.250832 
L 471.583026 332.469234 
L 474.333256 324.106874 
L 477.083486 316.283706 
L 479.833715 309.119686 
L 482.583945 302.734767 
L 485.334174 297.248903 
L 488.084404 292.782051 
L 490.834634 289.454163 
L 493.584863 287.385196 
L 496.335093 286.65057 
L 499.085322 287.147581 
L 501.835552 288.728992 
L 504.585781 291.247563 
L 507.336011 294.556059 
L 510.086241 298.507242 
L 512.83647 302.953873 
L 518.336929 312.744533 
L 523.837388 322.750137 
L 526.587618 327.46545 
L 529.337848 331.792787 
L 532.088077 335.58491 
L 534.838307 338.694582 
L 537.588536 340.974564 
L 540.338766 342.320022 
L 543.088995 342.79573 
L 545.839225 342.508862 
L 548.589455 341.566595 
L 551.339684 340.076104 
L 554.089914 338.144565 
L 556.840143 335.879153 
L 562.340602 330.775414 
L 567.841062 325.622293 
L 570.591291 323.295153 
L 573.341521 321.277195 
L 576.09175 319.675593 
L 578.84198 318.597524 
L 581.59221 318.124932 
L 584.342439 318.238837 
L 587.092669 318.895025 
L 589.842898 320.049286 
L 592.593128 321.657406 
L 595.343357 323.675174 
L 598.093587 326.058378 
L 600.843817 328.762806 
L 603.594046 331.744244 
L 606.344276 334.958483 
L 611.844735 341.908509 
L 628.346112 363.747715 
L 631.096342 367.067603 
L 633.846571 370.178169 
L 636.596801 373.035202 
L 639.347031 375.594489 
L 642.09726 377.811818 
L 644.84749 379.642977 
L 647.597719 381.043754 
L 650.347949 381.969936 
L 653.098178 382.377312 
L 655.848408 382.22167 
L 658.598638 381.458797 
L 661.348867 380.044481 
L 664.099097 377.934511 
L 666.849326 375.110342 
L 669.599556 371.656101 
L 672.349786 367.681584 
L 675.100015 363.296586 
L 680.600474 353.734329 
L 688.851163 339.057219 
L 691.601393 334.515037 
L 694.351622 330.330942 
L 697.101852 326.614729 
L 699.852081 323.476192 
L 702.602311 321.025128 
L 705.35254 319.371332 
L 708.10277 318.624598 
L 710.853 318.894723 
L 713.603229 320.291502 
L 716.353459 322.924729 
L 719.103688 326.904201 
L 721 330.652042 
L 721 330.652042 
" style="fill:none;stroke:#0000ff;stroke-linecap:square;"/>
   </g>
   <g id="line2d_18">
    <path clip-path="url(#p135a4c1b5c)" d="M 657.959331 675.592 
L 657.959331 28.32 
" style="fill:none;stroke:#ff0000;stroke-dasharray:3.7,1.6;stroke-dashoffset:0;"/>
   </g>
   <g id="patch_73">
    <path d="M 54.02 675.592 
L 54.02 28.32 
" style="fill:none;stroke:#000000;stroke-linecap:square;stroke-linejoin:miter;stroke-width:0.8;"/>
   </g>
   <g id="patch_74">
    <path d="M 693.798179 675.592 
L 693.798179 28.32 
" style="fill:none;stroke:#000000;stroke-linecap:square;stroke-linejoin:miter;stroke-width:0.8;"/>
   </g>
   <g id="patch_75">
    <path d="M 54.02 675.592 
L 693.798179 675.592 
" style="fill:none;stroke:#000000;stroke-linecap:square;stroke-linejoin:miter;stroke-width:0.8;"/>
   </g>
   <g id="patch_76">
    <path d="M 54.02 28.32 
L 693.798179 28.32 
" style="fill:none;stroke:#000000;stroke-linecap:square;stroke-linejoin:miter;stroke-width:0.8;"/>
   </g>
   <g id="text_18">
    <!-- KDE and spline of log-transformed $K_\mathrm{S}$ of species Schlechtendalia.fasta.transdecoder.cds.tsv.ks.tsv -->
    <defs>
     <path d="M 9.8125 72.90625 
L 19.671875 72.90625 
L 19.671875 42.09375 
L 52.390625 72.90625 
L 65.09375 72.90625 
L 28.90625 38.921875 
L 67.671875 0 
L 54.6875 0 
L 19.671875 35.109375 
L 19.671875 0 
L 9.8125 0 
z
" id="DejaVuSans-75"/>
     <path d="M 9.8125 72.90625 
L 55.90625 72.90625 
L 55.90625 64.59375 
L 19.671875 64.59375 
L 19.671875 43.015625 
L 54.390625 43.015625 
L 54.390625 34.71875 
L 19.671875 34.71875 
L 19.671875 8.296875 
L 56.78125 8.296875 
L 56.78125 0 
L 9.8125 0 
z
" id="DejaVuSans-69"/>
     <path d="M 45.40625 27.984375 
Q 45.40625 37.75 41.375 43.109375 
Q 37.359375 48.484375 30.078125 48.484375 
Q 22.859375 48.484375 18.828125 43.109375 
Q 14.796875 37.75 14.796875 27.984375 
Q 14.796875 18.265625 18.828125 12.890625 
Q 22.859375 7.515625 30.078125 7.515625 
Q 37.359375 7.515625 41.375 12.890625 
Q 45.40625 18.265625 45.40625 27.984375 
z
M 54.390625 6.78125 
Q 54.390625 -7.171875 48.1875 -13.984375 
Q 42 -20.796875 29.203125 -20.796875 
Q 24.46875 -20.796875 20.265625 -20.09375 
Q 16.0625 -19.390625 12.109375 -17.921875 
L 12.109375 -9.1875 
Q 16.0625 -11.328125 19.921875 -12.34375 
Q 23.78125 -13.375 27.78125 -13.375 
Q 36.625 -13.375 41.015625 -8.765625 
Q 45.40625 -4.15625 45.40625 5.171875 
L 45.40625 9.625 
Q 42.625 4.78125 38.28125 2.390625 
Q 33.9375 0 27.875 0 
Q 17.828125 0 11.671875 7.65625 
Q 5.515625 15.328125 5.515625 27.984375 
Q 5.515625 40.671875 11.671875 48.328125 
Q 17.828125 56 27.875 56 
Q 33.9375 56 38.28125 53.609375 
Q 42.625 51.21875 45.40625 46.390625 
L 45.40625 54.6875 
L 54.390625 54.6875 
z
" id="DejaVuSans-103"/>
     <path d="M 4.890625 31.390625 
L 31.203125 31.390625 
L 31.203125 23.390625 
L 4.890625 23.390625 
z
" id="DejaVuSans-45"/>
     <path d="M 52 44.1875 
Q 55.375 50.25 60.0625 53.125 
Q 64.75 56 71.09375 56 
Q 79.640625 56 84.28125 50.015625 
Q 88.921875 44.046875 88.921875 33.015625 
L 88.921875 0 
L 79.890625 0 
L 79.890625 32.71875 
Q 79.890625 40.578125 77.09375 44.375 
Q 74.3125 48.1875 68.609375 48.1875 
Q 61.625 48.1875 57.5625 43.546875 
Q 53.515625 38.921875 53.515625 30.90625 
L 53.515625 0 
L 44.484375 0 
L 44.484375 32.71875 
Q 44.484375 40.625 41.703125 44.40625 
Q 38.921875 48.1875 33.109375 48.1875 
Q 26.21875 48.1875 22.15625 43.53125 
Q 18.109375 38.875 18.109375 30.90625 
L 18.109375 0 
L 9.078125 0 
L 9.078125 54.6875 
L 18.109375 54.6875 
L 18.109375 46.1875 
Q 21.1875 51.21875 25.484375 53.609375 
Q 29.78125 56 35.6875 56 
Q 41.65625 56 45.828125 52.96875 
Q 50 49.953125 52 44.1875 
z
" id="DejaVuSans-109"/>
     <path d="M 54.890625 33.015625 
L 54.890625 0 
L 45.90625 0 
L 45.90625 32.71875 
Q 45.90625 40.484375 42.875 44.328125 
Q 39.84375 48.1875 33.796875 48.1875 
Q 26.515625 48.1875 22.3125 43.546875 
Q 18.109375 38.921875 18.109375 30.90625 
L 18.109375 0 
L 9.078125 0 
L 9.078125 75.984375 
L 18.109375 75.984375 
L 18.109375 46.1875 
Q 21.34375 51.125 25.703125 53.5625 
Q 30.078125 56 35.796875 56 
Q 45.21875 56 50.046875 50.171875 
Q 54.890625 44.34375 54.890625 33.015625 
z
" id="DejaVuSans-104"/>
     <path d="M 2.984375 54.6875 
L 12.5 54.6875 
L 29.59375 8.796875 
L 46.6875 54.6875 
L 56.203125 54.6875 
L 35.6875 0 
L 23.484375 0 
z
" id="DejaVuSans-118"/>
     <path d="M 9.078125 75.984375 
L 18.109375 75.984375 
L 18.109375 31.109375 
L 44.921875 54.6875 
L 56.390625 54.6875 
L 27.390625 29.109375 
L 57.625 0 
L 45.90625 0 
L 18.109375 26.703125 
L 18.109375 0 
L 9.078125 0 
z
" id="DejaVuSans-107"/>
    </defs>
    <g transform="translate(79.309089 22.32)scale(0.12 -0.12)">
     <use transform="translate(0 0.015625)" xlink:href="#DejaVuSans-75"/>
     <use transform="translate(65.576172 0.015625)" xlink:href="#DejaVuSans-68"/>
     <use transform="translate(142.578125 0.015625)" xlink:href="#DejaVuSans-69"/>
     <use transform="translate(205.761719 0.015625)" xlink:href="#DejaVuSans-32"/>
     <use transform="translate(237.548828 0.015625)" xlink:href="#DejaVuSans-97"/>
     <use transform="translate(298.828125 0.015625)" xlink:href="#DejaVuSans-110"/>
     <use transform="translate(362.207031 0.015625)" xlink:href="#DejaVuSans-100"/>
     <use transform="translate(425.683594 0.015625)" xlink:href="#DejaVuSans-32"/>
     <use transform="translate(457.470703 0.015625)" xlink:href="#DejaVuSans-115"/>
     <use transform="translate(509.570312 0.015625)" xlink:href="#DejaVuSans-112"/>
     <use transform="translate(573.046875 0.015625)" xlink:href="#DejaVuSans-108"/>
     <use transform="translate(600.830078 0.015625)" xlink:href="#DejaVuSans-105"/>
     <use transform="translate(628.613281 0.015625)" xlink:href="#DejaVuSans-110"/>
     <use transform="translate(691.992188 0.015625)" xlink:href="#DejaVuSans-101"/>
     <use transform="translate(753.515625 0.015625)" xlink:href="#DejaVuSans-32"/>
     <use transform="translate(785.302734 0.015625)" xlink:href="#DejaVuSans-111"/>
     <use transform="translate(846.484375 0.015625)" xlink:href="#DejaVuSans-102"/>
     <use transform="translate(881.689453 0.015625)" xlink:href="#DejaVuSans-32"/>
     <use transform="translate(913.476562 0.015625)" xlink:href="#DejaVuSans-108"/>
     <use transform="translate(941.259766 0.015625)" xlink:href="#DejaVuSans-111"/>
     <use transform="translate(1002.441406 0.015625)" xlink:href="#DejaVuSans-103"/>
     <use transform="translate(1065.917969 0.015625)" xlink:href="#DejaVuSans-45"/>
     <use transform="translate(1102.001953 0.015625)" xlink:href="#DejaVuSans-116"/>
     <use transform="translate(1141.210938 0.015625)" xlink:href="#DejaVuSans-114"/>
     <use transform="translate(1182.324219 0.015625)" xlink:href="#DejaVuSans-97"/>
     <use transform="translate(1243.603516 0.015625)" xlink:href="#DejaVuSans-110"/>
     <use transform="translate(1306.982422 0.015625)" xlink:href="#DejaVuSans-115"/>
     <use transform="translate(1359.082031 0.015625)" xlink:href="#DejaVuSans-102"/>
     <use transform="translate(1394.287109 0.015625)" xlink:href="#DejaVuSans-111"/>
     <use transform="translate(1455.46875 0.015625)" xlink:href="#DejaVuSans-114"/>
     <use transform="translate(1496.582031 0.015625)" xlink:href="#DejaVuSans-109"/>
     <use transform="translate(1593.994141 0.015625)" xlink:href="#DejaVuSans-101"/>
     <use transform="translate(1655.517578 0.015625)" xlink:href="#DejaVuSans-100"/>
     <use transform="translate(1718.994141 0.015625)" xlink:href="#DejaVuSans-32"/>
     <use transform="translate(1750.78125 0.015625)" xlink:href="#DejaVuSans-Oblique-75"/>
     <use transform="translate(1816.357422 -16.390625)scale(0.7)" xlink:href="#DejaVuSans-83"/>
     <use transform="translate(1863.525391 0.015625)" xlink:href="#DejaVuSans-32"/>
     <use transform="translate(1895.3125 0.015625)" xlink:href="#DejaVuSans-111"/>
     <use transform="translate(1956.494141 0.015625)" xlink:href="#DejaVuSans-102"/>
     <use transform="translate(1991.699219 0.015625)" xlink:href="#DejaVuSans-32"/>
     <use transform="translate(2023.486328 0.015625)" xlink:href="#DejaVuSans-115"/>
     <use transform="translate(2075.585938 0.015625)" xlink:href="#DejaVuSans-112"/>
     <use transform="translate(2139.0625 0.015625)" xlink:href="#DejaVuSans-101"/>
     <use transform="translate(2200.585938 0.015625)" xlink:href="#DejaVuSans-99"/>
     <use transform="translate(2255.566406 0.015625)" xlink:href="#DejaVuSans-105"/>
     <use transform="translate(2283.349609 0.015625)" xlink:href="#DejaVuSans-101"/>
     <use transform="translate(2344.873047 0.015625)" xlink:href="#DejaVuSans-115"/>
     <use transform="translate(2396.972656 0.015625)" xlink:href="#DejaVuSans-32"/>
     <use transform="translate(2428.759766 0.015625)" xlink:href="#DejaVuSans-83"/>
     <use transform="translate(2492.236328 0.015625)" xlink:href="#DejaVuSans-99"/>
     <use transform="translate(2547.216797 0.015625)" xlink:href="#DejaVuSans-104"/>
     <use transform="translate(2610.595703 0.015625)" xlink:href="#DejaVuSans-108"/>
     <use transform="translate(2638.378906 0.015625)" xlink:href="#DejaVuSans-101"/>
     <use transform="translate(2699.902344 0.015625)" xlink:href="#DejaVuSans-99"/>
     <use transform="translate(2754.882812 0.015625)" xlink:href="#DejaVuSans-104"/>
     <use transform="translate(2818.261719 0.015625)" xlink:href="#DejaVuSans-116"/>
     <use transform="translate(2857.470703 0.015625)" xlink:href="#DejaVuSans-101"/>
     <use transform="translate(2918.994141 0.015625)" xlink:href="#DejaVuSans-110"/>
     <use transform="translate(2982.373047 0.015625)" xlink:href="#DejaVuSans-100"/>
     <use transform="translate(3045.849609 0.015625)" xlink:href="#DejaVuSans-97"/>
     <use transform="translate(3107.128906 0.015625)" xlink:href="#DejaVuSans-108"/>
     <use transform="translate(3134.912109 0.015625)" xlink:href="#DejaVuSans-105"/>
     <use transform="translate(3162.695312 0.015625)" xlink:href="#DejaVuSans-97"/>
     <use transform="translate(3223.974609 0.015625)" xlink:href="#DejaVuSans-46"/>
     <use transform="translate(3255.761719 0.015625)" xlink:href="#DejaVuSans-102"/>
     <use transform="translate(3290.966797 0.015625)" xlink:href="#DejaVuSans-97"/>
     <use transform="translate(3352.246094 0.015625)" xlink:href="#DejaVuSans-115"/>
     <use transform="translate(3404.345703 0.015625)" xlink:href="#DejaVuSans-116"/>
     <use transform="translate(3443.554688 0.015625)" xlink:href="#DejaVuSans-97"/>
     <use transform="translate(3504.833984 0.015625)" xlink:href="#DejaVuSans-46"/>
     <use transform="translate(3536.621094 0.015625)" xlink:href="#DejaVuSans-116"/>
     <use transform="translate(3575.830078 0.015625)" xlink:href="#DejaVuSans-114"/>
     <use transform="translate(3616.943359 0.015625)" xlink:href="#DejaVuSans-97"/>
     <use transform="translate(3678.222656 0.015625)" xlink:href="#DejaVuSans-110"/>
     <use transform="translate(3741.601562 0.015625)" xlink:href="#DejaVuSans-115"/>
     <use transform="translate(3793.701172 0.015625)" xlink:href="#DejaVuSans-100"/>
     <use transform="translate(3857.177734 0.015625)" xlink:href="#DejaVuSans-101"/>
     <use transform="translate(3918.701172 0.015625)" xlink:href="#DejaVuSans-99"/>
     <use transform="translate(3973.681641 0.015625)" xlink:href="#DejaVuSans-111"/>
     <use transform="translate(4034.863281 0.015625)" xlink:href="#DejaVuSans-100"/>
     <use transform="translate(4098.339844 0.015625)" xlink:href="#DejaVuSans-101"/>
     <use transform="translate(4159.863281 0.015625)" xlink:href="#DejaVuSans-114"/>
     <use transform="translate(4200.976562 0.015625)" xlink:href="#DejaVuSans-46"/>
     <use transform="translate(4232.763672 0.015625)" xlink:href="#DejaVuSans-99"/>
     <use transform="translate(4287.744141 0.015625)" xlink:href="#DejaVuSans-100"/>
     <use transform="translate(4351.220703 0.015625)" xlink:href="#DejaVuSans-115"/>
     <use transform="translate(4403.320312 0.015625)" xlink:href="#DejaVuSans-46"/>
     <use transform="translate(4435.107422 0.015625)" xlink:href="#DejaVuSans-116"/>
     <use transform="translate(4474.316406 0.015625)" xlink:href="#DejaVuSans-115"/>
     <use transform="translate(4526.416016 0.015625)" xlink:href="#DejaVuSans-118"/>
     <use transform="translate(4585.595703 0.015625)" xlink:href="#DejaVuSans-46"/>
     <use transform="translate(4617.382812 0.015625)" xlink:href="#DejaVuSans-107"/>
     <use transform="translate(4675.292969 0.015625)" xlink:href="#DejaVuSans-115"/>
     <use transform="translate(4727.392578 0.015625)" xlink:href="#DejaVuSans-46"/>
     <use transform="translate(4759.179688 0.015625)" xlink:href="#DejaVuSans-116"/>
     <use transform="translate(4798.388672 0.015625)" xlink:href="#DejaVuSans-115"/>
     <use transform="translate(4850.488281 0.015625)" xlink:href="#DejaVuSans-118"/>
    </g>
   </g>
   <g id="legend_1">
    <g id="line2d_19">
     <path d="M 64.82 44.038125 
L 88.82 44.038125 
" style="fill:none;stroke:#000000;stroke-linecap:square;"/>
    </g>
    <g id="line2d_20"/>
    <g id="text_19">
     <!-- KDE -->
     <g transform="translate(98.42 48.238125)scale(0.12 -0.12)">
      <use xlink:href="#DejaVuSans-75"/>
      <use x="65.576172" xlink:href="#DejaVuSans-68"/>
      <use x="142.578125" xlink:href="#DejaVuSans-69"/>
     </g>
    </g>
    <g id="line2d_21">
     <path d="M 64.82 61.651875 
L 88.82 61.651875 
" style="fill:none;stroke:#0000ff;stroke-linecap:square;"/>
    </g>
    <g id="line2d_22"/>
    <g id="text_20">
     <!-- Spline on KDE -->
     <g transform="translate(98.42 65.851875)scale(0.12 -0.12)">
      <use xlink:href="#DejaVuSans-83"/>
      <use x="63.476562" xlink:href="#DejaVuSans-112"/>
      <use x="126.953125" xlink:href="#DejaVuSans-108"/>
      <use x="154.736328" xlink:href="#DejaVuSans-105"/>
      <use x="182.519531" xlink:href="#DejaVuSans-110"/>
      <use x="245.898438" xlink:href="#DejaVuSans-101"/>
      <use x="307.421875" xlink:href="#DejaVuSans-32"/>
      <use x="339.208984" xlink:href="#DejaVuSans-111"/>
      <use x="400.390625" xlink:href="#DejaVuSans-110"/>
      <use x="463.769531" xlink:href="#DejaVuSans-32"/>
      <use x="495.556641" xlink:href="#DejaVuSans-75"/>
      <use x="561.132812" xlink:href="#DejaVuSans-68"/>
      <use x="638.134766" xlink:href="#DejaVuSans-69"/>
     </g>
    </g>
    <g id="line2d_23">
     <path d="M 64.82 79.265625 
L 88.82 79.265625 
" style="fill:none;stroke:#ff0000;stroke-dasharray:3.7,1.6;stroke-dashoffset:0;"/>
    </g>
    <g id="line2d_24"/>
    <g id="text_21">
     <!-- Reflection boundary -->
     <defs>
      <path d="M 44.390625 34.1875 
Q 47.5625 33.109375 50.5625 29.59375 
Q 53.5625 26.078125 56.59375 19.921875 
L 66.609375 0 
L 56 0 
L 46.6875 18.703125 
Q 43.0625 26.03125 39.671875 28.421875 
Q 36.28125 30.8125 30.421875 30.8125 
L 19.671875 30.8125 
L 19.671875 0 
L 9.8125 0 
L 9.8125 72.90625 
L 32.078125 72.90625 
Q 44.578125 72.90625 50.734375 67.671875 
Q 56.890625 62.453125 56.890625 51.90625 
Q 56.890625 45.015625 53.6875 40.46875 
Q 50.484375 35.9375 44.390625 34.1875 
z
M 19.671875 64.796875 
L 19.671875 38.921875 
L 32.078125 38.921875 
Q 39.203125 38.921875 42.84375 42.21875 
Q 46.484375 45.515625 46.484375 51.90625 
Q 46.484375 58.296875 42.84375 61.546875 
Q 39.203125 64.796875 32.078125 64.796875 
z
" id="DejaVuSans-82"/>
      <path d="M 48.6875 27.296875 
Q 48.6875 37.203125 44.609375 42.84375 
Q 40.53125 48.484375 33.40625 48.484375 
Q 26.265625 48.484375 22.1875 42.84375 
Q 18.109375 37.203125 18.109375 27.296875 
Q 18.109375 17.390625 22.1875 11.75 
Q 26.265625 6.109375 33.40625 6.109375 
Q 40.53125 6.109375 44.609375 11.75 
Q 48.6875 17.390625 48.6875 27.296875 
z
M 18.109375 46.390625 
Q 20.953125 51.265625 25.265625 53.625 
Q 29.59375 56 35.59375 56 
Q 45.5625 56 51.78125 48.09375 
Q 58.015625 40.1875 58.015625 27.296875 
Q 58.015625 14.40625 51.78125 6.484375 
Q 45.5625 -1.421875 35.59375 -1.421875 
Q 29.59375 -1.421875 25.265625 0.953125 
Q 20.953125 3.328125 18.109375 8.203125 
L 18.109375 0 
L 9.078125 0 
L 9.078125 75.984375 
L 18.109375 75.984375 
z
" id="DejaVuSans-98"/>
     </defs>
     <g transform="translate(98.42 83.465625)scale(0.12 -0.12)">
      <use xlink:href="#DejaVuSans-82"/>
      <use x="64.982422" xlink:href="#DejaVuSans-101"/>
      <use x="126.505859" xlink:href="#DejaVuSans-102"/>
      <use x="161.710938" xlink:href="#DejaVuSans-108"/>
      <use x="189.494141" xlink:href="#DejaVuSans-101"/>
      <use x="251.017578" xlink:href="#DejaVuSans-99"/>
      <use x="305.998047" xlink:href="#DejaVuSans-116"/>
      <use x="345.207031" xlink:href="#DejaVuSans-105"/>
      <use x="372.990234" xlink:href="#DejaVuSans-111"/>
      <use x="434.171875" xlink:href="#DejaVuSans-110"/>
      <use x="497.550781" xlink:href="#DejaVuSans-32"/>
      <use x="529.337891" xlink:href="#DejaVuSans-98"/>
      <use x="592.814453" xlink:href="#DejaVuSans-111"/>
      <use x="653.996094" xlink:href="#DejaVuSans-117"/>
      <use x="717.375" xlink:href="#DejaVuSans-110"/>
      <use x="780.753906" xlink:href="#DejaVuSans-100"/>
      <use x="844.230469" xlink:href="#DejaVuSans-97"/>
      <use x="905.509766" xlink:href="#DejaVuSans-114"/>
      <use x="946.623047" xlink:href="#DejaVuSans-121"/>
     </g>
    </g>
   </g>
  </g>
 </g>
 <defs>
  <clipPath id="p135a4c1b5c">
   <rect height="647.272" width="639.778179" x="54.02" y="28.32"/>
  </clipPath>
 </defs>
</svg>
